%TF.GenerationSoftware,KiCad,Pcbnew,7.0.2-0*%
%TF.CreationDate,2023-06-08T14:15:14-07:00*%
%TF.ProjectId,ADXRS290BCEZ_gyro,41445852-5332-4393-9042-43455a5f6779,rev?*%
%TF.SameCoordinates,Original*%
%TF.FileFunction,Copper,L1,Top*%
%TF.FilePolarity,Positive*%
%FSLAX46Y46*%
G04 Gerber Fmt 4.6, Leading zero omitted, Abs format (unit mm)*
G04 Created by KiCad (PCBNEW 7.0.2-0) date 2023-06-08 14:15:14*
%MOMM*%
%LPD*%
G01*
G04 APERTURE LIST*
G04 Aperture macros list*
%AMRoundRect*
0 Rectangle with rounded corners*
0 $1 Rounding radius*
0 $2 $3 $4 $5 $6 $7 $8 $9 X,Y pos of 4 corners*
0 Add a 4 corners polygon primitive as box body*
4,1,4,$2,$3,$4,$5,$6,$7,$8,$9,$2,$3,0*
0 Add four circle primitives for the rounded corners*
1,1,$1+$1,$2,$3*
1,1,$1+$1,$4,$5*
1,1,$1+$1,$6,$7*
1,1,$1+$1,$8,$9*
0 Add four rect primitives between the rounded corners*
20,1,$1+$1,$2,$3,$4,$5,0*
20,1,$1+$1,$4,$5,$6,$7,0*
20,1,$1+$1,$6,$7,$8,$9,0*
20,1,$1+$1,$8,$9,$2,$3,0*%
G04 Aperture macros list end*
%TA.AperFunction,SMDPad,CuDef*%
%ADD10RoundRect,0.225000X0.250000X-0.225000X0.250000X0.225000X-0.250000X0.225000X-0.250000X-0.225000X0*%
%TD*%
%TA.AperFunction,SMDPad,CuDef*%
%ADD11R,0.600000X0.400000*%
%TD*%
%TA.AperFunction,SMDPad,CuDef*%
%ADD12R,0.400000X0.600000*%
%TD*%
%TA.AperFunction,SMDPad,CuDef*%
%ADD13RoundRect,0.225000X-0.250000X0.225000X-0.250000X-0.225000X0.250000X-0.225000X0.250000X0.225000X0*%
%TD*%
%TA.AperFunction,SMDPad,CuDef*%
%ADD14RoundRect,0.225000X-0.225000X-0.250000X0.225000X-0.250000X0.225000X0.250000X-0.225000X0.250000X0*%
%TD*%
%TA.AperFunction,ComponentPad*%
%ADD15R,1.700000X1.700000*%
%TD*%
%TA.AperFunction,ComponentPad*%
%ADD16O,1.700000X1.700000*%
%TD*%
%TA.AperFunction,ViaPad*%
%ADD17C,0.800000*%
%TD*%
%TA.AperFunction,Conductor*%
%ADD18C,0.250000*%
%TD*%
%TA.AperFunction,Conductor*%
%ADD19C,0.400000*%
%TD*%
G04 APERTURE END LIST*
D10*
%TO.P,Ccp1,1*%
%TO.N,GND*%
X143357600Y-99225400D03*
%TO.P,Ccp1,2*%
%TO.N,Net-(ADXRS290BCEZ1-CP)*%
X143357600Y-97675400D03*
%TD*%
D11*
%TO.P,ADXRS290BCEZ1,1,VREG*%
%TO.N,Net-(ADXRS290BCEZ1-VREG-Pad1)*%
X138507200Y-96388400D03*
%TO.P,ADXRS290BCEZ1,2,VDD*%
%TO.N,Net-(ADXRS290BCEZ1-VDD)*%
X138507200Y-97038400D03*
%TO.P,ADXRS290BCEZ1,3,AST*%
%TO.N,unconnected-(ADXRS290BCEZ1-AST-Pad3)*%
X138507200Y-97688400D03*
%TO.P,ADXRS290BCEZ1,4,SENS*%
%TO.N,unconnected-(ADXRS290BCEZ1-SENS-Pad4)*%
X138507200Y-98388400D03*
%TO.P,ADXRS290BCEZ1,5,PDMX*%
%TO.N,unconnected-(ADXRS290BCEZ1-PDMX-Pad5)*%
X138507200Y-99038400D03*
D12*
%TO.P,ADXRS290BCEZ1,6,PDMY*%
%TO.N,unconnected-(ADXRS290BCEZ1-PDMY-Pad6)*%
X139207200Y-99988400D03*
%TO.P,ADXRS290BCEZ1,7,CS*%
%TO.N,Net-(ADXRS290BCEZ1-CS)*%
X139857200Y-99988400D03*
%TO.P,ADXRS290BCEZ1,8,MISO*%
%TO.N,Net-(ADXRS290BCEZ1-MISO)*%
X140507200Y-99988400D03*
%TO.P,ADXRS290BCEZ1,9,MOSI*%
%TO.N,Net-(ADXRS290BCEZ1-MOSI)*%
X141157200Y-99988400D03*
D11*
%TO.P,ADXRS290BCEZ1,10,SCLK*%
%TO.N,Net-(ADXRS290BCEZ1-SCLK)*%
X141807200Y-99038400D03*
%TO.P,ADXRS290BCEZ1,11,SYNC/ASEL*%
%TO.N,GND*%
X141807200Y-98388400D03*
%TO.P,ADXRS290BCEZ1,12,CP*%
%TO.N,Net-(ADXRS290BCEZ1-CP)*%
X141807200Y-97688400D03*
%TO.P,ADXRS290BCEZ1,13,GND*%
%TO.N,GND*%
X141807200Y-97038400D03*
%TO.P,ADXRS290BCEZ1,14,VS*%
%TO.N,Net-(U1-Vs)*%
X141807200Y-96388400D03*
D12*
%TO.P,ADXRS290BCEZ1,15,GND*%
%TO.N,GND*%
X141157200Y-95388400D03*
%TO.P,ADXRS290BCEZ1,16,GND*%
X140507200Y-95388400D03*
%TO.P,ADXRS290BCEZ1,17,VREG*%
%TO.N,Net-(ADXRS290BCEZ1-VREG-Pad1)*%
X139857200Y-95388400D03*
%TO.P,ADXRS290BCEZ1,18,VS*%
%TO.N,Net-(U1-Vs)*%
X139207200Y-95388400D03*
%TD*%
D13*
%TO.P,Cio1,1*%
%TO.N,Net-(ADXRS290BCEZ1-VDD)*%
X136906000Y-97472200D03*
%TO.P,Cio1,2*%
%TO.N,GND*%
X136906000Y-99022200D03*
%TD*%
D10*
%TO.P,Creg1,1*%
%TO.N,Net-(ADXRS290BCEZ1-VREG-Pad1)*%
X136906000Y-95872600D03*
%TO.P,Creg1,2*%
%TO.N,GND*%
X136906000Y-94322600D03*
%TD*%
D14*
%TO.P,Cs1,1*%
%TO.N,Net-(U1-Vs)*%
X139229800Y-93776800D03*
%TO.P,Cs1,2*%
%TO.N,GND*%
X140779800Y-93776800D03*
%TD*%
D15*
%TO.P,U1,1,GND*%
%TO.N,GND*%
X128036200Y-89042800D03*
D16*
%TO.P,U1,2,Vdd*%
%TO.N,Net-(ADXRS290BCEZ1-VDD)*%
X128036200Y-91582800D03*
%TO.P,U1,3,Vs*%
%TO.N,Net-(U1-Vs)*%
X128036200Y-94122800D03*
%TO.P,U1,4,CS*%
%TO.N,Net-(ADXRS290BCEZ1-CS)*%
X128036200Y-96662800D03*
%TO.P,U1,5,MISO*%
%TO.N,Net-(ADXRS290BCEZ1-MISO)*%
X128036200Y-99202800D03*
%TO.P,U1,6,MOSI*%
%TO.N,Net-(ADXRS290BCEZ1-MOSI)*%
X128036200Y-101742800D03*
%TO.P,U1,7,SCLK*%
%TO.N,Net-(ADXRS290BCEZ1-SCLK)*%
X128036200Y-104282800D03*
%TD*%
D17*
%TO.N,GND*%
X137900000Y-102800000D03*
X138450000Y-105500000D03*
X135300000Y-94300000D03*
X135400000Y-99000000D03*
X143350000Y-100800000D03*
X140650000Y-98350000D03*
X142450000Y-93750000D03*
X143300000Y-96300000D03*
%TO.N,Net-(U1-Vs)*%
X138074400Y-93776800D03*
X140250000Y-97000000D03*
%TD*%
D18*
%TO.N,Net-(ADXRS290BCEZ1-VREG-Pad1)*%
X139857200Y-95956400D02*
X139425200Y-96388400D01*
X137579400Y-95872600D02*
X136956800Y-95872600D01*
X139857200Y-95388400D02*
X139857200Y-95956400D01*
X138507200Y-96388400D02*
X138095200Y-96388400D01*
X139425200Y-96388400D02*
X138507200Y-96388400D01*
X138095200Y-96388400D02*
X137579400Y-95872600D01*
D19*
%TO.N,Net-(ADXRS290BCEZ1-VDD)*%
X136919000Y-97434400D02*
X136956800Y-97472200D01*
X129532800Y-91582800D02*
X135384400Y-97434400D01*
D18*
X138064000Y-97038400D02*
X138507200Y-97038400D01*
D19*
X128036200Y-91582800D02*
X129532800Y-91582800D01*
X135384400Y-97434400D02*
X136919000Y-97434400D01*
D18*
X137630200Y-97472200D02*
X138064000Y-97038400D01*
X136956800Y-97472200D02*
X137630200Y-97472200D01*
%TO.N,Net-(ADXRS290BCEZ1-CS)*%
X139857200Y-100538400D02*
X139857200Y-99988400D01*
X128036200Y-96662800D02*
X128036200Y-96692600D01*
X132186400Y-100842800D02*
X139552800Y-100842800D01*
X139552800Y-100842800D02*
X139857200Y-100538400D01*
X128036200Y-96692600D02*
X132186400Y-100842800D01*
%TO.N,Net-(ADXRS290BCEZ1-MISO)*%
X139753200Y-101292800D02*
X140507200Y-100538800D01*
X140507200Y-100538800D02*
X140507200Y-99988400D01*
X130147200Y-101292800D02*
X139753200Y-101292800D01*
X128036200Y-99202800D02*
X128057200Y-99202800D01*
X128057200Y-99202800D02*
X130147200Y-101292800D01*
%TO.N,Net-(ADXRS290BCEZ1-MOSI)*%
X128036200Y-101742800D02*
X139963600Y-101742800D01*
X139963600Y-101742800D02*
X141157200Y-100549200D01*
X141157200Y-100549200D02*
X141157200Y-99988400D01*
%TO.N,Net-(ADXRS290BCEZ1-SCLK)*%
X138084000Y-104282800D02*
X141807200Y-100559600D01*
X128036200Y-104282800D02*
X138084000Y-104282800D01*
X141807200Y-100559600D02*
X141807200Y-99038400D01*
%TO.N,GND*%
X142561600Y-97038400D02*
X143300000Y-96300000D01*
X141807200Y-97038400D02*
X142561600Y-97038400D01*
X140507200Y-95388400D02*
X141157200Y-95388400D01*
%TO.N,Net-(ADXRS290BCEZ1-CP)*%
X143344600Y-97688400D02*
X143357600Y-97675400D01*
X141807200Y-97688400D02*
X143344600Y-97688400D01*
%TO.N,Net-(U1-Vs)*%
X139207200Y-95388400D02*
X139207200Y-93799400D01*
X140250000Y-97000000D02*
X140861600Y-96388400D01*
X140861600Y-96388400D02*
X141807200Y-96388400D01*
D19*
X138074400Y-93776800D02*
X139229800Y-93776800D01*
D18*
X139207200Y-93799400D02*
X139229800Y-93776800D01*
%TD*%
%TA.AperFunction,Conductor*%
%TO.N,GND*%
G36*
X146092539Y-86770185D02*
G01*
X146138294Y-86822989D01*
X146149500Y-86874500D01*
X146149500Y-106375500D01*
X146129815Y-106442539D01*
X146077011Y-106488294D01*
X146025500Y-106499500D01*
X140174000Y-106499500D01*
X140106961Y-106479815D01*
X140061206Y-106427011D01*
X140050000Y-106375500D01*
X140050000Y-102899199D01*
X140069685Y-102832160D01*
X140086319Y-102811518D01*
X140951954Y-101945883D01*
X142036092Y-100861744D01*
X142055943Y-100845624D01*
X142065036Y-100839684D01*
X142084480Y-100814701D01*
X142094653Y-100803184D01*
X142094720Y-100803118D01*
X142106819Y-100786170D01*
X142109841Y-100782115D01*
X142142009Y-100740789D01*
X142142010Y-100740785D01*
X142146866Y-100734547D01*
X142146953Y-100734378D01*
X142149208Y-100726800D01*
X142149210Y-100726799D01*
X142164151Y-100676609D01*
X142165679Y-100671838D01*
X142182700Y-100622260D01*
X142182700Y-100622255D01*
X142185260Y-100614799D01*
X142185293Y-100614570D01*
X142184967Y-100606690D01*
X142184968Y-100606688D01*
X142182805Y-100554406D01*
X142182700Y-100549284D01*
X142182700Y-99732560D01*
X142202385Y-99665521D01*
X142255189Y-99619766D01*
X142324347Y-99609822D01*
X142387903Y-99638847D01*
X142424406Y-99693557D01*
X142446053Y-99758885D01*
X142535026Y-99903132D01*
X142654867Y-100022973D01*
X142799113Y-100111946D01*
X142959993Y-100165256D01*
X143056135Y-100175078D01*
X143062452Y-100175399D01*
X143107599Y-100175399D01*
X143107600Y-100175398D01*
X143107600Y-99475400D01*
X143607600Y-99475400D01*
X143607600Y-100175399D01*
X143652765Y-100175399D01*
X143659047Y-100175078D01*
X143755205Y-100165256D01*
X143916086Y-100111946D01*
X144060332Y-100022973D01*
X144180173Y-99903132D01*
X144269146Y-99758886D01*
X144322456Y-99598006D01*
X144332280Y-99501845D01*
X144332600Y-99495567D01*
X144332600Y-99475400D01*
X143607600Y-99475400D01*
X143107600Y-99475400D01*
X143107600Y-99099400D01*
X143127285Y-99032361D01*
X143180089Y-98986606D01*
X143231600Y-98975400D01*
X144332599Y-98975400D01*
X144332599Y-98955234D01*
X144332278Y-98948952D01*
X144322456Y-98852794D01*
X144269146Y-98691913D01*
X144180173Y-98547667D01*
X144060333Y-98427827D01*
X144002330Y-98392050D01*
X143955606Y-98340102D01*
X143944385Y-98271139D01*
X143968161Y-98212202D01*
X143984859Y-98189897D01*
X144029228Y-98130626D01*
X144077012Y-98002514D01*
X144083100Y-97945885D01*
X144083099Y-97404916D01*
X144077012Y-97348286D01*
X144029228Y-97220174D01*
X144023099Y-97211986D01*
X143947287Y-97110712D01*
X143837826Y-97028772D01*
X143709716Y-96980988D01*
X143656370Y-96975253D01*
X143656367Y-96975252D01*
X143653085Y-96974900D01*
X143649774Y-96974900D01*
X143065427Y-96974900D01*
X143065408Y-96974900D01*
X143062116Y-96974901D01*
X143058838Y-96975253D01*
X143058825Y-96975254D01*
X143005482Y-96980988D01*
X142877374Y-97028771D01*
X142767912Y-97110712D01*
X142709525Y-97188710D01*
X142653592Y-97230582D01*
X142610258Y-97238400D01*
X142146599Y-97238400D01*
X142141522Y-97237900D01*
X142131874Y-97237900D01*
X141731200Y-97237900D01*
X141664161Y-97218215D01*
X141618406Y-97165411D01*
X141607200Y-97113900D01*
X141607200Y-96962900D01*
X141626885Y-96895861D01*
X141679689Y-96850106D01*
X141731200Y-96838900D01*
X142141522Y-96838900D01*
X142146599Y-96838400D01*
X142607200Y-96838400D01*
X142607200Y-96793881D01*
X142606845Y-96787267D01*
X142600799Y-96731028D01*
X142550552Y-96596310D01*
X142464388Y-96481210D01*
X142407389Y-96438541D01*
X142365518Y-96382607D01*
X142357700Y-96339274D01*
X142357700Y-96163725D01*
X142343166Y-96090661D01*
X142343166Y-96090660D01*
X142287801Y-96007799D01*
X142204940Y-95952434D01*
X142204939Y-95952433D01*
X142204938Y-95952433D01*
X142131875Y-95937900D01*
X142131874Y-95937900D01*
X141973564Y-95937900D01*
X141906525Y-95918215D01*
X141860770Y-95865411D01*
X141850275Y-95800644D01*
X141856845Y-95739530D01*
X141857200Y-95732918D01*
X141857200Y-95588400D01*
X140431700Y-95588400D01*
X140364661Y-95568715D01*
X140318906Y-95515911D01*
X140307700Y-95464400D01*
X140307700Y-95312400D01*
X140327385Y-95245361D01*
X140380189Y-95199606D01*
X140431700Y-95188400D01*
X141857200Y-95188400D01*
X141857200Y-95043881D01*
X141856845Y-95037267D01*
X141850799Y-94981028D01*
X141800552Y-94846310D01*
X141714389Y-94731211D01*
X141605172Y-94649452D01*
X141563301Y-94593518D01*
X141558317Y-94523827D01*
X141573945Y-94485087D01*
X141666346Y-94335283D01*
X141719656Y-94174406D01*
X141729480Y-94078245D01*
X141729800Y-94071967D01*
X141729800Y-94026800D01*
X140653800Y-94026800D01*
X140586761Y-94007115D01*
X140541006Y-93954311D01*
X140529800Y-93902800D01*
X140529800Y-92801800D01*
X141029800Y-92801800D01*
X141029800Y-93526800D01*
X141729799Y-93526800D01*
X141729799Y-93481634D01*
X141729478Y-93475352D01*
X141719656Y-93379194D01*
X141666346Y-93218313D01*
X141577373Y-93074067D01*
X141457532Y-92954226D01*
X141313286Y-92865253D01*
X141152406Y-92811943D01*
X141056245Y-92802119D01*
X141049968Y-92801800D01*
X141029800Y-92801800D01*
X140529800Y-92801800D01*
X140509636Y-92801800D01*
X140503350Y-92802121D01*
X140407194Y-92811943D01*
X140246313Y-92865253D01*
X140102067Y-92954226D01*
X139982227Y-93074066D01*
X139946450Y-93132069D01*
X139894501Y-93178793D01*
X139825538Y-93190014D01*
X139766602Y-93166239D01*
X139763749Y-93164103D01*
X139685026Y-93105172D01*
X139667403Y-93098599D01*
X139556916Y-93057388D01*
X139503570Y-93051653D01*
X139503567Y-93051652D01*
X139500285Y-93051300D01*
X139496974Y-93051300D01*
X138962627Y-93051300D01*
X138962608Y-93051300D01*
X138959316Y-93051301D01*
X138956038Y-93051653D01*
X138956025Y-93051654D01*
X138902682Y-93057388D01*
X138774574Y-93105171D01*
X138665114Y-93187111D01*
X138636010Y-93225990D01*
X138580076Y-93267861D01*
X138510385Y-93272845D01*
X138454518Y-93244496D01*
X138446641Y-93237518D01*
X138446640Y-93237517D01*
X138356132Y-93190014D01*
X138306764Y-93164103D01*
X138153385Y-93126300D01*
X137995415Y-93126300D01*
X137842035Y-93164103D01*
X137702161Y-93237516D01*
X137583914Y-93342272D01*
X137561809Y-93374298D01*
X137507526Y-93418288D01*
X137438078Y-93425947D01*
X137420756Y-93421563D01*
X137303606Y-93382743D01*
X137207445Y-93372919D01*
X137201168Y-93372600D01*
X137156000Y-93372600D01*
X137156000Y-94448600D01*
X137136315Y-94515639D01*
X137083511Y-94561394D01*
X137032000Y-94572600D01*
X135931001Y-94572600D01*
X135931001Y-94592765D01*
X135931321Y-94599047D01*
X135941143Y-94695205D01*
X135994453Y-94856086D01*
X136083426Y-95000332D01*
X136203267Y-95120173D01*
X136261268Y-95155949D01*
X136307993Y-95207897D01*
X136319214Y-95276859D01*
X136295439Y-95335796D01*
X136234371Y-95417373D01*
X136186588Y-95545483D01*
X136183630Y-95572997D01*
X136180500Y-95602115D01*
X136180500Y-95605424D01*
X136180500Y-95605425D01*
X136180500Y-96139772D01*
X136180500Y-96139790D01*
X136180501Y-96143084D01*
X136180853Y-96146362D01*
X136180854Y-96146374D01*
X136186588Y-96199717D01*
X136234371Y-96327825D01*
X136316312Y-96437287D01*
X136398252Y-96498626D01*
X136425774Y-96519228D01*
X136482311Y-96540315D01*
X136524948Y-96556219D01*
X136580881Y-96598090D01*
X136605297Y-96663555D01*
X136590445Y-96731828D01*
X136541039Y-96781233D01*
X136524948Y-96788581D01*
X136425773Y-96825572D01*
X136316313Y-96907511D01*
X136296329Y-96934209D01*
X136240396Y-96976081D01*
X136197061Y-96983900D01*
X135622366Y-96983900D01*
X135555327Y-96964215D01*
X135534685Y-96947581D01*
X132659703Y-94072600D01*
X135931000Y-94072600D01*
X136656000Y-94072600D01*
X136656000Y-93372600D01*
X136610835Y-93372600D01*
X136604551Y-93372921D01*
X136508394Y-93382743D01*
X136347513Y-93436053D01*
X136203267Y-93525026D01*
X136083426Y-93644867D01*
X135994453Y-93789113D01*
X135941143Y-93949993D01*
X135931319Y-94046154D01*
X135931000Y-94052432D01*
X135931000Y-94072600D01*
X132659703Y-94072600D01*
X129874168Y-91287065D01*
X129864902Y-91276697D01*
X129842679Y-91248830D01*
X129795408Y-91216600D01*
X129791670Y-91213948D01*
X129740835Y-91176429D01*
X129736224Y-91174102D01*
X129675849Y-91155479D01*
X129671444Y-91154030D01*
X129611823Y-91133168D01*
X129606714Y-91132300D01*
X129600702Y-91132300D01*
X129543538Y-91132300D01*
X129538901Y-91132213D01*
X129475770Y-91129850D01*
X129457165Y-91132300D01*
X129118040Y-91132300D01*
X129051001Y-91112615D01*
X129007040Y-91063571D01*
X128975873Y-91000979D01*
X128975872Y-91000979D01*
X128852963Y-90838219D01*
X128702243Y-90700820D01*
X128575310Y-90622227D01*
X128528675Y-90570199D01*
X128517571Y-90501217D01*
X128545524Y-90437183D01*
X128603659Y-90398427D01*
X128640588Y-90392800D01*
X128930718Y-90392800D01*
X128937332Y-90392445D01*
X128993571Y-90386399D01*
X129128289Y-90336152D01*
X129243388Y-90249988D01*
X129329552Y-90134889D01*
X129379799Y-90000171D01*
X129385845Y-89943932D01*
X129386200Y-89937318D01*
X129386200Y-89292800D01*
X128469886Y-89292800D01*
X128495693Y-89252644D01*
X128536200Y-89114689D01*
X128536200Y-88970911D01*
X128495693Y-88832956D01*
X128469886Y-88792800D01*
X129386200Y-88792800D01*
X129386200Y-88148281D01*
X129385845Y-88141667D01*
X129379799Y-88085428D01*
X129329552Y-87950710D01*
X129243388Y-87835611D01*
X129128289Y-87749447D01*
X128993571Y-87699200D01*
X128937332Y-87693154D01*
X128930718Y-87692800D01*
X128286200Y-87692800D01*
X128286200Y-88607298D01*
X128178515Y-88558120D01*
X128071963Y-88542800D01*
X128000437Y-88542800D01*
X127893885Y-88558120D01*
X127786199Y-88607298D01*
X127786200Y-87692800D01*
X127141682Y-87692800D01*
X127135067Y-87693154D01*
X127078828Y-87699200D01*
X126944110Y-87749447D01*
X126829011Y-87835611D01*
X126742847Y-87950710D01*
X126692600Y-88085428D01*
X126686554Y-88141667D01*
X126686200Y-88148281D01*
X126686200Y-88792800D01*
X127602514Y-88792800D01*
X127576707Y-88832956D01*
X127536200Y-88970911D01*
X127536200Y-89114689D01*
X127576707Y-89252644D01*
X127602514Y-89292800D01*
X126686200Y-89292800D01*
X126686200Y-89937318D01*
X126686554Y-89943932D01*
X126692600Y-90000171D01*
X126742847Y-90134889D01*
X126829011Y-90249988D01*
X126944110Y-90336152D01*
X127078828Y-90386399D01*
X127135067Y-90392445D01*
X127141682Y-90392800D01*
X127431812Y-90392800D01*
X127498851Y-90412485D01*
X127544606Y-90465289D01*
X127554550Y-90534447D01*
X127525525Y-90598003D01*
X127497090Y-90622227D01*
X127370156Y-90700820D01*
X127219436Y-90838219D01*
X127096524Y-91000981D01*
X127005618Y-91183548D01*
X126949802Y-91379716D01*
X126930985Y-91582800D01*
X126949802Y-91785883D01*
X127005618Y-91982051D01*
X127096524Y-92164618D01*
X127219436Y-92327380D01*
X127370158Y-92464781D01*
X127543561Y-92572147D01*
X127543563Y-92572148D01*
X127733744Y-92645824D01*
X127934224Y-92683300D01*
X127934226Y-92683300D01*
X128138174Y-92683300D01*
X128138176Y-92683300D01*
X128338656Y-92645824D01*
X128528837Y-92572148D01*
X128702241Y-92464781D01*
X128852964Y-92327379D01*
X128975873Y-92164621D01*
X129007040Y-92102028D01*
X129054542Y-92050792D01*
X129118040Y-92033300D01*
X129294834Y-92033300D01*
X129361873Y-92052985D01*
X129382515Y-92069619D01*
X135043030Y-97730133D01*
X135052296Y-97740501D01*
X135074520Y-97768369D01*
X135121764Y-97800580D01*
X135125541Y-97803260D01*
X135171263Y-97837005D01*
X135176373Y-97840776D01*
X135180968Y-97843095D01*
X135186725Y-97844870D01*
X135186727Y-97844872D01*
X135206050Y-97850832D01*
X135241380Y-97861730D01*
X135245771Y-97863174D01*
X135299701Y-97882046D01*
X135299702Y-97882046D01*
X135305389Y-97884036D01*
X135310473Y-97884900D01*
X135316498Y-97884900D01*
X135373662Y-97884900D01*
X135378299Y-97884987D01*
X135435410Y-97887124D01*
X135435410Y-97887123D01*
X135441429Y-97887349D01*
X135460035Y-97884900D01*
X136140468Y-97884900D01*
X136207507Y-97904585D01*
X136239734Y-97934589D01*
X136250649Y-97949170D01*
X136295439Y-98009003D01*
X136319855Y-98074467D01*
X136305003Y-98142740D01*
X136261269Y-98188850D01*
X136203266Y-98224627D01*
X136083426Y-98344467D01*
X135994453Y-98488713D01*
X135941143Y-98649593D01*
X135931319Y-98745754D01*
X135931000Y-98752032D01*
X135931000Y-98772200D01*
X137032000Y-98772200D01*
X137099039Y-98791885D01*
X137144794Y-98844689D01*
X137156000Y-98896200D01*
X137156000Y-99972199D01*
X137201165Y-99972199D01*
X137207447Y-99971878D01*
X137303605Y-99962056D01*
X137464486Y-99908746D01*
X137608732Y-99819773D01*
X137728573Y-99699932D01*
X137817546Y-99555685D01*
X137841309Y-99483973D01*
X137881081Y-99426528D01*
X137945596Y-99399704D01*
X138014372Y-99412018D01*
X138027897Y-99419868D01*
X138109460Y-99474366D01*
X138131696Y-99478789D01*
X138182525Y-99488900D01*
X138640381Y-99488900D01*
X138707420Y-99508585D01*
X138753175Y-99561389D01*
X138763119Y-99630547D01*
X138761998Y-99637092D01*
X138756700Y-99663725D01*
X138756700Y-100313076D01*
X138757900Y-100319109D01*
X138751673Y-100388700D01*
X138708810Y-100443878D01*
X138642920Y-100467122D01*
X138636283Y-100467300D01*
X132393299Y-100467300D01*
X132326260Y-100447615D01*
X132305618Y-100430981D01*
X131146837Y-99272200D01*
X135931001Y-99272200D01*
X135931001Y-99292365D01*
X135931321Y-99298647D01*
X135941143Y-99394805D01*
X135994453Y-99555686D01*
X136083426Y-99699932D01*
X136203267Y-99819773D01*
X136347513Y-99908746D01*
X136508393Y-99962056D01*
X136604535Y-99971878D01*
X136610852Y-99972199D01*
X136655999Y-99972199D01*
X136656000Y-99972198D01*
X136656000Y-99272200D01*
X135931001Y-99272200D01*
X131146837Y-99272200D01*
X129086624Y-97211986D01*
X129053139Y-97150663D01*
X129058123Y-97080971D01*
X129063306Y-97069031D01*
X129064279Y-97067075D01*
X129066782Y-97062050D01*
X129122597Y-96865883D01*
X129141415Y-96662800D01*
X129122597Y-96459717D01*
X129120945Y-96453912D01*
X129091237Y-96349500D01*
X129066782Y-96263550D01*
X129053305Y-96236484D01*
X128975875Y-96080981D01*
X128852963Y-95918219D01*
X128702241Y-95780818D01*
X128528838Y-95673452D01*
X128338657Y-95599776D01*
X128260039Y-95585080D01*
X128138176Y-95562300D01*
X127934224Y-95562300D01*
X127833984Y-95581038D01*
X127733742Y-95599776D01*
X127543561Y-95673452D01*
X127370158Y-95780818D01*
X127219436Y-95918219D01*
X127096524Y-96080981D01*
X127005618Y-96263548D01*
X126949802Y-96459716D01*
X126930985Y-96662799D01*
X126949802Y-96865883D01*
X127005618Y-97062051D01*
X127096524Y-97244618D01*
X127219436Y-97407380D01*
X127370158Y-97544781D01*
X127540901Y-97650500D01*
X127543563Y-97652148D01*
X127733744Y-97725824D01*
X127934224Y-97763300D01*
X127934226Y-97763300D01*
X128138174Y-97763300D01*
X128138176Y-97763300D01*
X128338656Y-97725824D01*
X128407274Y-97699240D01*
X128476897Y-97693378D01*
X128538637Y-97726087D01*
X128539749Y-97727186D01*
X131518182Y-100705619D01*
X131551667Y-100766942D01*
X131546683Y-100836634D01*
X131504811Y-100892567D01*
X131439347Y-100916984D01*
X131430501Y-100917300D01*
X130354100Y-100917300D01*
X130287061Y-100897615D01*
X130266419Y-100880981D01*
X129100745Y-99715307D01*
X129067260Y-99653984D01*
X129069160Y-99593691D01*
X129070023Y-99590660D01*
X129122597Y-99405883D01*
X129141415Y-99202800D01*
X129122597Y-98999717D01*
X129066782Y-98803550D01*
X129051172Y-98772200D01*
X128975875Y-98620981D01*
X128852963Y-98458219D01*
X128702241Y-98320818D01*
X128528838Y-98213452D01*
X128338657Y-98139776D01*
X128226593Y-98118828D01*
X128138176Y-98102300D01*
X127934224Y-98102300D01*
X127845807Y-98118828D01*
X127733742Y-98139776D01*
X127543561Y-98213452D01*
X127370158Y-98320818D01*
X127219436Y-98458219D01*
X127096524Y-98620981D01*
X127005618Y-98803548D01*
X126949802Y-98999716D01*
X126930985Y-99202800D01*
X126949802Y-99405883D01*
X127005618Y-99602051D01*
X127096524Y-99784618D01*
X127219436Y-99947380D01*
X127370158Y-100084781D01*
X127516512Y-100175399D01*
X127543563Y-100192148D01*
X127733744Y-100265824D01*
X127934224Y-100303300D01*
X127934226Y-100303300D01*
X128138174Y-100303300D01*
X128138176Y-100303300D01*
X128338656Y-100265824D01*
X128443889Y-100225055D01*
X128513512Y-100219193D01*
X128575252Y-100251902D01*
X128576364Y-100253001D01*
X129478982Y-101155619D01*
X129512467Y-101216942D01*
X129507483Y-101286634D01*
X129465611Y-101342567D01*
X129400147Y-101366984D01*
X129391301Y-101367300D01*
X129155386Y-101367300D01*
X129088347Y-101347615D01*
X129044386Y-101298571D01*
X128975875Y-101160981D01*
X128852963Y-100998219D01*
X128702241Y-100860818D01*
X128528838Y-100753452D01*
X128338657Y-100679776D01*
X128271829Y-100667284D01*
X128138176Y-100642300D01*
X127934224Y-100642300D01*
X127833984Y-100661038D01*
X127733742Y-100679776D01*
X127543561Y-100753452D01*
X127370158Y-100860818D01*
X127219436Y-100998219D01*
X127096524Y-101160981D01*
X127005618Y-101343548D01*
X126949802Y-101539716D01*
X126930985Y-101742800D01*
X126949802Y-101945883D01*
X127005618Y-102142051D01*
X127096524Y-102324618D01*
X127219436Y-102487380D01*
X127370158Y-102624781D01*
X127543561Y-102732147D01*
X127543563Y-102732148D01*
X127733744Y-102805824D01*
X127934224Y-102843300D01*
X127934226Y-102843300D01*
X128138174Y-102843300D01*
X128138176Y-102843300D01*
X128338656Y-102805824D01*
X128528837Y-102732148D01*
X128702241Y-102624781D01*
X128852964Y-102487379D01*
X128975873Y-102324621D01*
X128975873Y-102324619D01*
X128975875Y-102324618D01*
X129044386Y-102187029D01*
X129091888Y-102135792D01*
X129155386Y-102118300D01*
X139176000Y-102118300D01*
X139243039Y-102137985D01*
X139288794Y-102190789D01*
X139300000Y-102242300D01*
X139300000Y-102484400D01*
X139280315Y-102551439D01*
X139263681Y-102572081D01*
X137964781Y-103870981D01*
X137903458Y-103904466D01*
X137877100Y-103907300D01*
X129155386Y-103907300D01*
X129088347Y-103887615D01*
X129044386Y-103838571D01*
X128975875Y-103700981D01*
X128852963Y-103538219D01*
X128702241Y-103400818D01*
X128528838Y-103293452D01*
X128338657Y-103219776D01*
X128271829Y-103207284D01*
X128138176Y-103182300D01*
X127934224Y-103182300D01*
X127833984Y-103201038D01*
X127733742Y-103219776D01*
X127543561Y-103293452D01*
X127370158Y-103400818D01*
X127219436Y-103538219D01*
X127096524Y-103700981D01*
X127005618Y-103883548D01*
X126949802Y-104079716D01*
X126930985Y-104282799D01*
X126949802Y-104485883D01*
X127005618Y-104682051D01*
X127096524Y-104864618D01*
X127219436Y-105027380D01*
X127370158Y-105164781D01*
X127543561Y-105272147D01*
X127543563Y-105272148D01*
X127733744Y-105345824D01*
X127934224Y-105383300D01*
X127934226Y-105383300D01*
X128138174Y-105383300D01*
X128138176Y-105383300D01*
X128338656Y-105345824D01*
X128528837Y-105272148D01*
X128702241Y-105164781D01*
X128852964Y-105027379D01*
X128975873Y-104864621D01*
X128975873Y-104864619D01*
X128975875Y-104864618D01*
X129044386Y-104727029D01*
X129091888Y-104675792D01*
X129155386Y-104658300D01*
X138032195Y-104658300D01*
X138057641Y-104660939D01*
X138061440Y-104661735D01*
X138068268Y-104663167D01*
X138098138Y-104659443D01*
X138099677Y-104659252D01*
X138115014Y-104658300D01*
X138115111Y-104658300D01*
X138115114Y-104658300D01*
X138135643Y-104654873D01*
X138140659Y-104654142D01*
X138192626Y-104647666D01*
X138192628Y-104647664D01*
X138200457Y-104646689D01*
X138200666Y-104646622D01*
X138207607Y-104642865D01*
X138207610Y-104642865D01*
X138253666Y-104617940D01*
X138258144Y-104615635D01*
X138305211Y-104592626D01*
X138305212Y-104592624D01*
X138312308Y-104589156D01*
X138312476Y-104589030D01*
X138317824Y-104583219D01*
X138317826Y-104583219D01*
X138353294Y-104544689D01*
X138356795Y-104541040D01*
X139088320Y-103809516D01*
X139149642Y-103776032D01*
X139219334Y-103781016D01*
X139275267Y-103822888D01*
X139299684Y-103888352D01*
X139300000Y-103897198D01*
X139300000Y-106375500D01*
X139280315Y-106442539D01*
X139227511Y-106488294D01*
X139176000Y-106499500D01*
X125874500Y-106499500D01*
X125807461Y-106479815D01*
X125761706Y-106427011D01*
X125750500Y-106375500D01*
X125750500Y-94122799D01*
X126930985Y-94122799D01*
X126949802Y-94325883D01*
X127005618Y-94522051D01*
X127096524Y-94704618D01*
X127219436Y-94867380D01*
X127370158Y-95004781D01*
X127543561Y-95112147D01*
X127543563Y-95112148D01*
X127733744Y-95185824D01*
X127934224Y-95223300D01*
X127934226Y-95223300D01*
X128138174Y-95223300D01*
X128138176Y-95223300D01*
X128338656Y-95185824D01*
X128528837Y-95112148D01*
X128702241Y-95004781D01*
X128852964Y-94867379D01*
X128975873Y-94704621D01*
X128975873Y-94704619D01*
X128975875Y-94704618D01*
X129065897Y-94523827D01*
X129066782Y-94522050D01*
X129122597Y-94325883D01*
X129141415Y-94122800D01*
X129122597Y-93919717D01*
X129066782Y-93723550D01*
X129015212Y-93619982D01*
X128975875Y-93540981D01*
X128852963Y-93378219D01*
X128702241Y-93240818D01*
X128528838Y-93133452D01*
X128338657Y-93059776D01*
X128271829Y-93047284D01*
X128138176Y-93022300D01*
X127934224Y-93022300D01*
X127833984Y-93041038D01*
X127733742Y-93059776D01*
X127543561Y-93133452D01*
X127370158Y-93240818D01*
X127219436Y-93378219D01*
X127096524Y-93540981D01*
X127005618Y-93723548D01*
X126949802Y-93919716D01*
X126930985Y-94122799D01*
X125750500Y-94122799D01*
X125750500Y-86874500D01*
X125770185Y-86807461D01*
X125822989Y-86761706D01*
X125874500Y-86750500D01*
X146025500Y-86750500D01*
X146092539Y-86770185D01*
G37*
%TD.AperFunction*%
%TA.AperFunction,Conductor*%
G36*
X140990466Y-97321716D02*
G01*
X141022402Y-97369369D01*
X141063847Y-97480489D01*
X141150011Y-97595590D01*
X141174783Y-97614134D01*
X141216653Y-97670068D01*
X141221637Y-97739760D01*
X141188151Y-97801082D01*
X141174783Y-97812666D01*
X141150011Y-97831209D01*
X141063847Y-97946310D01*
X141013600Y-98081028D01*
X141007554Y-98137267D01*
X141007200Y-98143881D01*
X141007200Y-98188400D01*
X141607200Y-98188400D01*
X141620381Y-98175219D01*
X141681704Y-98141734D01*
X141708062Y-98138900D01*
X141883200Y-98138900D01*
X141950239Y-98158585D01*
X141995994Y-98211389D01*
X142007200Y-98262900D01*
X142007200Y-98463900D01*
X141987515Y-98530939D01*
X141934711Y-98576694D01*
X141883200Y-98587900D01*
X141472878Y-98587900D01*
X141467801Y-98588400D01*
X141007200Y-98588400D01*
X141007200Y-98632918D01*
X141007554Y-98639532D01*
X141013600Y-98695771D01*
X141063847Y-98830489D01*
X141150011Y-98945590D01*
X141207010Y-98988258D01*
X141248882Y-99044191D01*
X141256700Y-99087525D01*
X141256700Y-99263074D01*
X141261998Y-99289708D01*
X141255771Y-99359299D01*
X141212909Y-99414477D01*
X141147019Y-99437722D01*
X141140381Y-99437900D01*
X140932524Y-99437900D01*
X140856389Y-99453044D01*
X140808006Y-99453044D01*
X140804940Y-99452434D01*
X140764637Y-99444417D01*
X140731875Y-99437900D01*
X140731874Y-99437900D01*
X140282526Y-99437900D01*
X140282524Y-99437900D01*
X140206390Y-99453044D01*
X140158006Y-99453044D01*
X140149807Y-99451413D01*
X140087897Y-99419027D01*
X140053323Y-99358311D01*
X140050000Y-99329796D01*
X140050000Y-97774500D01*
X140069685Y-97707461D01*
X140122489Y-97661706D01*
X140174000Y-97650500D01*
X140328985Y-97650500D01*
X140482365Y-97612696D01*
X140622240Y-97539283D01*
X140740483Y-97434530D01*
X140804170Y-97342262D01*
X140858453Y-97298273D01*
X140927901Y-97290613D01*
X140990466Y-97321716D01*
G37*
%TD.AperFunction*%
%TD*%
M02*
