%TF.GenerationSoftware,KiCad,Pcbnew,7.0.2-0*%
%TF.CreationDate,2023-06-08T14:15:14-07:00*%
%TF.ProjectId,ADXRS290BCEZ_gyro,41445852-5332-4393-9042-43455a5f6779,rev?*%
%TF.SameCoordinates,Original*%
%TF.FileFunction,Copper,L2,Bot*%
%TF.FilePolarity,Positive*%
%FSLAX46Y46*%
G04 Gerber Fmt 4.6, Leading zero omitted, Abs format (unit mm)*
G04 Created by KiCad (PCBNEW 7.0.2-0) date 2023-06-08 14:15:14*
%MOMM*%
%LPD*%
G01*
G04 APERTURE LIST*
%TA.AperFunction,ComponentPad*%
%ADD10R,1.700000X1.700000*%
%TD*%
%TA.AperFunction,ComponentPad*%
%ADD11O,1.700000X1.700000*%
%TD*%
%TA.AperFunction,ViaPad*%
%ADD12C,0.800000*%
%TD*%
%TA.AperFunction,Conductor*%
%ADD13C,0.400000*%
%TD*%
G04 APERTURE END LIST*
D10*
%TO.P,U1,1,GND*%
%TO.N,GND*%
X128036200Y-89042800D03*
D11*
%TO.P,U1,2,Vdd*%
%TO.N,Net-(ADXRS290BCEZ1-VDD)*%
X128036200Y-91582800D03*
%TO.P,U1,3,Vs*%
%TO.N,Net-(U1-Vs)*%
X128036200Y-94122800D03*
%TO.P,U1,4,CS*%
%TO.N,Net-(ADXRS290BCEZ1-CS)*%
X128036200Y-96662800D03*
%TO.P,U1,5,MISO*%
%TO.N,Net-(ADXRS290BCEZ1-MISO)*%
X128036200Y-99202800D03*
%TO.P,U1,6,MOSI*%
%TO.N,Net-(ADXRS290BCEZ1-MOSI)*%
X128036200Y-101742800D03*
%TO.P,U1,7,SCLK*%
%TO.N,Net-(ADXRS290BCEZ1-SCLK)*%
X128036200Y-104282800D03*
%TD*%
D12*
%TO.N,GND*%
X137900000Y-102800000D03*
X138450000Y-105500000D03*
X135300000Y-94300000D03*
X135400000Y-99000000D03*
X143350000Y-100800000D03*
X140650000Y-98350000D03*
X142450000Y-93750000D03*
X143300000Y-96300000D03*
%TO.N,Net-(U1-Vs)*%
X138074400Y-93776800D03*
X140250000Y-97000000D03*
%TD*%
D13*
%TO.N,Net-(U1-Vs)*%
X140250000Y-95952400D02*
X138074400Y-93776800D01*
X129172800Y-94122800D02*
X128036200Y-94122800D01*
X140250000Y-97000000D02*
X140250000Y-95952400D01*
X131650000Y-96600000D02*
X129172800Y-94122800D01*
X135251200Y-96600000D02*
X131650000Y-96600000D01*
X138074400Y-93776800D02*
X135251200Y-96600000D01*
%TD*%
%TA.AperFunction,Conductor*%
%TO.N,GND*%
G36*
X146092539Y-86770185D02*
G01*
X146138294Y-86822989D01*
X146149500Y-86874500D01*
X146149500Y-106375500D01*
X146129815Y-106442539D01*
X146077011Y-106488294D01*
X146025500Y-106499500D01*
X140174000Y-106499500D01*
X140106961Y-106479815D01*
X140061206Y-106427011D01*
X140050000Y-106375500D01*
X140050000Y-97774500D01*
X140069685Y-97707461D01*
X140122489Y-97661706D01*
X140174000Y-97650500D01*
X140328985Y-97650500D01*
X140482365Y-97612696D01*
X140622240Y-97539283D01*
X140740483Y-97434530D01*
X140830220Y-97304523D01*
X140886237Y-97156818D01*
X140905278Y-97000000D01*
X140886237Y-96843182D01*
X140830220Y-96695477D01*
X140740483Y-96565470D01*
X140740482Y-96565469D01*
X140731930Y-96553079D01*
X140733029Y-96552320D01*
X140705145Y-96507863D01*
X140700500Y-96474240D01*
X140700500Y-95984661D01*
X140701280Y-95970777D01*
X140705270Y-95935366D01*
X140702026Y-95918221D01*
X140694635Y-95879161D01*
X140693864Y-95874620D01*
X140685348Y-95818113D01*
X140685347Y-95818111D01*
X140684448Y-95812146D01*
X140682842Y-95807264D01*
X140680023Y-95801931D01*
X140680023Y-95801928D01*
X140653282Y-95751333D01*
X140651220Y-95747247D01*
X140623814Y-95690336D01*
X140620818Y-95686114D01*
X140576152Y-95641448D01*
X140572934Y-95638108D01*
X140529958Y-95591791D01*
X140515070Y-95580366D01*
X138762447Y-93827743D01*
X138728962Y-93766420D01*
X138727032Y-93755009D01*
X138722782Y-93720007D01*
X138710637Y-93619982D01*
X138654620Y-93472277D01*
X138564883Y-93342270D01*
X138446640Y-93237517D01*
X138433394Y-93230565D01*
X138306764Y-93164103D01*
X138153385Y-93126300D01*
X137995415Y-93126300D01*
X137842035Y-93164103D01*
X137702161Y-93237516D01*
X137583915Y-93342271D01*
X137494180Y-93472276D01*
X137438163Y-93619981D01*
X137421768Y-93755008D01*
X137394146Y-93819186D01*
X137386353Y-93827742D01*
X135100916Y-96113181D01*
X135039593Y-96146666D01*
X135013235Y-96149500D01*
X131887966Y-96149500D01*
X131820927Y-96129815D01*
X131800285Y-96113181D01*
X129514168Y-93827065D01*
X129504902Y-93816697D01*
X129482679Y-93788830D01*
X129435408Y-93756600D01*
X129431670Y-93753948D01*
X129380835Y-93716429D01*
X129376224Y-93714102D01*
X129315849Y-93695479D01*
X129311444Y-93694030D01*
X129251823Y-93673168D01*
X129246714Y-93672300D01*
X129240702Y-93672300D01*
X129183538Y-93672300D01*
X129178901Y-93672213D01*
X129175118Y-93672071D01*
X129112158Y-93669715D01*
X129045902Y-93647537D01*
X129005796Y-93601073D01*
X128975873Y-93540979D01*
X128923991Y-93472276D01*
X128852963Y-93378219D01*
X128702241Y-93240818D01*
X128528838Y-93133452D01*
X128338657Y-93059776D01*
X128271829Y-93047284D01*
X128138176Y-93022300D01*
X127934224Y-93022300D01*
X127833984Y-93041038D01*
X127733742Y-93059776D01*
X127543561Y-93133452D01*
X127370158Y-93240818D01*
X127219436Y-93378219D01*
X127096524Y-93540981D01*
X127005618Y-93723548D01*
X126949802Y-93919716D01*
X126930985Y-94122799D01*
X126949802Y-94325883D01*
X127005618Y-94522051D01*
X127096524Y-94704618D01*
X127219436Y-94867380D01*
X127370158Y-95004781D01*
X127543561Y-95112147D01*
X127543563Y-95112148D01*
X127733744Y-95185824D01*
X127934224Y-95223300D01*
X127934226Y-95223300D01*
X128138174Y-95223300D01*
X128138176Y-95223300D01*
X128338656Y-95185824D01*
X128528837Y-95112148D01*
X128702241Y-95004781D01*
X128852964Y-94867379D01*
X128950942Y-94737634D01*
X129007051Y-94695999D01*
X129076763Y-94691308D01*
X129137577Y-94724681D01*
X131308630Y-96895733D01*
X131317896Y-96906101D01*
X131340120Y-96933969D01*
X131387364Y-96966180D01*
X131391141Y-96968860D01*
X131436344Y-97002222D01*
X131441973Y-97006376D01*
X131446568Y-97008695D01*
X131452325Y-97010470D01*
X131452327Y-97010472D01*
X131477351Y-97018190D01*
X131506980Y-97027330D01*
X131511371Y-97028774D01*
X131565301Y-97047646D01*
X131565303Y-97047646D01*
X131570990Y-97049636D01*
X131576071Y-97050500D01*
X131582098Y-97050500D01*
X131639246Y-97050500D01*
X131643883Y-97050586D01*
X131701010Y-97052725D01*
X131701010Y-97052724D01*
X131707026Y-97052950D01*
X131725638Y-97050500D01*
X135218938Y-97050500D01*
X135232822Y-97051280D01*
X135268233Y-97055270D01*
X135268233Y-97055269D01*
X135268235Y-97055270D01*
X135324428Y-97044636D01*
X135328926Y-97043872D01*
X135385487Y-97035348D01*
X135385488Y-97035347D01*
X135391468Y-97034446D01*
X135396328Y-97032846D01*
X135401667Y-97030023D01*
X135401672Y-97030023D01*
X135452245Y-97003292D01*
X135456336Y-97001227D01*
X135507842Y-96976425D01*
X135507844Y-96976422D01*
X135513278Y-96973806D01*
X135517471Y-96970831D01*
X135521733Y-96966568D01*
X135521738Y-96966566D01*
X135562201Y-96926101D01*
X135565459Y-96922962D01*
X135607394Y-96884055D01*
X135607395Y-96884053D01*
X135611813Y-96879954D01*
X135623233Y-96865069D01*
X137986720Y-94501582D01*
X138048041Y-94468099D01*
X138117733Y-94473083D01*
X138162080Y-94501584D01*
X139763181Y-96102684D01*
X139796666Y-96164007D01*
X139799500Y-96190365D01*
X139799500Y-96474240D01*
X139779815Y-96541279D01*
X139761301Y-96562885D01*
X139669780Y-96695476D01*
X139669780Y-96695477D01*
X139613763Y-96843182D01*
X139607963Y-96890947D01*
X139580343Y-96955124D01*
X139522409Y-96994181D01*
X139484868Y-97000000D01*
X139300000Y-97000000D01*
X139300000Y-106375500D01*
X139280315Y-106442539D01*
X139227511Y-106488294D01*
X139176000Y-106499500D01*
X125874500Y-106499500D01*
X125807461Y-106479815D01*
X125761706Y-106427011D01*
X125750500Y-106375500D01*
X125750500Y-104282799D01*
X126930985Y-104282799D01*
X126949802Y-104485883D01*
X127005618Y-104682051D01*
X127096524Y-104864618D01*
X127219436Y-105027380D01*
X127370158Y-105164781D01*
X127543561Y-105272147D01*
X127543563Y-105272148D01*
X127733744Y-105345824D01*
X127934224Y-105383300D01*
X127934226Y-105383300D01*
X128138174Y-105383300D01*
X128138176Y-105383300D01*
X128338656Y-105345824D01*
X128528837Y-105272148D01*
X128702241Y-105164781D01*
X128852964Y-105027379D01*
X128975873Y-104864621D01*
X128975873Y-104864619D01*
X128975875Y-104864618D01*
X129021513Y-104772961D01*
X129066782Y-104682050D01*
X129122597Y-104485883D01*
X129141415Y-104282800D01*
X129122597Y-104079717D01*
X129066782Y-103883550D01*
X129066409Y-103882801D01*
X128975875Y-103700981D01*
X128852963Y-103538219D01*
X128702241Y-103400818D01*
X128528838Y-103293452D01*
X128338657Y-103219776D01*
X128271829Y-103207284D01*
X128138176Y-103182300D01*
X127934224Y-103182300D01*
X127833984Y-103201038D01*
X127733742Y-103219776D01*
X127543561Y-103293452D01*
X127370158Y-103400818D01*
X127219436Y-103538219D01*
X127096524Y-103700981D01*
X127005618Y-103883548D01*
X126949802Y-104079716D01*
X126930985Y-104282799D01*
X125750500Y-104282799D01*
X125750500Y-101742800D01*
X126930985Y-101742800D01*
X126949802Y-101945883D01*
X127005618Y-102142051D01*
X127096524Y-102324618D01*
X127219436Y-102487380D01*
X127370158Y-102624781D01*
X127543561Y-102732147D01*
X127543563Y-102732148D01*
X127733744Y-102805824D01*
X127934224Y-102843300D01*
X127934226Y-102843300D01*
X128138174Y-102843300D01*
X128138176Y-102843300D01*
X128338656Y-102805824D01*
X128528837Y-102732148D01*
X128702241Y-102624781D01*
X128852964Y-102487379D01*
X128975873Y-102324621D01*
X128975873Y-102324619D01*
X128975875Y-102324618D01*
X129021513Y-102232961D01*
X129066782Y-102142050D01*
X129122597Y-101945883D01*
X129141415Y-101742800D01*
X129122597Y-101539717D01*
X129066782Y-101343550D01*
X129066409Y-101342801D01*
X128975875Y-101160981D01*
X128852963Y-100998219D01*
X128702241Y-100860818D01*
X128528838Y-100753452D01*
X128338657Y-100679776D01*
X128271829Y-100667284D01*
X128138176Y-100642300D01*
X127934224Y-100642300D01*
X127833984Y-100661038D01*
X127733742Y-100679776D01*
X127543561Y-100753452D01*
X127370158Y-100860818D01*
X127219436Y-100998219D01*
X127096524Y-101160981D01*
X127005618Y-101343548D01*
X126949802Y-101539716D01*
X126930985Y-101742800D01*
X125750500Y-101742800D01*
X125750500Y-99202800D01*
X126930985Y-99202800D01*
X126949802Y-99405883D01*
X127005618Y-99602051D01*
X127096524Y-99784618D01*
X127219436Y-99947380D01*
X127370158Y-100084781D01*
X127543561Y-100192147D01*
X127543563Y-100192148D01*
X127733744Y-100265824D01*
X127934224Y-100303300D01*
X127934226Y-100303300D01*
X128138174Y-100303300D01*
X128138176Y-100303300D01*
X128338656Y-100265824D01*
X128528837Y-100192148D01*
X128702241Y-100084781D01*
X128852964Y-99947379D01*
X128975873Y-99784621D01*
X128975873Y-99784619D01*
X128975875Y-99784618D01*
X129021513Y-99692961D01*
X129066782Y-99602050D01*
X129122597Y-99405883D01*
X129141415Y-99202800D01*
X129122597Y-98999717D01*
X129066782Y-98803550D01*
X129066409Y-98802801D01*
X128975875Y-98620981D01*
X128852963Y-98458219D01*
X128702241Y-98320818D01*
X128528838Y-98213452D01*
X128338657Y-98139776D01*
X128271829Y-98127284D01*
X128138176Y-98102300D01*
X127934224Y-98102300D01*
X127833984Y-98121038D01*
X127733742Y-98139776D01*
X127543561Y-98213452D01*
X127370158Y-98320818D01*
X127219436Y-98458219D01*
X127096524Y-98620981D01*
X127005618Y-98803548D01*
X126949802Y-98999716D01*
X126930985Y-99202800D01*
X125750500Y-99202800D01*
X125750500Y-96662799D01*
X126930985Y-96662799D01*
X126949802Y-96865883D01*
X127005618Y-97062051D01*
X127096524Y-97244618D01*
X127219436Y-97407380D01*
X127370158Y-97544781D01*
X127540901Y-97650500D01*
X127543563Y-97652148D01*
X127733744Y-97725824D01*
X127934224Y-97763300D01*
X127934226Y-97763300D01*
X128138174Y-97763300D01*
X128138176Y-97763300D01*
X128338656Y-97725824D01*
X128528837Y-97652148D01*
X128702241Y-97544781D01*
X128852964Y-97407379D01*
X128975873Y-97244621D01*
X128975873Y-97244619D01*
X128975875Y-97244618D01*
X129021513Y-97152961D01*
X129066782Y-97062050D01*
X129122597Y-96865883D01*
X129141415Y-96662800D01*
X129122597Y-96459717D01*
X129066782Y-96263550D01*
X129066409Y-96262801D01*
X128975875Y-96080981D01*
X128852963Y-95918219D01*
X128702241Y-95780818D01*
X128528838Y-95673452D01*
X128338657Y-95599776D01*
X128234821Y-95580366D01*
X128138176Y-95562300D01*
X127934224Y-95562300D01*
X127837579Y-95580366D01*
X127733742Y-95599776D01*
X127543561Y-95673452D01*
X127370158Y-95780818D01*
X127219436Y-95918219D01*
X127096524Y-96080981D01*
X127005618Y-96263548D01*
X126949802Y-96459716D01*
X126930985Y-96662799D01*
X125750500Y-96662799D01*
X125750500Y-89937318D01*
X126686200Y-89937318D01*
X126686554Y-89943932D01*
X126692600Y-90000171D01*
X126742847Y-90134889D01*
X126829011Y-90249988D01*
X126944110Y-90336152D01*
X127078828Y-90386399D01*
X127135067Y-90392445D01*
X127141682Y-90392800D01*
X127431812Y-90392800D01*
X127498851Y-90412485D01*
X127544606Y-90465289D01*
X127554550Y-90534447D01*
X127525525Y-90598003D01*
X127497090Y-90622227D01*
X127370156Y-90700820D01*
X127219436Y-90838219D01*
X127096524Y-91000981D01*
X127005618Y-91183548D01*
X126949802Y-91379716D01*
X126930985Y-91582800D01*
X126949802Y-91785883D01*
X127005618Y-91982051D01*
X127096524Y-92164618D01*
X127219436Y-92327380D01*
X127370158Y-92464781D01*
X127543561Y-92572147D01*
X127543563Y-92572148D01*
X127733744Y-92645824D01*
X127934224Y-92683300D01*
X127934226Y-92683300D01*
X128138174Y-92683300D01*
X128138176Y-92683300D01*
X128338656Y-92645824D01*
X128528837Y-92572148D01*
X128702241Y-92464781D01*
X128852964Y-92327379D01*
X128975873Y-92164621D01*
X128975873Y-92164619D01*
X128975875Y-92164618D01*
X129021513Y-92072961D01*
X129066782Y-91982050D01*
X129122597Y-91785883D01*
X129141415Y-91582800D01*
X129122597Y-91379717D01*
X129066782Y-91183550D01*
X129066409Y-91182801D01*
X128975875Y-91000981D01*
X128852963Y-90838219D01*
X128702243Y-90700820D01*
X128575310Y-90622227D01*
X128528675Y-90570199D01*
X128517571Y-90501217D01*
X128545524Y-90437183D01*
X128603659Y-90398427D01*
X128640588Y-90392800D01*
X128930718Y-90392800D01*
X128937332Y-90392445D01*
X128993571Y-90386399D01*
X129128289Y-90336152D01*
X129243388Y-90249988D01*
X129329552Y-90134889D01*
X129379799Y-90000171D01*
X129385845Y-89943932D01*
X129386200Y-89937318D01*
X129386200Y-89292800D01*
X128469886Y-89292800D01*
X128495693Y-89252644D01*
X128536200Y-89114689D01*
X128536200Y-88970911D01*
X128495693Y-88832956D01*
X128469886Y-88792800D01*
X129386200Y-88792800D01*
X129386200Y-88148281D01*
X129385845Y-88141667D01*
X129379799Y-88085428D01*
X129329552Y-87950710D01*
X129243388Y-87835611D01*
X129128289Y-87749447D01*
X128993571Y-87699200D01*
X128937332Y-87693154D01*
X128930718Y-87692800D01*
X128286200Y-87692800D01*
X128286200Y-88607298D01*
X128178515Y-88558120D01*
X128071963Y-88542800D01*
X128000437Y-88542800D01*
X127893885Y-88558120D01*
X127786199Y-88607298D01*
X127786200Y-87692800D01*
X127141682Y-87692800D01*
X127135067Y-87693154D01*
X127078828Y-87699200D01*
X126944110Y-87749447D01*
X126829011Y-87835611D01*
X126742847Y-87950710D01*
X126692600Y-88085428D01*
X126686554Y-88141667D01*
X126686200Y-88148281D01*
X126686200Y-88792800D01*
X127602514Y-88792800D01*
X127576707Y-88832956D01*
X127536200Y-88970911D01*
X127536200Y-89114689D01*
X127576707Y-89252644D01*
X127602514Y-89292800D01*
X126686200Y-89292800D01*
X126686200Y-89937318D01*
X125750500Y-89937318D01*
X125750500Y-86874500D01*
X125770185Y-86807461D01*
X125822989Y-86761706D01*
X125874500Y-86750500D01*
X146025500Y-86750500D01*
X146092539Y-86770185D01*
G37*
%TD.AperFunction*%
%TD*%
M02*
