%TF.GenerationSoftware,KiCad,Pcbnew,7.0.2-0*%
%TF.CreationDate,2023-06-08T14:15:15-07:00*%
%TF.ProjectId,ADXRS290BCEZ_gyro,41445852-5332-4393-9042-43455a5f6779,rev?*%
%TF.SameCoordinates,Original*%
%TF.FileFunction,Legend,Top*%
%TF.FilePolarity,Positive*%
%FSLAX46Y46*%
G04 Gerber Fmt 4.6, Leading zero omitted, Abs format (unit mm)*
G04 Created by KiCad (PCBNEW 7.0.2-0) date 2023-06-08 14:15:15*
%MOMM*%
%LPD*%
G01*
G04 APERTURE LIST*
%ADD10C,0.150000*%
%ADD11C,0.120000*%
G04 APERTURE END LIST*
D10*
X129990838Y-91130419D02*
X130324171Y-92130419D01*
X130324171Y-92130419D02*
X130657504Y-91130419D01*
X130990838Y-92130419D02*
X130990838Y-91130419D01*
X130990838Y-91130419D02*
X131228933Y-91130419D01*
X131228933Y-91130419D02*
X131371790Y-91178038D01*
X131371790Y-91178038D02*
X131467028Y-91273276D01*
X131467028Y-91273276D02*
X131514647Y-91368514D01*
X131514647Y-91368514D02*
X131562266Y-91558990D01*
X131562266Y-91558990D02*
X131562266Y-91701847D01*
X131562266Y-91701847D02*
X131514647Y-91892323D01*
X131514647Y-91892323D02*
X131467028Y-91987561D01*
X131467028Y-91987561D02*
X131371790Y-92082800D01*
X131371790Y-92082800D02*
X131228933Y-92130419D01*
X131228933Y-92130419D02*
X130990838Y-92130419D01*
X131990838Y-92130419D02*
X131990838Y-91130419D01*
X131990838Y-91130419D02*
X132228933Y-91130419D01*
X132228933Y-91130419D02*
X132371790Y-91178038D01*
X132371790Y-91178038D02*
X132467028Y-91273276D01*
X132467028Y-91273276D02*
X132514647Y-91368514D01*
X132514647Y-91368514D02*
X132562266Y-91558990D01*
X132562266Y-91558990D02*
X132562266Y-91701847D01*
X132562266Y-91701847D02*
X132514647Y-91892323D01*
X132514647Y-91892323D02*
X132467028Y-91987561D01*
X132467028Y-91987561D02*
X132371790Y-92082800D01*
X132371790Y-92082800D02*
X132228933Y-92130419D01*
X132228933Y-92130419D02*
X131990838Y-92130419D01*
X129984476Y-104732000D02*
X130127333Y-104779619D01*
X130127333Y-104779619D02*
X130365428Y-104779619D01*
X130365428Y-104779619D02*
X130460666Y-104732000D01*
X130460666Y-104732000D02*
X130508285Y-104684380D01*
X130508285Y-104684380D02*
X130555904Y-104589142D01*
X130555904Y-104589142D02*
X130555904Y-104493904D01*
X130555904Y-104493904D02*
X130508285Y-104398666D01*
X130508285Y-104398666D02*
X130460666Y-104351047D01*
X130460666Y-104351047D02*
X130365428Y-104303428D01*
X130365428Y-104303428D02*
X130174952Y-104255809D01*
X130174952Y-104255809D02*
X130079714Y-104208190D01*
X130079714Y-104208190D02*
X130032095Y-104160571D01*
X130032095Y-104160571D02*
X129984476Y-104065333D01*
X129984476Y-104065333D02*
X129984476Y-103970095D01*
X129984476Y-103970095D02*
X130032095Y-103874857D01*
X130032095Y-103874857D02*
X130079714Y-103827238D01*
X130079714Y-103827238D02*
X130174952Y-103779619D01*
X130174952Y-103779619D02*
X130413047Y-103779619D01*
X130413047Y-103779619D02*
X130555904Y-103827238D01*
X131555904Y-104684380D02*
X131508285Y-104732000D01*
X131508285Y-104732000D02*
X131365428Y-104779619D01*
X131365428Y-104779619D02*
X131270190Y-104779619D01*
X131270190Y-104779619D02*
X131127333Y-104732000D01*
X131127333Y-104732000D02*
X131032095Y-104636761D01*
X131032095Y-104636761D02*
X130984476Y-104541523D01*
X130984476Y-104541523D02*
X130936857Y-104351047D01*
X130936857Y-104351047D02*
X130936857Y-104208190D01*
X130936857Y-104208190D02*
X130984476Y-104017714D01*
X130984476Y-104017714D02*
X131032095Y-103922476D01*
X131032095Y-103922476D02*
X131127333Y-103827238D01*
X131127333Y-103827238D02*
X131270190Y-103779619D01*
X131270190Y-103779619D02*
X131365428Y-103779619D01*
X131365428Y-103779619D02*
X131508285Y-103827238D01*
X131508285Y-103827238D02*
X131555904Y-103874857D01*
X132460666Y-104779619D02*
X131984476Y-104779619D01*
X131984476Y-104779619D02*
X131984476Y-103779619D01*
X132794000Y-104779619D02*
X132794000Y-103779619D01*
X133365428Y-104779619D02*
X132936857Y-104208190D01*
X133365428Y-103779619D02*
X132794000Y-104351047D01*
X134190476Y-90341904D02*
X134666666Y-90341904D01*
X134095238Y-90627619D02*
X134428571Y-89627619D01*
X134428571Y-89627619D02*
X134761904Y-90627619D01*
X135095238Y-90627619D02*
X135095238Y-89627619D01*
X135095238Y-89627619D02*
X135333333Y-89627619D01*
X135333333Y-89627619D02*
X135476190Y-89675238D01*
X135476190Y-89675238D02*
X135571428Y-89770476D01*
X135571428Y-89770476D02*
X135619047Y-89865714D01*
X135619047Y-89865714D02*
X135666666Y-90056190D01*
X135666666Y-90056190D02*
X135666666Y-90199047D01*
X135666666Y-90199047D02*
X135619047Y-90389523D01*
X135619047Y-90389523D02*
X135571428Y-90484761D01*
X135571428Y-90484761D02*
X135476190Y-90580000D01*
X135476190Y-90580000D02*
X135333333Y-90627619D01*
X135333333Y-90627619D02*
X135095238Y-90627619D01*
X136000000Y-89627619D02*
X136666666Y-90627619D01*
X136666666Y-89627619D02*
X136000000Y-90627619D01*
X137619047Y-90627619D02*
X137285714Y-90151428D01*
X137047619Y-90627619D02*
X137047619Y-89627619D01*
X137047619Y-89627619D02*
X137428571Y-89627619D01*
X137428571Y-89627619D02*
X137523809Y-89675238D01*
X137523809Y-89675238D02*
X137571428Y-89722857D01*
X137571428Y-89722857D02*
X137619047Y-89818095D01*
X137619047Y-89818095D02*
X137619047Y-89960952D01*
X137619047Y-89960952D02*
X137571428Y-90056190D01*
X137571428Y-90056190D02*
X137523809Y-90103809D01*
X137523809Y-90103809D02*
X137428571Y-90151428D01*
X137428571Y-90151428D02*
X137047619Y-90151428D01*
X138000000Y-90580000D02*
X138142857Y-90627619D01*
X138142857Y-90627619D02*
X138380952Y-90627619D01*
X138380952Y-90627619D02*
X138476190Y-90580000D01*
X138476190Y-90580000D02*
X138523809Y-90532380D01*
X138523809Y-90532380D02*
X138571428Y-90437142D01*
X138571428Y-90437142D02*
X138571428Y-90341904D01*
X138571428Y-90341904D02*
X138523809Y-90246666D01*
X138523809Y-90246666D02*
X138476190Y-90199047D01*
X138476190Y-90199047D02*
X138380952Y-90151428D01*
X138380952Y-90151428D02*
X138190476Y-90103809D01*
X138190476Y-90103809D02*
X138095238Y-90056190D01*
X138095238Y-90056190D02*
X138047619Y-90008571D01*
X138047619Y-90008571D02*
X138000000Y-89913333D01*
X138000000Y-89913333D02*
X138000000Y-89818095D01*
X138000000Y-89818095D02*
X138047619Y-89722857D01*
X138047619Y-89722857D02*
X138095238Y-89675238D01*
X138095238Y-89675238D02*
X138190476Y-89627619D01*
X138190476Y-89627619D02*
X138428571Y-89627619D01*
X138428571Y-89627619D02*
X138571428Y-89675238D01*
X138952381Y-89722857D02*
X139000000Y-89675238D01*
X139000000Y-89675238D02*
X139095238Y-89627619D01*
X139095238Y-89627619D02*
X139333333Y-89627619D01*
X139333333Y-89627619D02*
X139428571Y-89675238D01*
X139428571Y-89675238D02*
X139476190Y-89722857D01*
X139476190Y-89722857D02*
X139523809Y-89818095D01*
X139523809Y-89818095D02*
X139523809Y-89913333D01*
X139523809Y-89913333D02*
X139476190Y-90056190D01*
X139476190Y-90056190D02*
X138904762Y-90627619D01*
X138904762Y-90627619D02*
X139523809Y-90627619D01*
X140000000Y-90627619D02*
X140190476Y-90627619D01*
X140190476Y-90627619D02*
X140285714Y-90580000D01*
X140285714Y-90580000D02*
X140333333Y-90532380D01*
X140333333Y-90532380D02*
X140428571Y-90389523D01*
X140428571Y-90389523D02*
X140476190Y-90199047D01*
X140476190Y-90199047D02*
X140476190Y-89818095D01*
X140476190Y-89818095D02*
X140428571Y-89722857D01*
X140428571Y-89722857D02*
X140380952Y-89675238D01*
X140380952Y-89675238D02*
X140285714Y-89627619D01*
X140285714Y-89627619D02*
X140095238Y-89627619D01*
X140095238Y-89627619D02*
X140000000Y-89675238D01*
X140000000Y-89675238D02*
X139952381Y-89722857D01*
X139952381Y-89722857D02*
X139904762Y-89818095D01*
X139904762Y-89818095D02*
X139904762Y-90056190D01*
X139904762Y-90056190D02*
X139952381Y-90151428D01*
X139952381Y-90151428D02*
X140000000Y-90199047D01*
X140000000Y-90199047D02*
X140095238Y-90246666D01*
X140095238Y-90246666D02*
X140285714Y-90246666D01*
X140285714Y-90246666D02*
X140380952Y-90199047D01*
X140380952Y-90199047D02*
X140428571Y-90151428D01*
X140428571Y-90151428D02*
X140476190Y-90056190D01*
X141095238Y-89627619D02*
X141190476Y-89627619D01*
X141190476Y-89627619D02*
X141285714Y-89675238D01*
X141285714Y-89675238D02*
X141333333Y-89722857D01*
X141333333Y-89722857D02*
X141380952Y-89818095D01*
X141380952Y-89818095D02*
X141428571Y-90008571D01*
X141428571Y-90008571D02*
X141428571Y-90246666D01*
X141428571Y-90246666D02*
X141380952Y-90437142D01*
X141380952Y-90437142D02*
X141333333Y-90532380D01*
X141333333Y-90532380D02*
X141285714Y-90580000D01*
X141285714Y-90580000D02*
X141190476Y-90627619D01*
X141190476Y-90627619D02*
X141095238Y-90627619D01*
X141095238Y-90627619D02*
X141000000Y-90580000D01*
X141000000Y-90580000D02*
X140952381Y-90532380D01*
X140952381Y-90532380D02*
X140904762Y-90437142D01*
X140904762Y-90437142D02*
X140857143Y-90246666D01*
X140857143Y-90246666D02*
X140857143Y-90008571D01*
X140857143Y-90008571D02*
X140904762Y-89818095D01*
X140904762Y-89818095D02*
X140952381Y-89722857D01*
X140952381Y-89722857D02*
X141000000Y-89675238D01*
X141000000Y-89675238D02*
X141095238Y-89627619D01*
X142190476Y-90103809D02*
X142333333Y-90151428D01*
X142333333Y-90151428D02*
X142380952Y-90199047D01*
X142380952Y-90199047D02*
X142428571Y-90294285D01*
X142428571Y-90294285D02*
X142428571Y-90437142D01*
X142428571Y-90437142D02*
X142380952Y-90532380D01*
X142380952Y-90532380D02*
X142333333Y-90580000D01*
X142333333Y-90580000D02*
X142238095Y-90627619D01*
X142238095Y-90627619D02*
X141857143Y-90627619D01*
X141857143Y-90627619D02*
X141857143Y-89627619D01*
X141857143Y-89627619D02*
X142190476Y-89627619D01*
X142190476Y-89627619D02*
X142285714Y-89675238D01*
X142285714Y-89675238D02*
X142333333Y-89722857D01*
X142333333Y-89722857D02*
X142380952Y-89818095D01*
X142380952Y-89818095D02*
X142380952Y-89913333D01*
X142380952Y-89913333D02*
X142333333Y-90008571D01*
X142333333Y-90008571D02*
X142285714Y-90056190D01*
X142285714Y-90056190D02*
X142190476Y-90103809D01*
X142190476Y-90103809D02*
X141857143Y-90103809D01*
X143428571Y-90532380D02*
X143380952Y-90580000D01*
X143380952Y-90580000D02*
X143238095Y-90627619D01*
X143238095Y-90627619D02*
X143142857Y-90627619D01*
X143142857Y-90627619D02*
X143000000Y-90580000D01*
X143000000Y-90580000D02*
X142904762Y-90484761D01*
X142904762Y-90484761D02*
X142857143Y-90389523D01*
X142857143Y-90389523D02*
X142809524Y-90199047D01*
X142809524Y-90199047D02*
X142809524Y-90056190D01*
X142809524Y-90056190D02*
X142857143Y-89865714D01*
X142857143Y-89865714D02*
X142904762Y-89770476D01*
X142904762Y-89770476D02*
X143000000Y-89675238D01*
X143000000Y-89675238D02*
X143142857Y-89627619D01*
X143142857Y-89627619D02*
X143238095Y-89627619D01*
X143238095Y-89627619D02*
X143380952Y-89675238D01*
X143380952Y-89675238D02*
X143428571Y-89722857D01*
X143857143Y-90103809D02*
X144190476Y-90103809D01*
X144333333Y-90627619D02*
X143857143Y-90627619D01*
X143857143Y-90627619D02*
X143857143Y-89627619D01*
X143857143Y-89627619D02*
X144333333Y-89627619D01*
X144666667Y-89627619D02*
X145333333Y-89627619D01*
X145333333Y-89627619D02*
X144666667Y-90627619D01*
X144666667Y-90627619D02*
X145333333Y-90627619D01*
X129981295Y-99699619D02*
X129981295Y-98699619D01*
X129981295Y-98699619D02*
X130314628Y-99413904D01*
X130314628Y-99413904D02*
X130647961Y-98699619D01*
X130647961Y-98699619D02*
X130647961Y-99699619D01*
X131124152Y-99699619D02*
X131124152Y-98699619D01*
X131552723Y-99652000D02*
X131695580Y-99699619D01*
X131695580Y-99699619D02*
X131933675Y-99699619D01*
X131933675Y-99699619D02*
X132028913Y-99652000D01*
X132028913Y-99652000D02*
X132076532Y-99604380D01*
X132076532Y-99604380D02*
X132124151Y-99509142D01*
X132124151Y-99509142D02*
X132124151Y-99413904D01*
X132124151Y-99413904D02*
X132076532Y-99318666D01*
X132076532Y-99318666D02*
X132028913Y-99271047D01*
X132028913Y-99271047D02*
X131933675Y-99223428D01*
X131933675Y-99223428D02*
X131743199Y-99175809D01*
X131743199Y-99175809D02*
X131647961Y-99128190D01*
X131647961Y-99128190D02*
X131600342Y-99080571D01*
X131600342Y-99080571D02*
X131552723Y-98985333D01*
X131552723Y-98985333D02*
X131552723Y-98890095D01*
X131552723Y-98890095D02*
X131600342Y-98794857D01*
X131600342Y-98794857D02*
X131647961Y-98747238D01*
X131647961Y-98747238D02*
X131743199Y-98699619D01*
X131743199Y-98699619D02*
X131981294Y-98699619D01*
X131981294Y-98699619D02*
X132124151Y-98747238D01*
X132743199Y-98699619D02*
X132933675Y-98699619D01*
X132933675Y-98699619D02*
X133028913Y-98747238D01*
X133028913Y-98747238D02*
X133124151Y-98842476D01*
X133124151Y-98842476D02*
X133171770Y-99032952D01*
X133171770Y-99032952D02*
X133171770Y-99366285D01*
X133171770Y-99366285D02*
X133124151Y-99556761D01*
X133124151Y-99556761D02*
X133028913Y-99652000D01*
X133028913Y-99652000D02*
X132933675Y-99699619D01*
X132933675Y-99699619D02*
X132743199Y-99699619D01*
X132743199Y-99699619D02*
X132647961Y-99652000D01*
X132647961Y-99652000D02*
X132552723Y-99556761D01*
X132552723Y-99556761D02*
X132505104Y-99366285D01*
X132505104Y-99366285D02*
X132505104Y-99032952D01*
X132505104Y-99032952D02*
X132552723Y-98842476D01*
X132552723Y-98842476D02*
X132647961Y-98747238D01*
X132647961Y-98747238D02*
X132743199Y-98699619D01*
X130603523Y-97115180D02*
X130555904Y-97162800D01*
X130555904Y-97162800D02*
X130413047Y-97210419D01*
X130413047Y-97210419D02*
X130317809Y-97210419D01*
X130317809Y-97210419D02*
X130174952Y-97162800D01*
X130174952Y-97162800D02*
X130079714Y-97067561D01*
X130079714Y-97067561D02*
X130032095Y-96972323D01*
X130032095Y-96972323D02*
X129984476Y-96781847D01*
X129984476Y-96781847D02*
X129984476Y-96638990D01*
X129984476Y-96638990D02*
X130032095Y-96448514D01*
X130032095Y-96448514D02*
X130079714Y-96353276D01*
X130079714Y-96353276D02*
X130174952Y-96258038D01*
X130174952Y-96258038D02*
X130317809Y-96210419D01*
X130317809Y-96210419D02*
X130413047Y-96210419D01*
X130413047Y-96210419D02*
X130555904Y-96258038D01*
X130555904Y-96258038D02*
X130603523Y-96305657D01*
X130984476Y-97162800D02*
X131127333Y-97210419D01*
X131127333Y-97210419D02*
X131365428Y-97210419D01*
X131365428Y-97210419D02*
X131460666Y-97162800D01*
X131460666Y-97162800D02*
X131508285Y-97115180D01*
X131508285Y-97115180D02*
X131555904Y-97019942D01*
X131555904Y-97019942D02*
X131555904Y-96924704D01*
X131555904Y-96924704D02*
X131508285Y-96829466D01*
X131508285Y-96829466D02*
X131460666Y-96781847D01*
X131460666Y-96781847D02*
X131365428Y-96734228D01*
X131365428Y-96734228D02*
X131174952Y-96686609D01*
X131174952Y-96686609D02*
X131079714Y-96638990D01*
X131079714Y-96638990D02*
X131032095Y-96591371D01*
X131032095Y-96591371D02*
X130984476Y-96496133D01*
X130984476Y-96496133D02*
X130984476Y-96400895D01*
X130984476Y-96400895D02*
X131032095Y-96305657D01*
X131032095Y-96305657D02*
X131079714Y-96258038D01*
X131079714Y-96258038D02*
X131174952Y-96210419D01*
X131174952Y-96210419D02*
X131413047Y-96210419D01*
X131413047Y-96210419D02*
X131555904Y-96258038D01*
X138048952Y-94280019D02*
X138048952Y-94518114D01*
X137810857Y-94422876D02*
X138048952Y-94518114D01*
X138048952Y-94518114D02*
X138287047Y-94422876D01*
X137906095Y-94708590D02*
X138048952Y-94518114D01*
X138048952Y-94518114D02*
X138191809Y-94708590D01*
X130555904Y-88638038D02*
X130460666Y-88590419D01*
X130460666Y-88590419D02*
X130317809Y-88590419D01*
X130317809Y-88590419D02*
X130174952Y-88638038D01*
X130174952Y-88638038D02*
X130079714Y-88733276D01*
X130079714Y-88733276D02*
X130032095Y-88828514D01*
X130032095Y-88828514D02*
X129984476Y-89018990D01*
X129984476Y-89018990D02*
X129984476Y-89161847D01*
X129984476Y-89161847D02*
X130032095Y-89352323D01*
X130032095Y-89352323D02*
X130079714Y-89447561D01*
X130079714Y-89447561D02*
X130174952Y-89542800D01*
X130174952Y-89542800D02*
X130317809Y-89590419D01*
X130317809Y-89590419D02*
X130413047Y-89590419D01*
X130413047Y-89590419D02*
X130555904Y-89542800D01*
X130555904Y-89542800D02*
X130603523Y-89495180D01*
X130603523Y-89495180D02*
X130603523Y-89161847D01*
X130603523Y-89161847D02*
X130413047Y-89161847D01*
X131032095Y-89590419D02*
X131032095Y-88590419D01*
X131032095Y-88590419D02*
X131603523Y-89590419D01*
X131603523Y-89590419D02*
X131603523Y-88590419D01*
X132079714Y-89590419D02*
X132079714Y-88590419D01*
X132079714Y-88590419D02*
X132317809Y-88590419D01*
X132317809Y-88590419D02*
X132460666Y-88638038D01*
X132460666Y-88638038D02*
X132555904Y-88733276D01*
X132555904Y-88733276D02*
X132603523Y-88828514D01*
X132603523Y-88828514D02*
X132651142Y-89018990D01*
X132651142Y-89018990D02*
X132651142Y-89161847D01*
X132651142Y-89161847D02*
X132603523Y-89352323D01*
X132603523Y-89352323D02*
X132555904Y-89447561D01*
X132555904Y-89447561D02*
X132460666Y-89542800D01*
X132460666Y-89542800D02*
X132317809Y-89590419D01*
X132317809Y-89590419D02*
X132079714Y-89590419D01*
X129990838Y-93619619D02*
X130324171Y-94619619D01*
X130324171Y-94619619D02*
X130657504Y-93619619D01*
X130943219Y-94572000D02*
X131038457Y-94619619D01*
X131038457Y-94619619D02*
X131228933Y-94619619D01*
X131228933Y-94619619D02*
X131324171Y-94572000D01*
X131324171Y-94572000D02*
X131371790Y-94476761D01*
X131371790Y-94476761D02*
X131371790Y-94429142D01*
X131371790Y-94429142D02*
X131324171Y-94333904D01*
X131324171Y-94333904D02*
X131228933Y-94286285D01*
X131228933Y-94286285D02*
X131086076Y-94286285D01*
X131086076Y-94286285D02*
X130990838Y-94238666D01*
X130990838Y-94238666D02*
X130943219Y-94143428D01*
X130943219Y-94143428D02*
X130943219Y-94095809D01*
X130943219Y-94095809D02*
X130990838Y-94000571D01*
X130990838Y-94000571D02*
X131086076Y-93952952D01*
X131086076Y-93952952D02*
X131228933Y-93952952D01*
X131228933Y-93952952D02*
X131324171Y-94000571D01*
X129981295Y-102290419D02*
X129981295Y-101290419D01*
X129981295Y-101290419D02*
X130314628Y-102004704D01*
X130314628Y-102004704D02*
X130647961Y-101290419D01*
X130647961Y-101290419D02*
X130647961Y-102290419D01*
X131314628Y-101290419D02*
X131505104Y-101290419D01*
X131505104Y-101290419D02*
X131600342Y-101338038D01*
X131600342Y-101338038D02*
X131695580Y-101433276D01*
X131695580Y-101433276D02*
X131743199Y-101623752D01*
X131743199Y-101623752D02*
X131743199Y-101957085D01*
X131743199Y-101957085D02*
X131695580Y-102147561D01*
X131695580Y-102147561D02*
X131600342Y-102242800D01*
X131600342Y-102242800D02*
X131505104Y-102290419D01*
X131505104Y-102290419D02*
X131314628Y-102290419D01*
X131314628Y-102290419D02*
X131219390Y-102242800D01*
X131219390Y-102242800D02*
X131124152Y-102147561D01*
X131124152Y-102147561D02*
X131076533Y-101957085D01*
X131076533Y-101957085D02*
X131076533Y-101623752D01*
X131076533Y-101623752D02*
X131124152Y-101433276D01*
X131124152Y-101433276D02*
X131219390Y-101338038D01*
X131219390Y-101338038D02*
X131314628Y-101290419D01*
X132124152Y-102242800D02*
X132267009Y-102290419D01*
X132267009Y-102290419D02*
X132505104Y-102290419D01*
X132505104Y-102290419D02*
X132600342Y-102242800D01*
X132600342Y-102242800D02*
X132647961Y-102195180D01*
X132647961Y-102195180D02*
X132695580Y-102099942D01*
X132695580Y-102099942D02*
X132695580Y-102004704D01*
X132695580Y-102004704D02*
X132647961Y-101909466D01*
X132647961Y-101909466D02*
X132600342Y-101861847D01*
X132600342Y-101861847D02*
X132505104Y-101814228D01*
X132505104Y-101814228D02*
X132314628Y-101766609D01*
X132314628Y-101766609D02*
X132219390Y-101718990D01*
X132219390Y-101718990D02*
X132171771Y-101671371D01*
X132171771Y-101671371D02*
X132124152Y-101576133D01*
X132124152Y-101576133D02*
X132124152Y-101480895D01*
X132124152Y-101480895D02*
X132171771Y-101385657D01*
X132171771Y-101385657D02*
X132219390Y-101338038D01*
X132219390Y-101338038D02*
X132314628Y-101290419D01*
X132314628Y-101290419D02*
X132552723Y-101290419D01*
X132552723Y-101290419D02*
X132695580Y-101338038D01*
X133124152Y-102290419D02*
X133124152Y-101290419D01*
D11*
%TO.C,Ccp1*%
X142847600Y-98590980D02*
X142847600Y-98309820D01*
X143867600Y-98590980D02*
X143867600Y-98309820D01*
%TO.C,ADXRS290BCEZ1*%
X138119700Y-100388400D02*
X138119700Y-99713400D01*
X138744700Y-94988400D02*
X138069700Y-94988400D01*
X138794700Y-100388400D02*
X138119700Y-100388400D01*
X141532200Y-95000900D02*
X142207200Y-95000900D01*
X141532200Y-100375900D02*
X142207200Y-100375900D01*
X142207200Y-95000900D02*
X142207200Y-95675900D01*
X142207200Y-100375900D02*
X142207200Y-99700900D01*
%TO.C,Cio1*%
X137416000Y-98106620D02*
X137416000Y-98387780D01*
X136396000Y-98106620D02*
X136396000Y-98387780D01*
%TO.C,Creg1*%
X136396000Y-95238180D02*
X136396000Y-94957020D01*
X137416000Y-95238180D02*
X137416000Y-94957020D01*
%TO.C,Cs1*%
X139864220Y-93266800D02*
X140145380Y-93266800D01*
X139864220Y-94286800D02*
X140145380Y-94286800D01*
%TO.C,U1*%
X126706200Y-87712800D02*
X128036200Y-87712800D01*
X126706200Y-89042800D02*
X126706200Y-87712800D01*
X126706200Y-90312800D02*
X126706200Y-105612800D01*
X126706200Y-90312800D02*
X129366200Y-90312800D01*
X126706200Y-105612800D02*
X129366200Y-105612800D01*
X129366200Y-90312800D02*
X129366200Y-105612800D01*
%TD*%
M02*
