%TF.GenerationSoftware,KiCad,Pcbnew,7.0.2-0*%
%TF.CreationDate,2023-06-08T14:22:33-07:00*%
%TF.ProjectId,IAM-20380HT_gyro,49414d2d-3230-4333-9830-48545f677972,rev?*%
%TF.SameCoordinates,Original*%
%TF.FileFunction,Copper,L1,Top*%
%TF.FilePolarity,Positive*%
%FSLAX46Y46*%
G04 Gerber Fmt 4.6, Leading zero omitted, Abs format (unit mm)*
G04 Created by KiCad (PCBNEW 7.0.2-0) date 2023-06-08 14:22:33*
%MOMM*%
%LPD*%
G01*
G04 APERTURE LIST*
G04 Aperture macros list*
%AMRoundRect*
0 Rectangle with rounded corners*
0 $1 Rounding radius*
0 $2 $3 $4 $5 $6 $7 $8 $9 X,Y pos of 4 corners*
0 Add a 4 corners polygon primitive as box body*
4,1,4,$2,$3,$4,$5,$6,$7,$8,$9,$2,$3,0*
0 Add four circle primitives for the rounded corners*
1,1,$1+$1,$2,$3*
1,1,$1+$1,$4,$5*
1,1,$1+$1,$6,$7*
1,1,$1+$1,$8,$9*
0 Add four rect primitives between the rounded corners*
20,1,$1+$1,$2,$3,$4,$5,0*
20,1,$1+$1,$4,$5,$6,$7,0*
20,1,$1+$1,$6,$7,$8,$9,0*
20,1,$1+$1,$8,$9,$2,$3,0*%
G04 Aperture macros list end*
%TA.AperFunction,SMDPad,CuDef*%
%ADD10RoundRect,0.225000X0.250000X-0.225000X0.250000X0.225000X-0.250000X0.225000X-0.250000X-0.225000X0*%
%TD*%
%TA.AperFunction,SMDPad,CuDef*%
%ADD11RoundRect,0.225000X0.225000X0.250000X-0.225000X0.250000X-0.225000X-0.250000X0.225000X-0.250000X0*%
%TD*%
%TA.AperFunction,ComponentPad*%
%ADD12R,1.700000X1.700000*%
%TD*%
%TA.AperFunction,ComponentPad*%
%ADD13O,1.700000X1.700000*%
%TD*%
%TA.AperFunction,SMDPad,CuDef*%
%ADD14RoundRect,0.014000X-0.231000X-0.161000X0.231000X-0.161000X0.231000X0.161000X-0.231000X0.161000X0*%
%TD*%
%TA.AperFunction,SMDPad,CuDef*%
%ADD15RoundRect,0.014000X0.161000X-0.231000X0.161000X0.231000X-0.161000X0.231000X-0.161000X-0.231000X0*%
%TD*%
%TA.AperFunction,SMDPad,CuDef*%
%ADD16RoundRect,0.014000X0.231000X0.161000X-0.231000X0.161000X-0.231000X-0.161000X0.231000X-0.161000X0*%
%TD*%
%TA.AperFunction,SMDPad,CuDef*%
%ADD17RoundRect,0.014000X-0.161000X0.231000X-0.161000X-0.231000X0.161000X-0.231000X0.161000X0.231000X0*%
%TD*%
%TA.AperFunction,ViaPad*%
%ADD18C,0.800000*%
%TD*%
%TA.AperFunction,Conductor*%
%ADD19C,0.250000*%
%TD*%
%TA.AperFunction,Conductor*%
%ADD20C,0.500000*%
%TD*%
%TA.AperFunction,Conductor*%
%ADD21C,0.350000*%
%TD*%
G04 APERTURE END LIST*
D10*
%TO.P,C1,1*%
%TO.N,Net-(U1-REGOUT)*%
X148650000Y-98225000D03*
%TO.P,C1,2*%
%TO.N,GNDPWR*%
X148650000Y-96675000D03*
%TD*%
D11*
%TO.P,C4,1*%
%TO.N,GNDPWR*%
X147075000Y-98200000D03*
%TO.P,C4,2*%
%TO.N,Net-(U1-VDD)*%
X145525000Y-98200000D03*
%TD*%
D10*
%TO.P,C3,1*%
%TO.N,Net-(U1-VDDIO)*%
X143650000Y-99425000D03*
%TO.P,C3,2*%
%TO.N,GNDPWR*%
X143650000Y-97875000D03*
%TD*%
D12*
%TO.P,U2,1,VDDIO*%
%TO.N,Net-(U1-VDDIO)*%
X133300000Y-90700000D03*
D13*
%TO.P,U2,2,SCL*%
%TO.N,Net-(U1-SCL{slash}SPC)*%
X133300000Y-93240000D03*
%TO.P,U2,3,SDA/SDI*%
%TO.N,Net-(U1-SDA{slash}SDI)*%
X133300000Y-95780000D03*
%TO.P,U2,4,SA0/SDO*%
%TO.N,Net-(U1-SA0{slash}SDO)*%
X133300000Y-98320000D03*
%TO.P,U2,5,CS*%
%TO.N,Net-(U1-CS)*%
X133300000Y-100860000D03*
%TO.P,U2,6,INT*%
%TO.N,Net-(U1-INT)*%
X133300000Y-103400000D03*
%TO.P,U2,7,INT2*%
%TO.N,Net-(U1-INT2)*%
X133300000Y-105940000D03*
%TO.P,U2,8,VDD*%
%TO.N,Net-(U1-VDD)*%
X133300000Y-108480000D03*
%TO.P,U2,9,GND*%
%TO.N,GNDPWR*%
X133300000Y-111020000D03*
%TD*%
D11*
%TO.P,C2,1*%
%TO.N,GNDPWR*%
X147075000Y-96600000D03*
%TO.P,C2,2*%
%TO.N,Net-(U1-VDD)*%
X145525000Y-96600000D03*
%TD*%
D14*
%TO.P,U1,1,VDDIO*%
%TO.N,Net-(U1-VDDIO)*%
X145340000Y-100050000D03*
%TO.P,U1,2,SCL/SPC*%
%TO.N,Net-(U1-SCL{slash}SPC)*%
X145340000Y-100550000D03*
%TO.P,U1,3,SDA/SDI*%
%TO.N,Net-(U1-SDA{slash}SDI)*%
X145340000Y-101050000D03*
%TO.P,U1,4,SA0/SDO*%
%TO.N,Net-(U1-SA0{slash}SDO)*%
X145340000Y-101550000D03*
%TO.P,U1,5,CS*%
%TO.N,Net-(U1-CS)*%
X145340000Y-102050000D03*
D15*
%TO.P,U1,6,INT*%
%TO.N,Net-(U1-INT)*%
X146100000Y-102310000D03*
%TO.P,U1,7,INT2*%
%TO.N,Net-(U1-INT2)*%
X146600000Y-102310000D03*
%TO.P,U1,8,FSYNC*%
%TO.N,GNDPWR*%
X147100000Y-102310000D03*
D16*
%TO.P,U1,9,RESV9_1215*%
X147860000Y-102050000D03*
%TO.P,U1,10,RESV9_1215*%
X147860000Y-101550000D03*
%TO.P,U1,11,RESV9_1215*%
X147860000Y-101050000D03*
%TO.P,U1,12,RESV9_1215*%
X147860000Y-100550000D03*
%TO.P,U1,13,GND*%
X147860000Y-100050000D03*
D17*
%TO.P,U1,14,REGOUT*%
%TO.N,Net-(U1-REGOUT)*%
X147100000Y-99790000D03*
%TO.P,U1,15,RESV9_1215*%
%TO.N,GNDPWR*%
X146600000Y-99790000D03*
%TO.P,U1,16,VDD*%
%TO.N,Net-(U1-VDD)*%
X146100000Y-99790000D03*
%TD*%
D18*
%TO.N,GNDPWR*%
X149200000Y-101800000D03*
X148700000Y-95200000D03*
X142100000Y-97700000D03*
X147100000Y-95200000D03*
X136700000Y-89600000D03*
X149200000Y-100200000D03*
%TO.N,Net-(U1-VDD)*%
X134950000Y-106800000D03*
X144150000Y-96600000D03*
%TD*%
D19*
%TO.N,GNDPWR*%
X147075000Y-98200000D02*
X147075000Y-96600000D01*
X143650000Y-97875000D02*
X142275000Y-97875000D01*
X142275000Y-97875000D02*
X142100000Y-97700000D01*
%TO.N,Net-(U1-REGOUT)*%
X147300000Y-99200000D02*
X148300000Y-99200000D01*
X148300000Y-99200000D02*
X148650000Y-98850000D01*
X147100000Y-99400000D02*
X147300000Y-99200000D01*
X148650000Y-98850000D02*
X148650000Y-98225000D01*
X147100000Y-99790000D02*
X147100000Y-99400000D01*
%TO.N,GNDPWR*%
X146600000Y-99790000D02*
X146600000Y-99250000D01*
X146600000Y-99250000D02*
X147075000Y-98775000D01*
X147075000Y-98775000D02*
X147075000Y-98200000D01*
D20*
%TO.N,Net-(U1-VDD)*%
X145525000Y-96600000D02*
X145525000Y-98200000D01*
D19*
X146100000Y-99400000D02*
X145525000Y-98825000D01*
D20*
X133300000Y-108450000D02*
X133300000Y-108480000D01*
D19*
X146100000Y-99790000D02*
X146100000Y-99400000D01*
D20*
X144150000Y-96600000D02*
X145525000Y-96600000D01*
X134950000Y-106800000D02*
X133300000Y-108450000D01*
D19*
X145525000Y-98825000D02*
X145525000Y-98200000D01*
D21*
%TO.N,Net-(U1-VDDIO)*%
X145340000Y-100050000D02*
X145340000Y-99690000D01*
X145340000Y-99690000D02*
X145100000Y-99450000D01*
X145100000Y-99450000D02*
X143675000Y-99450000D01*
X142025000Y-99425000D02*
X143650000Y-99425000D01*
X133300000Y-90700000D02*
X142025000Y-99425000D01*
X143675000Y-99450000D02*
X143650000Y-99425000D01*
D19*
%TO.N,Net-(U1-SCL{slash}SPC)*%
X133300000Y-93240000D02*
X140610000Y-100550000D01*
X140610000Y-100550000D02*
X145340000Y-100550000D01*
%TO.N,Net-(U1-SDA{slash}SDI)*%
X133330000Y-95780000D02*
X138600000Y-101050000D01*
X133300000Y-95780000D02*
X133330000Y-95780000D01*
X138600000Y-101050000D02*
X145340000Y-101050000D01*
%TO.N,Net-(U1-SA0{slash}SDO)*%
X133320000Y-98320000D02*
X136550000Y-101550000D01*
X133300000Y-98320000D02*
X133320000Y-98320000D01*
X136550000Y-101550000D02*
X145340000Y-101550000D01*
%TO.N,Net-(U1-CS)*%
X134500000Y-102050000D02*
X145340000Y-102050000D01*
X133310000Y-100860000D02*
X134500000Y-102050000D01*
X133300000Y-100860000D02*
X133310000Y-100860000D01*
%TO.N,Net-(U1-INT)*%
X145450000Y-103400000D02*
X146100000Y-102750000D01*
X133300000Y-103400000D02*
X145450000Y-103400000D01*
X146100000Y-102750000D02*
X146100000Y-102310000D01*
%TO.N,Net-(U1-INT2)*%
X133300000Y-105940000D02*
X143610000Y-105940000D01*
X146600000Y-102950000D02*
X146600000Y-102310000D01*
X143610000Y-105940000D02*
X146600000Y-102950000D01*
%TD*%
%TA.AperFunction,Conductor*%
%TO.N,GNDPWR*%
G36*
X151792539Y-88420185D02*
G01*
X151838294Y-88472989D01*
X151849500Y-88524500D01*
X151849500Y-113225500D01*
X151829815Y-113292539D01*
X151777011Y-113338294D01*
X151725500Y-113349500D01*
X130974500Y-113349500D01*
X130907461Y-113329815D01*
X130861706Y-113277011D01*
X130850500Y-113225500D01*
X130850500Y-106174000D01*
X130870185Y-106106961D01*
X130922989Y-106061206D01*
X130974500Y-106050000D01*
X131991509Y-106050000D01*
X132058548Y-106069685D01*
X132104303Y-106122489D01*
X132112082Y-106151687D01*
X132175769Y-106375526D01*
X132274941Y-106574688D01*
X132409019Y-106752237D01*
X132573437Y-106902124D01*
X132679922Y-106968056D01*
X132762599Y-107019247D01*
X132956522Y-107094373D01*
X133011924Y-107136946D01*
X133035514Y-107202713D01*
X133019803Y-107270793D01*
X132969779Y-107319572D01*
X132956526Y-107325624D01*
X132825346Y-107376444D01*
X132762596Y-107400754D01*
X132573437Y-107517875D01*
X132409019Y-107667762D01*
X132274941Y-107845311D01*
X132175769Y-108044473D01*
X132114885Y-108258462D01*
X132094357Y-108480000D01*
X132114885Y-108701537D01*
X132175769Y-108915526D01*
X132274941Y-109114688D01*
X132409019Y-109292237D01*
X132573437Y-109442124D01*
X132771793Y-109564940D01*
X132818429Y-109616968D01*
X132829533Y-109685949D01*
X132801580Y-109749984D01*
X132758921Y-109782749D01*
X132622421Y-109846400D01*
X132428921Y-109981890D01*
X132261890Y-110148921D01*
X132126400Y-110342421D01*
X132026569Y-110556507D01*
X131969364Y-110769999D01*
X131969364Y-110770000D01*
X132866314Y-110770000D01*
X132840507Y-110810156D01*
X132800000Y-110948111D01*
X132800000Y-111091889D01*
X132840507Y-111229844D01*
X132866314Y-111270000D01*
X131969364Y-111270000D01*
X132026569Y-111483492D01*
X132126399Y-111697576D01*
X132261893Y-111891081D01*
X132428918Y-112058106D01*
X132622423Y-112193600D01*
X132836509Y-112293430D01*
X133050000Y-112350634D01*
X133050000Y-111455501D01*
X133157685Y-111504680D01*
X133264237Y-111520000D01*
X133335763Y-111520000D01*
X133442315Y-111504680D01*
X133550000Y-111455501D01*
X133550000Y-112350633D01*
X133763490Y-112293430D01*
X133977576Y-112193600D01*
X134171081Y-112058106D01*
X134338106Y-111891081D01*
X134473600Y-111697576D01*
X134573430Y-111483492D01*
X134630636Y-111270000D01*
X133733686Y-111270000D01*
X133759493Y-111229844D01*
X133800000Y-111091889D01*
X133800000Y-110948111D01*
X133759493Y-110810156D01*
X133733686Y-110770000D01*
X134630636Y-110770000D01*
X134630635Y-110769999D01*
X134573430Y-110556507D01*
X134473599Y-110342421D01*
X134338109Y-110148921D01*
X134171081Y-109981893D01*
X133977576Y-109846398D01*
X133841079Y-109782748D01*
X133788640Y-109736575D01*
X133769488Y-109669381D01*
X133789704Y-109602500D01*
X133828207Y-109564939D01*
X133837398Y-109559248D01*
X133837401Y-109559247D01*
X134026562Y-109442124D01*
X134190981Y-109292236D01*
X134325058Y-109114689D01*
X134424229Y-108915528D01*
X134485115Y-108701536D01*
X134505643Y-108480000D01*
X134485115Y-108258464D01*
X134485114Y-108258462D01*
X134473084Y-108216180D01*
X134473670Y-108146313D01*
X134504667Y-108094566D01*
X135025240Y-107573993D01*
X135086561Y-107540510D01*
X135099018Y-107538458D01*
X135118059Y-107536313D01*
X135277690Y-107480456D01*
X135420890Y-107390477D01*
X135540477Y-107270890D01*
X135630456Y-107127690D01*
X135686313Y-106968059D01*
X135705249Y-106800000D01*
X135686313Y-106631941D01*
X135668296Y-106580453D01*
X135664736Y-106510675D01*
X135699465Y-106450048D01*
X135761459Y-106417821D01*
X135785339Y-106415500D01*
X143545541Y-106415500D01*
X143571899Y-106418333D01*
X143575729Y-106419167D01*
X143622575Y-106415815D01*
X143631422Y-106415500D01*
X143644011Y-106415500D01*
X143656485Y-106413706D01*
X143665269Y-106412761D01*
X143712115Y-106409411D01*
X143714488Y-106408525D01*
X143715778Y-106408045D01*
X143741465Y-106401488D01*
X143745342Y-106400931D01*
X143788072Y-106381415D01*
X143796207Y-106378045D01*
X143840226Y-106361629D01*
X143843361Y-106359281D01*
X143866153Y-106345757D01*
X143869718Y-106344130D01*
X143905203Y-106313380D01*
X143912084Y-106307835D01*
X143922180Y-106300279D01*
X143922184Y-106300275D01*
X143931083Y-106291376D01*
X143937566Y-106285340D01*
X143973052Y-106254592D01*
X143973052Y-106254591D01*
X143973055Y-106254589D01*
X143975173Y-106251292D01*
X143991803Y-106230654D01*
X146890654Y-103331803D01*
X146911292Y-103315173D01*
X146914589Y-103313055D01*
X146914592Y-103313052D01*
X146945340Y-103277566D01*
X146951376Y-103271083D01*
X146960275Y-103262184D01*
X146960275Y-103262183D01*
X146960279Y-103262180D01*
X146967835Y-103252084D01*
X146973387Y-103245196D01*
X147004130Y-103209718D01*
X147005757Y-103206153D01*
X147019281Y-103183361D01*
X147021629Y-103180226D01*
X147038042Y-103136216D01*
X147041421Y-103128058D01*
X147060931Y-103085342D01*
X147060931Y-103085340D01*
X147063367Y-103080007D01*
X147109123Y-103027205D01*
X147176163Y-103007522D01*
X147243202Y-103027208D01*
X147263841Y-103043841D01*
X147275000Y-103055000D01*
X147297536Y-103055000D01*
X147304899Y-103054559D01*
X147383844Y-103045079D01*
X147515284Y-102993245D01*
X147627870Y-102907870D01*
X147713245Y-102795284D01*
X147725188Y-102764999D01*
X147706489Y-102737524D01*
X147685043Y-102671027D01*
X147685000Y-102667757D01*
X147685000Y-102225000D01*
X148035000Y-102225000D01*
X148035000Y-102725000D01*
X148127536Y-102725000D01*
X148134899Y-102724559D01*
X148213844Y-102715079D01*
X148345284Y-102663245D01*
X148457870Y-102577870D01*
X148543245Y-102465284D01*
X148595079Y-102333844D01*
X148604559Y-102254899D01*
X148605000Y-102247535D01*
X148605000Y-102225000D01*
X148035000Y-102225000D01*
X147685000Y-102225000D01*
X147685000Y-101725000D01*
X148035000Y-101725000D01*
X148035000Y-101875000D01*
X148605000Y-101875000D01*
X148605000Y-101852479D01*
X148604556Y-101845073D01*
X148600919Y-101814787D01*
X148600919Y-101785213D01*
X148604556Y-101754926D01*
X148605000Y-101747520D01*
X148605000Y-101725000D01*
X148035000Y-101725000D01*
X147685000Y-101725000D01*
X147524000Y-101725000D01*
X147456961Y-101705315D01*
X147411206Y-101652511D01*
X147400000Y-101601000D01*
X147400000Y-101499000D01*
X147419685Y-101431961D01*
X147472489Y-101386206D01*
X147524000Y-101375000D01*
X147685000Y-101375000D01*
X147685000Y-101225000D01*
X148035000Y-101225000D01*
X148035000Y-101375000D01*
X148605000Y-101375000D01*
X148605000Y-101352479D01*
X148604556Y-101345073D01*
X148600919Y-101314787D01*
X148600919Y-101285213D01*
X148604556Y-101254926D01*
X148605000Y-101247520D01*
X148605000Y-101225000D01*
X148035000Y-101225000D01*
X147685000Y-101225000D01*
X147685000Y-100725000D01*
X148035000Y-100725000D01*
X148035000Y-100875000D01*
X148605000Y-100875000D01*
X148605000Y-100852479D01*
X148604556Y-100845073D01*
X148600919Y-100814787D01*
X148600919Y-100785213D01*
X148604556Y-100754926D01*
X148605000Y-100747520D01*
X148605000Y-100725000D01*
X148035000Y-100725000D01*
X147685000Y-100725000D01*
X147685000Y-100225000D01*
X148035000Y-100225000D01*
X148035000Y-100375000D01*
X148605000Y-100375000D01*
X148605000Y-100352479D01*
X148604556Y-100345073D01*
X148600919Y-100314787D01*
X148600919Y-100285213D01*
X148604556Y-100254926D01*
X148605000Y-100247520D01*
X148605000Y-100225000D01*
X148035000Y-100225000D01*
X147685000Y-100225000D01*
X147685000Y-99999000D01*
X147704685Y-99931961D01*
X147757489Y-99886206D01*
X147809000Y-99875000D01*
X148605000Y-99875000D01*
X148605000Y-99852464D01*
X148604559Y-99845100D01*
X148595079Y-99766155D01*
X148571013Y-99705128D01*
X148564731Y-99635542D01*
X148597068Y-99573605D01*
X148612066Y-99560364D01*
X148612180Y-99560279D01*
X148617298Y-99555160D01*
X148621083Y-99551376D01*
X148627566Y-99545340D01*
X148663052Y-99514592D01*
X148663052Y-99514591D01*
X148663055Y-99514589D01*
X148665173Y-99511292D01*
X148681803Y-99490654D01*
X148940654Y-99231803D01*
X148961292Y-99215173D01*
X148964589Y-99213055D01*
X148964592Y-99213052D01*
X148995340Y-99177566D01*
X149001376Y-99171083D01*
X149010275Y-99162184D01*
X149010275Y-99162183D01*
X149010279Y-99162180D01*
X149017835Y-99152084D01*
X149023387Y-99145196D01*
X149054130Y-99109718D01*
X149055756Y-99106156D01*
X149069284Y-99083357D01*
X149071629Y-99080226D01*
X149087350Y-99038072D01*
X149129218Y-98982140D01*
X149156078Y-98966845D01*
X149190233Y-98952698D01*
X149310451Y-98860451D01*
X149402698Y-98740233D01*
X149460687Y-98600236D01*
X149475500Y-98487720D01*
X149475500Y-97962280D01*
X149460687Y-97849764D01*
X149402698Y-97709767D01*
X149344219Y-97633556D01*
X149319026Y-97568389D01*
X149333064Y-97499944D01*
X149354915Y-97470389D01*
X149472575Y-97352729D01*
X149561546Y-97208486D01*
X149614856Y-97047606D01*
X149624680Y-96951445D01*
X149625000Y-96945167D01*
X149625000Y-96925000D01*
X147759000Y-96925000D01*
X147691961Y-96905315D01*
X147673559Y-96884078D01*
X147671319Y-96886319D01*
X147635000Y-96850000D01*
X147325000Y-96850000D01*
X147325000Y-98326000D01*
X147305315Y-98393039D01*
X147252511Y-98438794D01*
X147201000Y-98450000D01*
X146949000Y-98450000D01*
X146881961Y-98430315D01*
X146836206Y-98377511D01*
X146825000Y-98326000D01*
X146825000Y-95625000D01*
X147325000Y-95625000D01*
X147325000Y-96350000D01*
X147941000Y-96350000D01*
X148008039Y-96369685D01*
X148026440Y-96390921D01*
X148028681Y-96388681D01*
X148065000Y-96425000D01*
X148400000Y-96425000D01*
X148400000Y-95725000D01*
X148900000Y-95725000D01*
X148900000Y-96425000D01*
X149624999Y-96425000D01*
X149624999Y-96404834D01*
X149624678Y-96398552D01*
X149614856Y-96302394D01*
X149561546Y-96141513D01*
X149472573Y-95997267D01*
X149352732Y-95877426D01*
X149208486Y-95788453D01*
X149047606Y-95735143D01*
X148951445Y-95725319D01*
X148945168Y-95725000D01*
X148900000Y-95725000D01*
X148400000Y-95725000D01*
X148354835Y-95725000D01*
X148348551Y-95725321D01*
X148252394Y-95735143D01*
X148091516Y-95788452D01*
X147972246Y-95862020D01*
X147904854Y-95880460D01*
X147838190Y-95859538D01*
X147819468Y-95844162D01*
X147752732Y-95777426D01*
X147608486Y-95688453D01*
X147447606Y-95635143D01*
X147351445Y-95625319D01*
X147345168Y-95625000D01*
X147325000Y-95625000D01*
X146825000Y-95625000D01*
X146804836Y-95625000D01*
X146798550Y-95625321D01*
X146702394Y-95635143D01*
X146541513Y-95688453D01*
X146397267Y-95777426D01*
X146279610Y-95895084D01*
X146218287Y-95928569D01*
X146148595Y-95923585D01*
X146116443Y-95905779D01*
X146040233Y-95847302D01*
X146032652Y-95844162D01*
X145900236Y-95789313D01*
X145829497Y-95780000D01*
X145791739Y-95775029D01*
X145791737Y-95775028D01*
X145787720Y-95774500D01*
X145262280Y-95774500D01*
X145258263Y-95775028D01*
X145258260Y-95775029D01*
X145149764Y-95789313D01*
X145009768Y-95847301D01*
X144889547Y-95939550D01*
X144880773Y-95950986D01*
X144824346Y-95992189D01*
X144782397Y-95999500D01*
X144640663Y-95999500D01*
X144574691Y-95980494D01*
X144527729Y-95950986D01*
X144477690Y-95919544D01*
X144318059Y-95863687D01*
X144318058Y-95863686D01*
X144318056Y-95863686D01*
X144150000Y-95844750D01*
X143981943Y-95863686D01*
X143822310Y-95919544D01*
X143679108Y-96009524D01*
X143559524Y-96129108D01*
X143469544Y-96272310D01*
X143413686Y-96431943D01*
X143394750Y-96600000D01*
X143415251Y-96781942D01*
X143413529Y-96782135D01*
X143416223Y-96834908D01*
X143381494Y-96895535D01*
X143319500Y-96927762D01*
X143308221Y-96929441D01*
X143252394Y-96935143D01*
X143091513Y-96988453D01*
X142947267Y-97077426D01*
X142827426Y-97197267D01*
X142738453Y-97341513D01*
X142685143Y-97502393D01*
X142675319Y-97598554D01*
X142675000Y-97604832D01*
X142675000Y-97625000D01*
X143776000Y-97625000D01*
X143843039Y-97644685D01*
X143888794Y-97697489D01*
X143900000Y-97749000D01*
X143900000Y-98001000D01*
X143880315Y-98068039D01*
X143827511Y-98113794D01*
X143776000Y-98125000D01*
X142675001Y-98125000D01*
X142675001Y-98145165D01*
X142675321Y-98151447D01*
X142685143Y-98247605D01*
X142738453Y-98408486D01*
X142827426Y-98552732D01*
X142945084Y-98670390D01*
X142978569Y-98731713D01*
X142973585Y-98801405D01*
X142955781Y-98833555D01*
X142942408Y-98850984D01*
X142885981Y-98892188D01*
X142844030Y-98899500D01*
X142294031Y-98899500D01*
X142226992Y-98879815D01*
X142206350Y-98863181D01*
X134536819Y-91193649D01*
X134503334Y-91132326D01*
X134500500Y-91105968D01*
X134500500Y-89816736D01*
X134490573Y-89748609D01*
X134490573Y-89748607D01*
X134439198Y-89643517D01*
X134439197Y-89643516D01*
X134439197Y-89643515D01*
X134356484Y-89560802D01*
X134302712Y-89534515D01*
X134251393Y-89509427D01*
X134251391Y-89509426D01*
X134251390Y-89509426D01*
X134183263Y-89499500D01*
X134183260Y-89499500D01*
X133574000Y-89499500D01*
X133506961Y-89479815D01*
X133461206Y-89427011D01*
X133450000Y-89375500D01*
X133450000Y-88524500D01*
X133469685Y-88457461D01*
X133522489Y-88411706D01*
X133574000Y-88400500D01*
X151725500Y-88400500D01*
X151792539Y-88420185D01*
G37*
%TD.AperFunction*%
%TD*%
M02*
