%TF.GenerationSoftware,KiCad,Pcbnew,7.0.2-0*%
%TF.CreationDate,2023-06-08T14:22:34-07:00*%
%TF.ProjectId,IAM-20380HT_gyro,49414d2d-3230-4333-9830-48545f677972,rev?*%
%TF.SameCoordinates,Original*%
%TF.FileFunction,Legend,Top*%
%TF.FilePolarity,Positive*%
%FSLAX46Y46*%
G04 Gerber Fmt 4.6, Leading zero omitted, Abs format (unit mm)*
G04 Created by KiCad (PCBNEW 7.0.2-0) date 2023-06-08 14:22:34*
%MOMM*%
%LPD*%
G01*
G04 APERTURE LIST*
%ADD10C,0.150000*%
%ADD11C,0.120000*%
%ADD12C,0.127000*%
%ADD13C,0.100000*%
G04 APERTURE END LIST*
D10*
X135338095Y-103927619D02*
X135338095Y-102927619D01*
X135814285Y-103927619D02*
X135814285Y-102927619D01*
X135814285Y-102927619D02*
X136385713Y-103927619D01*
X136385713Y-103927619D02*
X136385713Y-102927619D01*
X136719047Y-102927619D02*
X137290475Y-102927619D01*
X137004761Y-103927619D02*
X137004761Y-102927619D01*
X138147618Y-103927619D02*
X137576190Y-103927619D01*
X137861904Y-103927619D02*
X137861904Y-102927619D01*
X137861904Y-102927619D02*
X137766666Y-103070476D01*
X137766666Y-103070476D02*
X137671428Y-103165714D01*
X137671428Y-103165714D02*
X137576190Y-103213333D01*
X135388095Y-106427619D02*
X135388095Y-105427619D01*
X135864285Y-106427619D02*
X135864285Y-105427619D01*
X135864285Y-105427619D02*
X136435713Y-106427619D01*
X136435713Y-106427619D02*
X136435713Y-105427619D01*
X136769047Y-105427619D02*
X137340475Y-105427619D01*
X137054761Y-106427619D02*
X137054761Y-105427619D01*
X137626190Y-105522857D02*
X137673809Y-105475238D01*
X137673809Y-105475238D02*
X137769047Y-105427619D01*
X137769047Y-105427619D02*
X138007142Y-105427619D01*
X138007142Y-105427619D02*
X138102380Y-105475238D01*
X138102380Y-105475238D02*
X138149999Y-105522857D01*
X138149999Y-105522857D02*
X138197618Y-105618095D01*
X138197618Y-105618095D02*
X138197618Y-105713333D01*
X138197618Y-105713333D02*
X138149999Y-105856190D01*
X138149999Y-105856190D02*
X137578571Y-106427619D01*
X137578571Y-106427619D02*
X138197618Y-106427619D01*
X135959523Y-101382380D02*
X135911904Y-101430000D01*
X135911904Y-101430000D02*
X135769047Y-101477619D01*
X135769047Y-101477619D02*
X135673809Y-101477619D01*
X135673809Y-101477619D02*
X135530952Y-101430000D01*
X135530952Y-101430000D02*
X135435714Y-101334761D01*
X135435714Y-101334761D02*
X135388095Y-101239523D01*
X135388095Y-101239523D02*
X135340476Y-101049047D01*
X135340476Y-101049047D02*
X135340476Y-100906190D01*
X135340476Y-100906190D02*
X135388095Y-100715714D01*
X135388095Y-100715714D02*
X135435714Y-100620476D01*
X135435714Y-100620476D02*
X135530952Y-100525238D01*
X135530952Y-100525238D02*
X135673809Y-100477619D01*
X135673809Y-100477619D02*
X135769047Y-100477619D01*
X135769047Y-100477619D02*
X135911904Y-100525238D01*
X135911904Y-100525238D02*
X135959523Y-100572857D01*
X136340476Y-101430000D02*
X136483333Y-101477619D01*
X136483333Y-101477619D02*
X136721428Y-101477619D01*
X136721428Y-101477619D02*
X136816666Y-101430000D01*
X136816666Y-101430000D02*
X136864285Y-101382380D01*
X136864285Y-101382380D02*
X136911904Y-101287142D01*
X136911904Y-101287142D02*
X136911904Y-101191904D01*
X136911904Y-101191904D02*
X136864285Y-101096666D01*
X136864285Y-101096666D02*
X136816666Y-101049047D01*
X136816666Y-101049047D02*
X136721428Y-101001428D01*
X136721428Y-101001428D02*
X136530952Y-100953809D01*
X136530952Y-100953809D02*
X136435714Y-100906190D01*
X136435714Y-100906190D02*
X136388095Y-100858571D01*
X136388095Y-100858571D02*
X136340476Y-100763333D01*
X136340476Y-100763333D02*
X136340476Y-100668095D01*
X136340476Y-100668095D02*
X136388095Y-100572857D01*
X136388095Y-100572857D02*
X136435714Y-100525238D01*
X136435714Y-100525238D02*
X136530952Y-100477619D01*
X136530952Y-100477619D02*
X136769047Y-100477619D01*
X136769047Y-100477619D02*
X136911904Y-100525238D01*
X135345238Y-90277619D02*
X135678571Y-91277619D01*
X135678571Y-91277619D02*
X136011904Y-90277619D01*
X136345238Y-91277619D02*
X136345238Y-90277619D01*
X136345238Y-90277619D02*
X136583333Y-90277619D01*
X136583333Y-90277619D02*
X136726190Y-90325238D01*
X136726190Y-90325238D02*
X136821428Y-90420476D01*
X136821428Y-90420476D02*
X136869047Y-90515714D01*
X136869047Y-90515714D02*
X136916666Y-90706190D01*
X136916666Y-90706190D02*
X136916666Y-90849047D01*
X136916666Y-90849047D02*
X136869047Y-91039523D01*
X136869047Y-91039523D02*
X136821428Y-91134761D01*
X136821428Y-91134761D02*
X136726190Y-91230000D01*
X136726190Y-91230000D02*
X136583333Y-91277619D01*
X136583333Y-91277619D02*
X136345238Y-91277619D01*
X137345238Y-91277619D02*
X137345238Y-90277619D01*
X137345238Y-90277619D02*
X137583333Y-90277619D01*
X137583333Y-90277619D02*
X137726190Y-90325238D01*
X137726190Y-90325238D02*
X137821428Y-90420476D01*
X137821428Y-90420476D02*
X137869047Y-90515714D01*
X137869047Y-90515714D02*
X137916666Y-90706190D01*
X137916666Y-90706190D02*
X137916666Y-90849047D01*
X137916666Y-90849047D02*
X137869047Y-91039523D01*
X137869047Y-91039523D02*
X137821428Y-91134761D01*
X137821428Y-91134761D02*
X137726190Y-91230000D01*
X137726190Y-91230000D02*
X137583333Y-91277619D01*
X137583333Y-91277619D02*
X137345238Y-91277619D01*
X138345238Y-91277619D02*
X138345238Y-90277619D01*
X139011904Y-90277619D02*
X139202380Y-90277619D01*
X139202380Y-90277619D02*
X139297618Y-90325238D01*
X139297618Y-90325238D02*
X139392856Y-90420476D01*
X139392856Y-90420476D02*
X139440475Y-90610952D01*
X139440475Y-90610952D02*
X139440475Y-90944285D01*
X139440475Y-90944285D02*
X139392856Y-91134761D01*
X139392856Y-91134761D02*
X139297618Y-91230000D01*
X139297618Y-91230000D02*
X139202380Y-91277619D01*
X139202380Y-91277619D02*
X139011904Y-91277619D01*
X139011904Y-91277619D02*
X138916666Y-91230000D01*
X138916666Y-91230000D02*
X138821428Y-91134761D01*
X138821428Y-91134761D02*
X138773809Y-90944285D01*
X138773809Y-90944285D02*
X138773809Y-90610952D01*
X138773809Y-90610952D02*
X138821428Y-90420476D01*
X138821428Y-90420476D02*
X138916666Y-90325238D01*
X138916666Y-90325238D02*
X139011904Y-90277619D01*
X135340476Y-98730000D02*
X135483333Y-98777619D01*
X135483333Y-98777619D02*
X135721428Y-98777619D01*
X135721428Y-98777619D02*
X135816666Y-98730000D01*
X135816666Y-98730000D02*
X135864285Y-98682380D01*
X135864285Y-98682380D02*
X135911904Y-98587142D01*
X135911904Y-98587142D02*
X135911904Y-98491904D01*
X135911904Y-98491904D02*
X135864285Y-98396666D01*
X135864285Y-98396666D02*
X135816666Y-98349047D01*
X135816666Y-98349047D02*
X135721428Y-98301428D01*
X135721428Y-98301428D02*
X135530952Y-98253809D01*
X135530952Y-98253809D02*
X135435714Y-98206190D01*
X135435714Y-98206190D02*
X135388095Y-98158571D01*
X135388095Y-98158571D02*
X135340476Y-98063333D01*
X135340476Y-98063333D02*
X135340476Y-97968095D01*
X135340476Y-97968095D02*
X135388095Y-97872857D01*
X135388095Y-97872857D02*
X135435714Y-97825238D01*
X135435714Y-97825238D02*
X135530952Y-97777619D01*
X135530952Y-97777619D02*
X135769047Y-97777619D01*
X135769047Y-97777619D02*
X135911904Y-97825238D01*
X136292857Y-98491904D02*
X136769047Y-98491904D01*
X136197619Y-98777619D02*
X136530952Y-97777619D01*
X136530952Y-97777619D02*
X136864285Y-98777619D01*
X137388095Y-97777619D02*
X137483333Y-97777619D01*
X137483333Y-97777619D02*
X137578571Y-97825238D01*
X137578571Y-97825238D02*
X137626190Y-97872857D01*
X137626190Y-97872857D02*
X137673809Y-97968095D01*
X137673809Y-97968095D02*
X137721428Y-98158571D01*
X137721428Y-98158571D02*
X137721428Y-98396666D01*
X137721428Y-98396666D02*
X137673809Y-98587142D01*
X137673809Y-98587142D02*
X137626190Y-98682380D01*
X137626190Y-98682380D02*
X137578571Y-98730000D01*
X137578571Y-98730000D02*
X137483333Y-98777619D01*
X137483333Y-98777619D02*
X137388095Y-98777619D01*
X137388095Y-98777619D02*
X137292857Y-98730000D01*
X137292857Y-98730000D02*
X137245238Y-98682380D01*
X137245238Y-98682380D02*
X137197619Y-98587142D01*
X137197619Y-98587142D02*
X137150000Y-98396666D01*
X137150000Y-98396666D02*
X137150000Y-98158571D01*
X137150000Y-98158571D02*
X137197619Y-97968095D01*
X137197619Y-97968095D02*
X137245238Y-97872857D01*
X137245238Y-97872857D02*
X137292857Y-97825238D01*
X137292857Y-97825238D02*
X137388095Y-97777619D01*
X138864285Y-97730000D02*
X138007143Y-99015714D01*
X139150000Y-98730000D02*
X139292857Y-98777619D01*
X139292857Y-98777619D02*
X139530952Y-98777619D01*
X139530952Y-98777619D02*
X139626190Y-98730000D01*
X139626190Y-98730000D02*
X139673809Y-98682380D01*
X139673809Y-98682380D02*
X139721428Y-98587142D01*
X139721428Y-98587142D02*
X139721428Y-98491904D01*
X139721428Y-98491904D02*
X139673809Y-98396666D01*
X139673809Y-98396666D02*
X139626190Y-98349047D01*
X139626190Y-98349047D02*
X139530952Y-98301428D01*
X139530952Y-98301428D02*
X139340476Y-98253809D01*
X139340476Y-98253809D02*
X139245238Y-98206190D01*
X139245238Y-98206190D02*
X139197619Y-98158571D01*
X139197619Y-98158571D02*
X139150000Y-98063333D01*
X139150000Y-98063333D02*
X139150000Y-97968095D01*
X139150000Y-97968095D02*
X139197619Y-97872857D01*
X139197619Y-97872857D02*
X139245238Y-97825238D01*
X139245238Y-97825238D02*
X139340476Y-97777619D01*
X139340476Y-97777619D02*
X139578571Y-97777619D01*
X139578571Y-97777619D02*
X139721428Y-97825238D01*
X140150000Y-98777619D02*
X140150000Y-97777619D01*
X140150000Y-97777619D02*
X140388095Y-97777619D01*
X140388095Y-97777619D02*
X140530952Y-97825238D01*
X140530952Y-97825238D02*
X140626190Y-97920476D01*
X140626190Y-97920476D02*
X140673809Y-98015714D01*
X140673809Y-98015714D02*
X140721428Y-98206190D01*
X140721428Y-98206190D02*
X140721428Y-98349047D01*
X140721428Y-98349047D02*
X140673809Y-98539523D01*
X140673809Y-98539523D02*
X140626190Y-98634761D01*
X140626190Y-98634761D02*
X140530952Y-98730000D01*
X140530952Y-98730000D02*
X140388095Y-98777619D01*
X140388095Y-98777619D02*
X140150000Y-98777619D01*
X141340476Y-97777619D02*
X141530952Y-97777619D01*
X141530952Y-97777619D02*
X141626190Y-97825238D01*
X141626190Y-97825238D02*
X141721428Y-97920476D01*
X141721428Y-97920476D02*
X141769047Y-98110952D01*
X141769047Y-98110952D02*
X141769047Y-98444285D01*
X141769047Y-98444285D02*
X141721428Y-98634761D01*
X141721428Y-98634761D02*
X141626190Y-98730000D01*
X141626190Y-98730000D02*
X141530952Y-98777619D01*
X141530952Y-98777619D02*
X141340476Y-98777619D01*
X141340476Y-98777619D02*
X141245238Y-98730000D01*
X141245238Y-98730000D02*
X141150000Y-98634761D01*
X141150000Y-98634761D02*
X141102381Y-98444285D01*
X141102381Y-98444285D02*
X141102381Y-98110952D01*
X141102381Y-98110952D02*
X141150000Y-97920476D01*
X141150000Y-97920476D02*
X141245238Y-97825238D01*
X141245238Y-97825238D02*
X141340476Y-97777619D01*
X141238095Y-91277619D02*
X141238095Y-90277619D01*
X141666666Y-90991904D02*
X142142856Y-90991904D01*
X141571428Y-91277619D02*
X141904761Y-90277619D01*
X141904761Y-90277619D02*
X142238094Y-91277619D01*
X142571428Y-91277619D02*
X142571428Y-90277619D01*
X142571428Y-90277619D02*
X142904761Y-90991904D01*
X142904761Y-90991904D02*
X143238094Y-90277619D01*
X143238094Y-90277619D02*
X143238094Y-91277619D01*
X143714285Y-90896666D02*
X144476190Y-90896666D01*
X144904761Y-90372857D02*
X144952380Y-90325238D01*
X144952380Y-90325238D02*
X145047618Y-90277619D01*
X145047618Y-90277619D02*
X145285713Y-90277619D01*
X145285713Y-90277619D02*
X145380951Y-90325238D01*
X145380951Y-90325238D02*
X145428570Y-90372857D01*
X145428570Y-90372857D02*
X145476189Y-90468095D01*
X145476189Y-90468095D02*
X145476189Y-90563333D01*
X145476189Y-90563333D02*
X145428570Y-90706190D01*
X145428570Y-90706190D02*
X144857142Y-91277619D01*
X144857142Y-91277619D02*
X145476189Y-91277619D01*
X146095237Y-90277619D02*
X146190475Y-90277619D01*
X146190475Y-90277619D02*
X146285713Y-90325238D01*
X146285713Y-90325238D02*
X146333332Y-90372857D01*
X146333332Y-90372857D02*
X146380951Y-90468095D01*
X146380951Y-90468095D02*
X146428570Y-90658571D01*
X146428570Y-90658571D02*
X146428570Y-90896666D01*
X146428570Y-90896666D02*
X146380951Y-91087142D01*
X146380951Y-91087142D02*
X146333332Y-91182380D01*
X146333332Y-91182380D02*
X146285713Y-91230000D01*
X146285713Y-91230000D02*
X146190475Y-91277619D01*
X146190475Y-91277619D02*
X146095237Y-91277619D01*
X146095237Y-91277619D02*
X145999999Y-91230000D01*
X145999999Y-91230000D02*
X145952380Y-91182380D01*
X145952380Y-91182380D02*
X145904761Y-91087142D01*
X145904761Y-91087142D02*
X145857142Y-90896666D01*
X145857142Y-90896666D02*
X145857142Y-90658571D01*
X145857142Y-90658571D02*
X145904761Y-90468095D01*
X145904761Y-90468095D02*
X145952380Y-90372857D01*
X145952380Y-90372857D02*
X145999999Y-90325238D01*
X145999999Y-90325238D02*
X146095237Y-90277619D01*
X146761904Y-90277619D02*
X147380951Y-90277619D01*
X147380951Y-90277619D02*
X147047618Y-90658571D01*
X147047618Y-90658571D02*
X147190475Y-90658571D01*
X147190475Y-90658571D02*
X147285713Y-90706190D01*
X147285713Y-90706190D02*
X147333332Y-90753809D01*
X147333332Y-90753809D02*
X147380951Y-90849047D01*
X147380951Y-90849047D02*
X147380951Y-91087142D01*
X147380951Y-91087142D02*
X147333332Y-91182380D01*
X147333332Y-91182380D02*
X147285713Y-91230000D01*
X147285713Y-91230000D02*
X147190475Y-91277619D01*
X147190475Y-91277619D02*
X146904761Y-91277619D01*
X146904761Y-91277619D02*
X146809523Y-91230000D01*
X146809523Y-91230000D02*
X146761904Y-91182380D01*
X147952380Y-90706190D02*
X147857142Y-90658571D01*
X147857142Y-90658571D02*
X147809523Y-90610952D01*
X147809523Y-90610952D02*
X147761904Y-90515714D01*
X147761904Y-90515714D02*
X147761904Y-90468095D01*
X147761904Y-90468095D02*
X147809523Y-90372857D01*
X147809523Y-90372857D02*
X147857142Y-90325238D01*
X147857142Y-90325238D02*
X147952380Y-90277619D01*
X147952380Y-90277619D02*
X148142856Y-90277619D01*
X148142856Y-90277619D02*
X148238094Y-90325238D01*
X148238094Y-90325238D02*
X148285713Y-90372857D01*
X148285713Y-90372857D02*
X148333332Y-90468095D01*
X148333332Y-90468095D02*
X148333332Y-90515714D01*
X148333332Y-90515714D02*
X148285713Y-90610952D01*
X148285713Y-90610952D02*
X148238094Y-90658571D01*
X148238094Y-90658571D02*
X148142856Y-90706190D01*
X148142856Y-90706190D02*
X147952380Y-90706190D01*
X147952380Y-90706190D02*
X147857142Y-90753809D01*
X147857142Y-90753809D02*
X147809523Y-90801428D01*
X147809523Y-90801428D02*
X147761904Y-90896666D01*
X147761904Y-90896666D02*
X147761904Y-91087142D01*
X147761904Y-91087142D02*
X147809523Y-91182380D01*
X147809523Y-91182380D02*
X147857142Y-91230000D01*
X147857142Y-91230000D02*
X147952380Y-91277619D01*
X147952380Y-91277619D02*
X148142856Y-91277619D01*
X148142856Y-91277619D02*
X148238094Y-91230000D01*
X148238094Y-91230000D02*
X148285713Y-91182380D01*
X148285713Y-91182380D02*
X148333332Y-91087142D01*
X148333332Y-91087142D02*
X148333332Y-90896666D01*
X148333332Y-90896666D02*
X148285713Y-90801428D01*
X148285713Y-90801428D02*
X148238094Y-90753809D01*
X148238094Y-90753809D02*
X148142856Y-90706190D01*
X148952380Y-90277619D02*
X149047618Y-90277619D01*
X149047618Y-90277619D02*
X149142856Y-90325238D01*
X149142856Y-90325238D02*
X149190475Y-90372857D01*
X149190475Y-90372857D02*
X149238094Y-90468095D01*
X149238094Y-90468095D02*
X149285713Y-90658571D01*
X149285713Y-90658571D02*
X149285713Y-90896666D01*
X149285713Y-90896666D02*
X149238094Y-91087142D01*
X149238094Y-91087142D02*
X149190475Y-91182380D01*
X149190475Y-91182380D02*
X149142856Y-91230000D01*
X149142856Y-91230000D02*
X149047618Y-91277619D01*
X149047618Y-91277619D02*
X148952380Y-91277619D01*
X148952380Y-91277619D02*
X148857142Y-91230000D01*
X148857142Y-91230000D02*
X148809523Y-91182380D01*
X148809523Y-91182380D02*
X148761904Y-91087142D01*
X148761904Y-91087142D02*
X148714285Y-90896666D01*
X148714285Y-90896666D02*
X148714285Y-90658571D01*
X148714285Y-90658571D02*
X148761904Y-90468095D01*
X148761904Y-90468095D02*
X148809523Y-90372857D01*
X148809523Y-90372857D02*
X148857142Y-90325238D01*
X148857142Y-90325238D02*
X148952380Y-90277619D01*
X149714285Y-91277619D02*
X149714285Y-90277619D01*
X149714285Y-90753809D02*
X150285713Y-90753809D01*
X150285713Y-91277619D02*
X150285713Y-90277619D01*
X150619047Y-90277619D02*
X151190475Y-90277619D01*
X150904761Y-91277619D02*
X150904761Y-90277619D01*
X135861904Y-108075238D02*
X135766666Y-108027619D01*
X135766666Y-108027619D02*
X135623809Y-108027619D01*
X135623809Y-108027619D02*
X135480952Y-108075238D01*
X135480952Y-108075238D02*
X135385714Y-108170476D01*
X135385714Y-108170476D02*
X135338095Y-108265714D01*
X135338095Y-108265714D02*
X135290476Y-108456190D01*
X135290476Y-108456190D02*
X135290476Y-108599047D01*
X135290476Y-108599047D02*
X135338095Y-108789523D01*
X135338095Y-108789523D02*
X135385714Y-108884761D01*
X135385714Y-108884761D02*
X135480952Y-108980000D01*
X135480952Y-108980000D02*
X135623809Y-109027619D01*
X135623809Y-109027619D02*
X135719047Y-109027619D01*
X135719047Y-109027619D02*
X135861904Y-108980000D01*
X135861904Y-108980000D02*
X135909523Y-108932380D01*
X135909523Y-108932380D02*
X135909523Y-108599047D01*
X135909523Y-108599047D02*
X135719047Y-108599047D01*
X136338095Y-109027619D02*
X136338095Y-108027619D01*
X136338095Y-108027619D02*
X136909523Y-109027619D01*
X136909523Y-109027619D02*
X136909523Y-108027619D01*
X137385714Y-109027619D02*
X137385714Y-108027619D01*
X137385714Y-108027619D02*
X137623809Y-108027619D01*
X137623809Y-108027619D02*
X137766666Y-108075238D01*
X137766666Y-108075238D02*
X137861904Y-108170476D01*
X137861904Y-108170476D02*
X137909523Y-108265714D01*
X137909523Y-108265714D02*
X137957142Y-108456190D01*
X137957142Y-108456190D02*
X137957142Y-108599047D01*
X137957142Y-108599047D02*
X137909523Y-108789523D01*
X137909523Y-108789523D02*
X137861904Y-108884761D01*
X137861904Y-108884761D02*
X137766666Y-108980000D01*
X137766666Y-108980000D02*
X137623809Y-109027619D01*
X137623809Y-109027619D02*
X137385714Y-109027619D01*
X135345238Y-110577619D02*
X135678571Y-111577619D01*
X135678571Y-111577619D02*
X136011904Y-110577619D01*
X136345238Y-111577619D02*
X136345238Y-110577619D01*
X136345238Y-110577619D02*
X136583333Y-110577619D01*
X136583333Y-110577619D02*
X136726190Y-110625238D01*
X136726190Y-110625238D02*
X136821428Y-110720476D01*
X136821428Y-110720476D02*
X136869047Y-110815714D01*
X136869047Y-110815714D02*
X136916666Y-111006190D01*
X136916666Y-111006190D02*
X136916666Y-111149047D01*
X136916666Y-111149047D02*
X136869047Y-111339523D01*
X136869047Y-111339523D02*
X136821428Y-111434761D01*
X136821428Y-111434761D02*
X136726190Y-111530000D01*
X136726190Y-111530000D02*
X136583333Y-111577619D01*
X136583333Y-111577619D02*
X136345238Y-111577619D01*
X137345238Y-111577619D02*
X137345238Y-110577619D01*
X137345238Y-110577619D02*
X137583333Y-110577619D01*
X137583333Y-110577619D02*
X137726190Y-110625238D01*
X137726190Y-110625238D02*
X137821428Y-110720476D01*
X137821428Y-110720476D02*
X137869047Y-110815714D01*
X137869047Y-110815714D02*
X137916666Y-111006190D01*
X137916666Y-111006190D02*
X137916666Y-111149047D01*
X137916666Y-111149047D02*
X137869047Y-111339523D01*
X137869047Y-111339523D02*
X137821428Y-111434761D01*
X137821428Y-111434761D02*
X137726190Y-111530000D01*
X137726190Y-111530000D02*
X137583333Y-111577619D01*
X137583333Y-111577619D02*
X137345238Y-111577619D01*
X135340476Y-93730000D02*
X135483333Y-93777619D01*
X135483333Y-93777619D02*
X135721428Y-93777619D01*
X135721428Y-93777619D02*
X135816666Y-93730000D01*
X135816666Y-93730000D02*
X135864285Y-93682380D01*
X135864285Y-93682380D02*
X135911904Y-93587142D01*
X135911904Y-93587142D02*
X135911904Y-93491904D01*
X135911904Y-93491904D02*
X135864285Y-93396666D01*
X135864285Y-93396666D02*
X135816666Y-93349047D01*
X135816666Y-93349047D02*
X135721428Y-93301428D01*
X135721428Y-93301428D02*
X135530952Y-93253809D01*
X135530952Y-93253809D02*
X135435714Y-93206190D01*
X135435714Y-93206190D02*
X135388095Y-93158571D01*
X135388095Y-93158571D02*
X135340476Y-93063333D01*
X135340476Y-93063333D02*
X135340476Y-92968095D01*
X135340476Y-92968095D02*
X135388095Y-92872857D01*
X135388095Y-92872857D02*
X135435714Y-92825238D01*
X135435714Y-92825238D02*
X135530952Y-92777619D01*
X135530952Y-92777619D02*
X135769047Y-92777619D01*
X135769047Y-92777619D02*
X135911904Y-92825238D01*
X136911904Y-93682380D02*
X136864285Y-93730000D01*
X136864285Y-93730000D02*
X136721428Y-93777619D01*
X136721428Y-93777619D02*
X136626190Y-93777619D01*
X136626190Y-93777619D02*
X136483333Y-93730000D01*
X136483333Y-93730000D02*
X136388095Y-93634761D01*
X136388095Y-93634761D02*
X136340476Y-93539523D01*
X136340476Y-93539523D02*
X136292857Y-93349047D01*
X136292857Y-93349047D02*
X136292857Y-93206190D01*
X136292857Y-93206190D02*
X136340476Y-93015714D01*
X136340476Y-93015714D02*
X136388095Y-92920476D01*
X136388095Y-92920476D02*
X136483333Y-92825238D01*
X136483333Y-92825238D02*
X136626190Y-92777619D01*
X136626190Y-92777619D02*
X136721428Y-92777619D01*
X136721428Y-92777619D02*
X136864285Y-92825238D01*
X136864285Y-92825238D02*
X136911904Y-92872857D01*
X137816666Y-93777619D02*
X137340476Y-93777619D01*
X137340476Y-93777619D02*
X137340476Y-92777619D01*
X138864285Y-92730000D02*
X138007143Y-94015714D01*
X139150000Y-93730000D02*
X139292857Y-93777619D01*
X139292857Y-93777619D02*
X139530952Y-93777619D01*
X139530952Y-93777619D02*
X139626190Y-93730000D01*
X139626190Y-93730000D02*
X139673809Y-93682380D01*
X139673809Y-93682380D02*
X139721428Y-93587142D01*
X139721428Y-93587142D02*
X139721428Y-93491904D01*
X139721428Y-93491904D02*
X139673809Y-93396666D01*
X139673809Y-93396666D02*
X139626190Y-93349047D01*
X139626190Y-93349047D02*
X139530952Y-93301428D01*
X139530952Y-93301428D02*
X139340476Y-93253809D01*
X139340476Y-93253809D02*
X139245238Y-93206190D01*
X139245238Y-93206190D02*
X139197619Y-93158571D01*
X139197619Y-93158571D02*
X139150000Y-93063333D01*
X139150000Y-93063333D02*
X139150000Y-92968095D01*
X139150000Y-92968095D02*
X139197619Y-92872857D01*
X139197619Y-92872857D02*
X139245238Y-92825238D01*
X139245238Y-92825238D02*
X139340476Y-92777619D01*
X139340476Y-92777619D02*
X139578571Y-92777619D01*
X139578571Y-92777619D02*
X139721428Y-92825238D01*
X140150000Y-93777619D02*
X140150000Y-92777619D01*
X140150000Y-92777619D02*
X140530952Y-92777619D01*
X140530952Y-92777619D02*
X140626190Y-92825238D01*
X140626190Y-92825238D02*
X140673809Y-92872857D01*
X140673809Y-92872857D02*
X140721428Y-92968095D01*
X140721428Y-92968095D02*
X140721428Y-93110952D01*
X140721428Y-93110952D02*
X140673809Y-93206190D01*
X140673809Y-93206190D02*
X140626190Y-93253809D01*
X140626190Y-93253809D02*
X140530952Y-93301428D01*
X140530952Y-93301428D02*
X140150000Y-93301428D01*
X141721428Y-93682380D02*
X141673809Y-93730000D01*
X141673809Y-93730000D02*
X141530952Y-93777619D01*
X141530952Y-93777619D02*
X141435714Y-93777619D01*
X141435714Y-93777619D02*
X141292857Y-93730000D01*
X141292857Y-93730000D02*
X141197619Y-93634761D01*
X141197619Y-93634761D02*
X141150000Y-93539523D01*
X141150000Y-93539523D02*
X141102381Y-93349047D01*
X141102381Y-93349047D02*
X141102381Y-93206190D01*
X141102381Y-93206190D02*
X141150000Y-93015714D01*
X141150000Y-93015714D02*
X141197619Y-92920476D01*
X141197619Y-92920476D02*
X141292857Y-92825238D01*
X141292857Y-92825238D02*
X141435714Y-92777619D01*
X141435714Y-92777619D02*
X141530952Y-92777619D01*
X141530952Y-92777619D02*
X141673809Y-92825238D01*
X141673809Y-92825238D02*
X141721428Y-92872857D01*
X135340476Y-96280000D02*
X135483333Y-96327619D01*
X135483333Y-96327619D02*
X135721428Y-96327619D01*
X135721428Y-96327619D02*
X135816666Y-96280000D01*
X135816666Y-96280000D02*
X135864285Y-96232380D01*
X135864285Y-96232380D02*
X135911904Y-96137142D01*
X135911904Y-96137142D02*
X135911904Y-96041904D01*
X135911904Y-96041904D02*
X135864285Y-95946666D01*
X135864285Y-95946666D02*
X135816666Y-95899047D01*
X135816666Y-95899047D02*
X135721428Y-95851428D01*
X135721428Y-95851428D02*
X135530952Y-95803809D01*
X135530952Y-95803809D02*
X135435714Y-95756190D01*
X135435714Y-95756190D02*
X135388095Y-95708571D01*
X135388095Y-95708571D02*
X135340476Y-95613333D01*
X135340476Y-95613333D02*
X135340476Y-95518095D01*
X135340476Y-95518095D02*
X135388095Y-95422857D01*
X135388095Y-95422857D02*
X135435714Y-95375238D01*
X135435714Y-95375238D02*
X135530952Y-95327619D01*
X135530952Y-95327619D02*
X135769047Y-95327619D01*
X135769047Y-95327619D02*
X135911904Y-95375238D01*
X136340476Y-96327619D02*
X136340476Y-95327619D01*
X136340476Y-95327619D02*
X136578571Y-95327619D01*
X136578571Y-95327619D02*
X136721428Y-95375238D01*
X136721428Y-95375238D02*
X136816666Y-95470476D01*
X136816666Y-95470476D02*
X136864285Y-95565714D01*
X136864285Y-95565714D02*
X136911904Y-95756190D01*
X136911904Y-95756190D02*
X136911904Y-95899047D01*
X136911904Y-95899047D02*
X136864285Y-96089523D01*
X136864285Y-96089523D02*
X136816666Y-96184761D01*
X136816666Y-96184761D02*
X136721428Y-96280000D01*
X136721428Y-96280000D02*
X136578571Y-96327619D01*
X136578571Y-96327619D02*
X136340476Y-96327619D01*
X137292857Y-96041904D02*
X137769047Y-96041904D01*
X137197619Y-96327619D02*
X137530952Y-95327619D01*
X137530952Y-95327619D02*
X137864285Y-96327619D01*
X138911904Y-95280000D02*
X138054762Y-96565714D01*
X139197619Y-96280000D02*
X139340476Y-96327619D01*
X139340476Y-96327619D02*
X139578571Y-96327619D01*
X139578571Y-96327619D02*
X139673809Y-96280000D01*
X139673809Y-96280000D02*
X139721428Y-96232380D01*
X139721428Y-96232380D02*
X139769047Y-96137142D01*
X139769047Y-96137142D02*
X139769047Y-96041904D01*
X139769047Y-96041904D02*
X139721428Y-95946666D01*
X139721428Y-95946666D02*
X139673809Y-95899047D01*
X139673809Y-95899047D02*
X139578571Y-95851428D01*
X139578571Y-95851428D02*
X139388095Y-95803809D01*
X139388095Y-95803809D02*
X139292857Y-95756190D01*
X139292857Y-95756190D02*
X139245238Y-95708571D01*
X139245238Y-95708571D02*
X139197619Y-95613333D01*
X139197619Y-95613333D02*
X139197619Y-95518095D01*
X139197619Y-95518095D02*
X139245238Y-95422857D01*
X139245238Y-95422857D02*
X139292857Y-95375238D01*
X139292857Y-95375238D02*
X139388095Y-95327619D01*
X139388095Y-95327619D02*
X139626190Y-95327619D01*
X139626190Y-95327619D02*
X139769047Y-95375238D01*
X140197619Y-96327619D02*
X140197619Y-95327619D01*
X140197619Y-95327619D02*
X140435714Y-95327619D01*
X140435714Y-95327619D02*
X140578571Y-95375238D01*
X140578571Y-95375238D02*
X140673809Y-95470476D01*
X140673809Y-95470476D02*
X140721428Y-95565714D01*
X140721428Y-95565714D02*
X140769047Y-95756190D01*
X140769047Y-95756190D02*
X140769047Y-95899047D01*
X140769047Y-95899047D02*
X140721428Y-96089523D01*
X140721428Y-96089523D02*
X140673809Y-96184761D01*
X140673809Y-96184761D02*
X140578571Y-96280000D01*
X140578571Y-96280000D02*
X140435714Y-96327619D01*
X140435714Y-96327619D02*
X140197619Y-96327619D01*
X141197619Y-96327619D02*
X141197619Y-95327619D01*
D11*
%TO.C,C1*%
X148140000Y-97590580D02*
X148140000Y-97309420D01*
X149160000Y-97590580D02*
X149160000Y-97309420D01*
%TO.C,C4*%
X146440580Y-98710000D02*
X146159420Y-98710000D01*
X146440580Y-97690000D02*
X146159420Y-97690000D01*
%TO.C,C3*%
X143140000Y-98790580D02*
X143140000Y-98509420D01*
X144160000Y-98790580D02*
X144160000Y-98509420D01*
%TO.C,U2*%
X131970000Y-89370000D02*
X133300000Y-89370000D01*
X131970000Y-90700000D02*
X131970000Y-89370000D01*
X131970000Y-91970000D02*
X131970000Y-112350000D01*
X131970000Y-91970000D02*
X134630000Y-91970000D01*
X131970000Y-112350000D02*
X134630000Y-112350000D01*
X134630000Y-91970000D02*
X134630000Y-112350000D01*
%TO.C,C2*%
X146440580Y-97110000D02*
X146159420Y-97110000D01*
X146440580Y-96090000D02*
X146159420Y-96090000D01*
D12*
%TO.C,U1*%
X145050000Y-99500000D02*
X145700000Y-99500000D01*
X145050000Y-99650000D02*
X145050000Y-99500000D01*
X145050000Y-102450000D02*
X145050000Y-102600000D01*
X145050000Y-102600000D02*
X145700000Y-102600000D01*
X147500000Y-99500000D02*
X148150000Y-99500000D01*
X147500000Y-102600000D02*
X148150000Y-102600000D01*
X148150000Y-99500000D02*
X148150000Y-99650000D01*
X148150000Y-102600000D02*
X148150000Y-102450000D01*
D13*
X144650000Y-100050000D02*
G75*
G03*
X144650000Y-100050000I-50000J0D01*
G01*
%TD*%
M02*
