%TF.GenerationSoftware,KiCad,Pcbnew,7.0.2-0*%
%TF.CreationDate,2023-06-08T14:22:34-07:00*%
%TF.ProjectId,IAM-20380HT_gyro,49414d2d-3230-4333-9830-48545f677972,rev?*%
%TF.SameCoordinates,Original*%
%TF.FileFunction,Legend,Bot*%
%TF.FilePolarity,Positive*%
%FSLAX46Y46*%
G04 Gerber Fmt 4.6, Leading zero omitted, Abs format (unit mm)*
G04 Created by KiCad (PCBNEW 7.0.2-0) date 2023-06-08 14:22:34*
%MOMM*%
%LPD*%
G01*
G04 APERTURE LIST*
G04 APERTURE END LIST*
%TO.C,G\u002A\u002A\u002A*%
G36*
X147280956Y-105985299D02*
G01*
X147316008Y-105985901D01*
X147370606Y-105987299D01*
X147437881Y-105989340D01*
X147513803Y-105991895D01*
X147594344Y-105994833D01*
X147675477Y-105998024D01*
X147961976Y-106009740D01*
X147752377Y-106343147D01*
X147542779Y-106676553D01*
X147430247Y-106675575D01*
X147396863Y-106675036D01*
X147341742Y-106673663D01*
X147273929Y-106671624D01*
X147197586Y-106669052D01*
X147116875Y-106666083D01*
X147035957Y-106662850D01*
X146754198Y-106651102D01*
X146963565Y-106317696D01*
X147172933Y-105984289D01*
X147280956Y-105985299D01*
G37*
G36*
X145144873Y-110026169D02*
G01*
X145215871Y-110027358D01*
X145266563Y-110029483D01*
X145296965Y-110032547D01*
X145307095Y-110036550D01*
X145305769Y-110047781D01*
X145301473Y-110075499D01*
X145294909Y-110114820D01*
X145286807Y-110161260D01*
X145285211Y-110170289D01*
X145266227Y-110288454D01*
X145251597Y-110404023D01*
X145240796Y-110522704D01*
X145233296Y-110650205D01*
X145228570Y-110792235D01*
X145222707Y-111044469D01*
X145079109Y-111041654D01*
X144935511Y-111038838D01*
X144913176Y-110893272D01*
X144906683Y-110849704D01*
X144871448Y-110544288D01*
X144852528Y-110228367D01*
X144845762Y-110025892D01*
X145076428Y-110025892D01*
X145144873Y-110026169D01*
G37*
G36*
X145601003Y-106880491D02*
G01*
X145608341Y-106891622D01*
X145623880Y-106918555D01*
X145646544Y-106959324D01*
X145675259Y-107011962D01*
X145708953Y-107074502D01*
X145746550Y-107144979D01*
X145786978Y-107221425D01*
X145966541Y-107562400D01*
X145824297Y-107788835D01*
X145797223Y-107831917D01*
X145753894Y-107900802D01*
X145711596Y-107967978D01*
X145672777Y-108029562D01*
X145639885Y-108081667D01*
X145615367Y-108120411D01*
X145548680Y-108225552D01*
X145498413Y-108130592D01*
X145482750Y-108100968D01*
X145457487Y-108053120D01*
X145426281Y-107993971D01*
X145391027Y-107927115D01*
X145353621Y-107856145D01*
X145315958Y-107784653D01*
X145183771Y-107533674D01*
X145388866Y-107206917D01*
X145395732Y-107195985D01*
X145441461Y-107123484D01*
X145483738Y-107056985D01*
X145521346Y-106998367D01*
X145553064Y-106949510D01*
X145577673Y-106912294D01*
X145593954Y-106888599D01*
X145600688Y-106880305D01*
X145601003Y-106880491D01*
G37*
G36*
X145250310Y-111285712D02*
G01*
X145253847Y-111319344D01*
X145262332Y-111383185D01*
X145273693Y-111456428D01*
X145287215Y-111535378D01*
X145302182Y-111616339D01*
X145317877Y-111695616D01*
X145333584Y-111769515D01*
X145348588Y-111834339D01*
X145362172Y-111886394D01*
X145373620Y-111921984D01*
X145375260Y-111929089D01*
X145371074Y-111934812D01*
X145356883Y-111938044D01*
X145329236Y-111939476D01*
X145284683Y-111939800D01*
X145188831Y-111939800D01*
X145145737Y-111820181D01*
X145131343Y-111779431D01*
X145109529Y-111715364D01*
X145088780Y-111652095D01*
X145072134Y-111598758D01*
X145071860Y-111597843D01*
X145061054Y-111560476D01*
X145047892Y-111513098D01*
X145033341Y-111459415D01*
X145018372Y-111403132D01*
X145003953Y-111347956D01*
X144991051Y-111297591D01*
X144980637Y-111255744D01*
X144973678Y-111226119D01*
X144971143Y-111212422D01*
X144971756Y-111211889D01*
X144985774Y-111209899D01*
X145015502Y-111208288D01*
X145057211Y-111207208D01*
X145107173Y-111206814D01*
X145243204Y-111206814D01*
X145250310Y-111285712D01*
G37*
G36*
X146785291Y-105437607D02*
G01*
X146815311Y-105494357D01*
X146853130Y-105566074D01*
X146889268Y-105634828D01*
X146921755Y-105696864D01*
X146948622Y-105748430D01*
X146967900Y-105785772D01*
X147019993Y-105887575D01*
X146813480Y-106216321D01*
X146804947Y-106229887D01*
X146759177Y-106302041D01*
X146716829Y-106367800D01*
X146679121Y-106425344D01*
X146647269Y-106472856D01*
X146622489Y-106508515D01*
X146605998Y-106530504D01*
X146599012Y-106537002D01*
X146595982Y-106532161D01*
X146584361Y-106511426D01*
X146565424Y-106476725D01*
X146540472Y-106430504D01*
X146510804Y-106375210D01*
X146477719Y-106313292D01*
X146442517Y-106247197D01*
X146406495Y-106179371D01*
X146370955Y-106112263D01*
X146337194Y-106048321D01*
X146306512Y-105989991D01*
X146280208Y-105939720D01*
X146259582Y-105899957D01*
X146245933Y-105873150D01*
X146240559Y-105861744D01*
X146240678Y-105861099D01*
X146247466Y-105848041D01*
X146263737Y-105820052D01*
X146288330Y-105779041D01*
X146320083Y-105726917D01*
X146357835Y-105665591D01*
X146400423Y-105596970D01*
X146446687Y-105522964D01*
X146654776Y-105191245D01*
X146785291Y-105437607D01*
G37*
G36*
X146991174Y-105112113D02*
G01*
X147055449Y-105113631D01*
X147129051Y-105115783D01*
X147208548Y-105118478D01*
X147290507Y-105121629D01*
X147599250Y-105134229D01*
X147781709Y-105479262D01*
X147789533Y-105494060D01*
X147829674Y-105570092D01*
X147866470Y-105639966D01*
X147898890Y-105701709D01*
X147925902Y-105753350D01*
X147946473Y-105792916D01*
X147959573Y-105818437D01*
X147964169Y-105827940D01*
X147964160Y-105828005D01*
X147953902Y-105829766D01*
X147926069Y-105830573D01*
X147883343Y-105830523D01*
X147828407Y-105829716D01*
X147763943Y-105828252D01*
X147692634Y-105826228D01*
X147617161Y-105823744D01*
X147540207Y-105820899D01*
X147464454Y-105817792D01*
X147392585Y-105814523D01*
X147327282Y-105811189D01*
X147271226Y-105807890D01*
X147227101Y-105804725D01*
X147197589Y-105801793D01*
X147185371Y-105799193D01*
X147185098Y-105798904D01*
X147177317Y-105786479D01*
X147161272Y-105758274D01*
X147138076Y-105716330D01*
X147108840Y-105662687D01*
X147074679Y-105599385D01*
X147036703Y-105528463D01*
X146996027Y-105451964D01*
X146816863Y-105113868D01*
X146899313Y-105111449D01*
X146904332Y-105111334D01*
X146939657Y-105111318D01*
X146991174Y-105112113D01*
G37*
G36*
X146726174Y-106824995D02*
G01*
X146782094Y-106826492D01*
X146849275Y-106828643D01*
X146925332Y-106831382D01*
X147007879Y-106834644D01*
X147070484Y-106837202D01*
X147151199Y-106840440D01*
X147224892Y-106843327D01*
X147288899Y-106845762D01*
X147340556Y-106847646D01*
X147377198Y-106848876D01*
X147396162Y-106849352D01*
X147433887Y-106849620D01*
X147223096Y-107185492D01*
X147012305Y-107521364D01*
X146966493Y-107520941D01*
X146961401Y-107520884D01*
X146921521Y-107520053D01*
X146868893Y-107518481D01*
X146806273Y-107516294D01*
X146736419Y-107513616D01*
X146662090Y-107510572D01*
X146586044Y-107507287D01*
X146511038Y-107503885D01*
X146439831Y-107500490D01*
X146375180Y-107497227D01*
X146319844Y-107494222D01*
X146276581Y-107491598D01*
X146248149Y-107489480D01*
X146237305Y-107487993D01*
X146241245Y-107478953D01*
X146254697Y-107454965D01*
X146276259Y-107418333D01*
X146304509Y-107371342D01*
X146338024Y-107316280D01*
X146375381Y-107255434D01*
X146415159Y-107191091D01*
X146455934Y-107125536D01*
X146496285Y-107061058D01*
X146534788Y-106999942D01*
X146570022Y-106944476D01*
X146600564Y-106896946D01*
X146624991Y-106859640D01*
X146641881Y-106834843D01*
X146649811Y-106824843D01*
X146657664Y-106824223D01*
X146683902Y-106824217D01*
X146726174Y-106824995D01*
G37*
G36*
X146190192Y-107661395D02*
G01*
X146198048Y-107661673D01*
X146232169Y-107662876D01*
X146282308Y-107664641D01*
X146345295Y-107666857D01*
X146417960Y-107669411D01*
X146497131Y-107672193D01*
X146579640Y-107675090D01*
X146621085Y-107676560D01*
X146696400Y-107679310D01*
X146763595Y-107681867D01*
X146820226Y-107684131D01*
X146863846Y-107686003D01*
X146892009Y-107687384D01*
X146902269Y-107688175D01*
X146902101Y-107688691D01*
X146895048Y-107700988D01*
X146878550Y-107728224D01*
X146853760Y-107768533D01*
X146821837Y-107820048D01*
X146783936Y-107880902D01*
X146741213Y-107949227D01*
X146694824Y-108023157D01*
X146485433Y-108356313D01*
X146438368Y-108355900D01*
X146424161Y-108355679D01*
X146385715Y-108354668D01*
X146334349Y-108352984D01*
X146272837Y-108350746D01*
X146203949Y-108348074D01*
X146130458Y-108345090D01*
X146055136Y-108341912D01*
X145980755Y-108338660D01*
X145910088Y-108335456D01*
X145845907Y-108332418D01*
X145790983Y-108329667D01*
X145748089Y-108327323D01*
X145719997Y-108325506D01*
X145709479Y-108324336D01*
X145709513Y-108323838D01*
X145715872Y-108311527D01*
X145731744Y-108284266D01*
X145755978Y-108243940D01*
X145787423Y-108192436D01*
X145824930Y-108131641D01*
X145867347Y-108063440D01*
X145913526Y-107989720D01*
X146121426Y-107658958D01*
X146190192Y-107661395D01*
G37*
G36*
X146127122Y-106037814D02*
G01*
X146133439Y-106049339D01*
X146148086Y-106076616D01*
X146170007Y-106117663D01*
X146198148Y-106170498D01*
X146231452Y-106233140D01*
X146268864Y-106303608D01*
X146309329Y-106379919D01*
X146335318Y-106429165D01*
X146379622Y-106514259D01*
X146416800Y-106587274D01*
X146446296Y-106647071D01*
X146467552Y-106692506D01*
X146480010Y-106722439D01*
X146483113Y-106735729D01*
X146483073Y-106735830D01*
X146476129Y-106748305D01*
X146459592Y-106775917D01*
X146434712Y-106816640D01*
X146402738Y-106868449D01*
X146364921Y-106929319D01*
X146322511Y-106997224D01*
X146276757Y-107070139D01*
X146273776Y-107074878D01*
X146228480Y-107146535D01*
X146186631Y-107212119D01*
X146149451Y-107269764D01*
X146118159Y-107317602D01*
X146093977Y-107353765D01*
X146078126Y-107376385D01*
X146071826Y-107383596D01*
X146071602Y-107383301D01*
X146064768Y-107371327D01*
X146049645Y-107343602D01*
X146027304Y-107302124D01*
X145998813Y-107248892D01*
X145965243Y-107185903D01*
X145927663Y-107115157D01*
X145887145Y-107038652D01*
X145707244Y-106698489D01*
X145915919Y-106366679D01*
X145925976Y-106350695D01*
X145971745Y-106278147D01*
X146013798Y-106211800D01*
X146050954Y-106153497D01*
X146082030Y-106105081D01*
X146105845Y-106068393D01*
X146121218Y-106045277D01*
X146126967Y-106037575D01*
X146127122Y-106037814D01*
G37*
G36*
X145224757Y-107959406D02*
G01*
X145231815Y-107970158D01*
X145246513Y-107996576D01*
X145267633Y-108036338D01*
X145293957Y-108087123D01*
X145324266Y-108146610D01*
X145357343Y-108212477D01*
X145483618Y-108465675D01*
X145545517Y-108471412D01*
X145553964Y-108472139D01*
X145589033Y-108474730D01*
X145638989Y-108478049D01*
X145699864Y-108481846D01*
X145767689Y-108485871D01*
X145838496Y-108489875D01*
X146069578Y-108502601D01*
X146042104Y-108535427D01*
X146018012Y-108564271D01*
X145967342Y-108625579D01*
X145925811Y-108677127D01*
X145890402Y-108722871D01*
X145858095Y-108766766D01*
X145825872Y-108812767D01*
X145790715Y-108864830D01*
X145765504Y-108903629D01*
X145704425Y-109004835D01*
X145642692Y-109116099D01*
X145583681Y-109230958D01*
X145530770Y-109342950D01*
X145487333Y-109445611D01*
X145484195Y-109453660D01*
X145455889Y-109530060D01*
X145424918Y-109620302D01*
X145390616Y-109726378D01*
X145352318Y-109850281D01*
X145351720Y-109851373D01*
X145343213Y-109855313D01*
X145323620Y-109858329D01*
X145291085Y-109860514D01*
X145243756Y-109861960D01*
X145179779Y-109862760D01*
X145097300Y-109863006D01*
X144846145Y-109863006D01*
X144853304Y-109697575D01*
X144864499Y-109506191D01*
X144893870Y-109213420D01*
X144938170Y-108928709D01*
X144998105Y-108647815D01*
X145074378Y-108366493D01*
X145089756Y-108316912D01*
X145109033Y-108258116D01*
X145129874Y-108197218D01*
X145151148Y-108137282D01*
X145171725Y-108081372D01*
X145190477Y-108032553D01*
X145206274Y-107993888D01*
X145217986Y-107968442D01*
X145224484Y-107959279D01*
X145224757Y-107959406D01*
G37*
G36*
X146465206Y-110537455D02*
G01*
X146467846Y-111043928D01*
X146386566Y-111043928D01*
X146305287Y-111043928D01*
X146302483Y-110883587D01*
X146299680Y-110723247D01*
X146106253Y-110716723D01*
X146097786Y-110716434D01*
X146019601Y-110713316D01*
X145959760Y-110709895D01*
X145916422Y-110705958D01*
X145887746Y-110701292D01*
X145871890Y-110695682D01*
X145867014Y-110688913D01*
X145866741Y-110687959D01*
X145855832Y-110679152D01*
X145833928Y-110667925D01*
X145808503Y-110653477D01*
X145779197Y-110631497D01*
X145752115Y-110606988D01*
X145732223Y-110584465D01*
X145724489Y-110568444D01*
X145723898Y-110563394D01*
X145716788Y-110555271D01*
X145712093Y-110551115D01*
X145703152Y-110532802D01*
X145693917Y-110506162D01*
X145686689Y-110478136D01*
X145683768Y-110455664D01*
X145682367Y-110445348D01*
X145672538Y-110425949D01*
X145669542Y-110421286D01*
X145665586Y-110397417D01*
X145667124Y-110361452D01*
X145668352Y-110352675D01*
X145828405Y-110352675D01*
X145829924Y-110409682D01*
X145846086Y-110462936D01*
X145875646Y-110508893D01*
X145917354Y-110544011D01*
X145969966Y-110564746D01*
X145984470Y-110567109D01*
X146019398Y-110570437D01*
X146064161Y-110572985D01*
X146114451Y-110574696D01*
X146165958Y-110575519D01*
X146214374Y-110575400D01*
X146255390Y-110574283D01*
X146284696Y-110572116D01*
X146297983Y-110568845D01*
X146300021Y-110558218D01*
X146301921Y-110530275D01*
X146303425Y-110488467D01*
X146304414Y-110436147D01*
X146304770Y-110376664D01*
X146304574Y-110317340D01*
X146303724Y-110264405D01*
X146302009Y-110226788D01*
X146299218Y-110201770D01*
X146295144Y-110186635D01*
X146289578Y-110178663D01*
X146288520Y-110177868D01*
X146273372Y-110172698D01*
X146245048Y-110169865D01*
X146201184Y-110169244D01*
X146139417Y-110170708D01*
X146110993Y-110171903D01*
X146032367Y-110178384D01*
X145970593Y-110189508D01*
X145923249Y-110206040D01*
X145887911Y-110228747D01*
X145862157Y-110258396D01*
X145842775Y-110295458D01*
X145828405Y-110352675D01*
X145668352Y-110352675D01*
X145673124Y-110318573D01*
X145682557Y-110273961D01*
X145694393Y-110232796D01*
X145707600Y-110200260D01*
X145721149Y-110181533D01*
X145733003Y-110169911D01*
X145748807Y-110146901D01*
X145759418Y-110131592D01*
X145780481Y-110113424D01*
X145793771Y-110104638D01*
X145808754Y-110089929D01*
X145809647Y-110088750D01*
X145826128Y-110078690D01*
X145852133Y-110070959D01*
X145855949Y-110070198D01*
X145880255Y-110063048D01*
X145893179Y-110055279D01*
X145904203Y-110049216D01*
X145926661Y-110046253D01*
X145947657Y-110043661D01*
X145964934Y-110035884D01*
X145964998Y-110035823D01*
X145979260Y-110032344D01*
X146012816Y-110029816D01*
X146064634Y-110028270D01*
X146133684Y-110027737D01*
X146218934Y-110028249D01*
X146462565Y-110030982D01*
X146464368Y-110376664D01*
X146465206Y-110537455D01*
G37*
G36*
X144926443Y-104093447D02*
G01*
X144946334Y-104105168D01*
X144980165Y-104125675D01*
X145025963Y-104153739D01*
X145081752Y-104188134D01*
X145145557Y-104227633D01*
X145215405Y-104271009D01*
X145289318Y-104317035D01*
X145365324Y-104364485D01*
X145441447Y-104412130D01*
X145515713Y-104458745D01*
X145586146Y-104503102D01*
X145650772Y-104543974D01*
X145650568Y-104544640D01*
X145643311Y-104557464D01*
X145626634Y-104585173D01*
X145601684Y-104625911D01*
X145569607Y-104677822D01*
X145531549Y-104739049D01*
X145488656Y-104807734D01*
X145442075Y-104882022D01*
X145230742Y-105218400D01*
X145203719Y-105199220D01*
X145202693Y-105198496D01*
X145181663Y-105185443D01*
X145168088Y-105180060D01*
X145167752Y-105180107D01*
X145158278Y-105189230D01*
X145141857Y-105210894D01*
X145121553Y-105240383D01*
X145100428Y-105272980D01*
X145081547Y-105303967D01*
X145067972Y-105328628D01*
X145062766Y-105342245D01*
X145062889Y-105343234D01*
X145072774Y-105355024D01*
X145093640Y-105368549D01*
X145094140Y-105368809D01*
X145114439Y-105383660D01*
X145117330Y-105396807D01*
X145114752Y-105401136D01*
X145101024Y-105423535D01*
X145079057Y-105458910D01*
X145050315Y-105504934D01*
X145016265Y-105559284D01*
X144978371Y-105619632D01*
X144938099Y-105683656D01*
X144896916Y-105749028D01*
X144856285Y-105813425D01*
X144817674Y-105874520D01*
X144782547Y-105929988D01*
X144752371Y-105977506D01*
X144728610Y-106014746D01*
X144712730Y-106039384D01*
X144706197Y-106049094D01*
X144694092Y-106050647D01*
X144674505Y-106041459D01*
X144655708Y-106030445D01*
X144639153Y-106025010D01*
X144634639Y-106027175D01*
X144620193Y-106042519D01*
X144601171Y-106068342D01*
X144580787Y-106099591D01*
X144562250Y-106131214D01*
X144548773Y-106158160D01*
X144543567Y-106175376D01*
X144543568Y-106175433D01*
X144550958Y-106193408D01*
X144568633Y-106212965D01*
X144593699Y-106233708D01*
X144383734Y-106566695D01*
X144362277Y-106600647D01*
X144304959Y-106690429D01*
X144256938Y-106764151D01*
X144218418Y-106821515D01*
X144189602Y-106862222D01*
X144170694Y-106885972D01*
X144161897Y-106892467D01*
X144159352Y-106890888D01*
X144141833Y-106879912D01*
X144109747Y-106859757D01*
X144064976Y-106831610D01*
X144009401Y-106796652D01*
X143944906Y-106756068D01*
X143873372Y-106711043D01*
X143796682Y-106662759D01*
X143443339Y-106440267D01*
X143462302Y-106408250D01*
X143462455Y-106407993D01*
X143471896Y-106392620D01*
X143491211Y-106361571D01*
X143519458Y-106316342D01*
X143555698Y-106258430D01*
X143598992Y-106189331D01*
X143648399Y-106110543D01*
X143702979Y-106023561D01*
X143761794Y-105929883D01*
X143823902Y-105831004D01*
X143888364Y-105728422D01*
X143954241Y-105623632D01*
X144020593Y-105518132D01*
X144086479Y-105413418D01*
X144150961Y-105310987D01*
X144213097Y-105212335D01*
X144271949Y-105118958D01*
X144293584Y-105084633D01*
X144340983Y-105009365D01*
X144387257Y-104935796D01*
X144430458Y-104867030D01*
X144468637Y-104806170D01*
X144499844Y-104756320D01*
X144522131Y-104720583D01*
X144584606Y-104620138D01*
X144660205Y-104498940D01*
X144726669Y-104392817D01*
X144783789Y-104302099D01*
X144831355Y-104227115D01*
X144869159Y-104168195D01*
X144896990Y-104125669D01*
X144914640Y-104099867D01*
X144921898Y-104091119D01*
X144926443Y-104093447D01*
G37*
G36*
X148989144Y-106655416D02*
G01*
X149015617Y-106668756D01*
X149053368Y-106689925D01*
X149103548Y-106719588D01*
X149167309Y-106758411D01*
X149245801Y-106807058D01*
X149340175Y-106866195D01*
X149703235Y-107094585D01*
X149421114Y-107544747D01*
X149374858Y-107618547D01*
X149309442Y-107722895D01*
X149242073Y-107830335D01*
X149174879Y-107937476D01*
X149109987Y-108040927D01*
X149049523Y-108137298D01*
X148995615Y-108223196D01*
X148950389Y-108295231D01*
X148922454Y-108339718D01*
X148874804Y-108415619D01*
X148828655Y-108489151D01*
X148785872Y-108557339D01*
X148748322Y-108617211D01*
X148717871Y-108665790D01*
X148696384Y-108700103D01*
X148679635Y-108726818D01*
X148650983Y-108772396D01*
X148614686Y-108830052D01*
X148572508Y-108896987D01*
X148526213Y-108970399D01*
X148477567Y-109047487D01*
X148428334Y-109125453D01*
X148424067Y-109132204D01*
X148378381Y-109204097D01*
X148336080Y-109269966D01*
X148298399Y-109327936D01*
X148266574Y-109376136D01*
X148241840Y-109412693D01*
X148225433Y-109435734D01*
X148218588Y-109443386D01*
X148216033Y-109441946D01*
X148198771Y-109431458D01*
X148166958Y-109411825D01*
X148122435Y-109384190D01*
X148067043Y-109349700D01*
X148002624Y-109309500D01*
X147931017Y-109264736D01*
X147854064Y-109216553D01*
X147797907Y-109181246D01*
X147707406Y-109123707D01*
X147632921Y-109075427D01*
X147574762Y-109036613D01*
X147533239Y-109007474D01*
X147508660Y-108988219D01*
X147501335Y-108979055D01*
X147501407Y-108978867D01*
X147508261Y-108966583D01*
X147524679Y-108939178D01*
X147549429Y-108898652D01*
X147581279Y-108847002D01*
X147618996Y-108786229D01*
X147661348Y-108718329D01*
X147707104Y-108645301D01*
X147716828Y-108629824D01*
X147769175Y-108546902D01*
X147812099Y-108479767D01*
X147846569Y-108427028D01*
X147873552Y-108387291D01*
X147894018Y-108359163D01*
X147908934Y-108341254D01*
X147919270Y-108332168D01*
X147925992Y-108330515D01*
X147936709Y-108333800D01*
X147962911Y-108341901D01*
X147973710Y-108341774D01*
X147987049Y-108332107D01*
X148004640Y-108309869D01*
X148029083Y-108272329D01*
X148034708Y-108263251D01*
X148059434Y-108221152D01*
X148072752Y-108193263D01*
X148075350Y-108177822D01*
X148067918Y-108173066D01*
X148058952Y-108170176D01*
X148040687Y-108159176D01*
X148040370Y-108158941D01*
X148036211Y-108154450D01*
X148034761Y-108147711D01*
X148036927Y-108137060D01*
X148043617Y-108120835D01*
X148055739Y-108097375D01*
X148074202Y-108065017D01*
X148099914Y-108022098D01*
X148133783Y-107966957D01*
X148176716Y-107897932D01*
X148229623Y-107813359D01*
X148259663Y-107765514D01*
X148311478Y-107683690D01*
X148353979Y-107617712D01*
X148387911Y-107566496D01*
X148414017Y-107528955D01*
X148433043Y-107504002D01*
X148445731Y-107490551D01*
X148452826Y-107487517D01*
X148478004Y-107496379D01*
X148497918Y-107497927D01*
X148515066Y-107489047D01*
X148533831Y-107467376D01*
X148558598Y-107430555D01*
X148566707Y-107417915D01*
X148586543Y-107385982D01*
X148600351Y-107362233D01*
X148605531Y-107351067D01*
X148605448Y-107350453D01*
X148596950Y-107339148D01*
X148578756Y-107322782D01*
X148551982Y-107301433D01*
X148752881Y-106981358D01*
X148755013Y-106977961D01*
X148800842Y-106905142D01*
X148843542Y-106837636D01*
X148881838Y-106777436D01*
X148914453Y-106726534D01*
X148940111Y-106686923D01*
X148957534Y-106660596D01*
X148965447Y-106649544D01*
X148972799Y-106649239D01*
X148989144Y-106655416D01*
G37*
G36*
X149267255Y-111043928D02*
G01*
X149191161Y-111043928D01*
X149115066Y-111043928D01*
X149112263Y-110883587D01*
X149109459Y-110723247D01*
X148962808Y-110720413D01*
X148952785Y-110720221D01*
X148897751Y-110719413D01*
X148858895Y-110719670D01*
X148832596Y-110721402D01*
X148815231Y-110725014D01*
X148803178Y-110730913D01*
X148792815Y-110739507D01*
X148775440Y-110762015D01*
X148762895Y-110791385D01*
X148754186Y-110813769D01*
X148741627Y-110826973D01*
X148740554Y-110827449D01*
X148726007Y-110841198D01*
X148711481Y-110864461D01*
X148694011Y-110899769D01*
X148680112Y-110925433D01*
X148670824Y-110938485D01*
X148664200Y-110942125D01*
X148659810Y-110945576D01*
X148656433Y-110961704D01*
X148656047Y-110965502D01*
X148647118Y-110987681D01*
X148630077Y-111012606D01*
X148623184Y-111020598D01*
X148609100Y-111033559D01*
X148592566Y-111040544D01*
X148567613Y-111043388D01*
X148528274Y-111043928D01*
X148503552Y-111043673D01*
X148473016Y-111041658D01*
X148457285Y-111037052D01*
X148452826Y-111029163D01*
X148453877Y-111022632D01*
X148465551Y-111006258D01*
X148473309Y-110999896D01*
X148493798Y-110972977D01*
X148513792Y-110934197D01*
X148514410Y-110932816D01*
X148529066Y-110908735D01*
X148549399Y-110883399D01*
X148553029Y-110879395D01*
X148568649Y-110859614D01*
X148574990Y-110846980D01*
X148576292Y-110842715D01*
X148586680Y-110825003D01*
X148604058Y-110801064D01*
X148604498Y-110800500D01*
X148624374Y-110768595D01*
X148637111Y-110735687D01*
X148641931Y-110706424D01*
X148638058Y-110685457D01*
X148624715Y-110677435D01*
X148609117Y-110672784D01*
X148582541Y-110654845D01*
X148553402Y-110627637D01*
X148526404Y-110595683D01*
X148506253Y-110563508D01*
X148493838Y-110539728D01*
X148478894Y-110514750D01*
X148468772Y-110502181D01*
X148465528Y-110495897D01*
X148461443Y-110470924D01*
X148458834Y-110429756D01*
X148457916Y-110374927D01*
X148457926Y-110373708D01*
X148605531Y-110373708D01*
X148608090Y-110404685D01*
X148625639Y-110460067D01*
X148657200Y-110507971D01*
X148699668Y-110544288D01*
X148749938Y-110564904D01*
X148755424Y-110565934D01*
X148788374Y-110569737D01*
X148834934Y-110572816D01*
X148889705Y-110574879D01*
X148947290Y-110575632D01*
X149094619Y-110575632D01*
X149091859Y-110374569D01*
X149089099Y-110173507D01*
X148963347Y-110170640D01*
X148887647Y-110171111D01*
X148804063Y-110178453D01*
X148737513Y-110193234D01*
X148689020Y-110215287D01*
X148663370Y-110237879D01*
X148634027Y-110279484D01*
X148613353Y-110327407D01*
X148605531Y-110373708D01*
X148457926Y-110373708D01*
X148458325Y-110323046D01*
X148459995Y-110285265D01*
X148463534Y-110259167D01*
X148469548Y-110240350D01*
X148478644Y-110224409D01*
X148497400Y-110194637D01*
X148513636Y-110165524D01*
X148516206Y-110160991D01*
X148536966Y-110136461D01*
X148564171Y-110115056D01*
X148572503Y-110109823D01*
X148593665Y-110094911D01*
X148603727Y-110085185D01*
X148604288Y-110084308D01*
X148617743Y-110077269D01*
X148642016Y-110070872D01*
X148645414Y-110070197D01*
X148669657Y-110063080D01*
X148682597Y-110055279D01*
X148694502Y-110049077D01*
X148717515Y-110046253D01*
X148739355Y-110043466D01*
X148753147Y-110036072D01*
X148754456Y-110035131D01*
X148771814Y-110031949D01*
X148807769Y-110029381D01*
X148860934Y-110027479D01*
X148929923Y-110026298D01*
X149013347Y-110025892D01*
X149267255Y-110025892D01*
X149267255Y-110534910D01*
X149267255Y-110575632D01*
X149267255Y-111043928D01*
G37*
G36*
X148117927Y-106102522D02*
G01*
X148135599Y-106112427D01*
X148167789Y-106131524D01*
X148212647Y-106158682D01*
X148268323Y-106192773D01*
X148332968Y-106232664D01*
X148404731Y-106277227D01*
X148481762Y-106325331D01*
X148528406Y-106354615D01*
X148623024Y-106414622D01*
X148700257Y-106464553D01*
X148760060Y-106504379D01*
X148802389Y-106534069D01*
X148827199Y-106553594D01*
X148834446Y-106562923D01*
X148831431Y-106568450D01*
X148818820Y-106589540D01*
X148797805Y-106623907D01*
X148769860Y-106669199D01*
X148736455Y-106723065D01*
X148699063Y-106783151D01*
X148659155Y-106847106D01*
X148618205Y-106912577D01*
X148577682Y-106977212D01*
X148539060Y-107038658D01*
X148503810Y-107094563D01*
X148473405Y-107142575D01*
X148449316Y-107180341D01*
X148433014Y-107205509D01*
X148425973Y-107215727D01*
X148418758Y-107215951D01*
X148401599Y-107208092D01*
X148390349Y-107201749D01*
X148368414Y-107195929D01*
X148348444Y-107203304D01*
X148327161Y-107225734D01*
X148301289Y-107265081D01*
X148296359Y-107273319D01*
X148277559Y-107306349D01*
X148264373Y-107332136D01*
X148259399Y-107345675D01*
X148259439Y-107346317D01*
X148267893Y-107360018D01*
X148286622Y-107376770D01*
X148313844Y-107396600D01*
X148107107Y-107726296D01*
X148098909Y-107739368D01*
X148053177Y-107812248D01*
X148011079Y-107879263D01*
X147973811Y-107938514D01*
X147942569Y-107988103D01*
X147918549Y-108026132D01*
X147902946Y-108050703D01*
X147896955Y-108059916D01*
X147896948Y-108059925D01*
X147887059Y-108057788D01*
X147868131Y-108047191D01*
X147847629Y-108035710D01*
X147831977Y-108030541D01*
X147825002Y-108035339D01*
X147809390Y-108053621D01*
X147789400Y-108081031D01*
X147768249Y-108112703D01*
X147749157Y-108143773D01*
X147735341Y-108169376D01*
X147730020Y-108184647D01*
X147730071Y-108185497D01*
X147738458Y-108200896D01*
X147756846Y-108219143D01*
X147783672Y-108240533D01*
X147617671Y-108504575D01*
X147607036Y-108521488D01*
X147563375Y-108590875D01*
X147521483Y-108657373D01*
X147483172Y-108718110D01*
X147450254Y-108770217D01*
X147424541Y-108810822D01*
X147407845Y-108837055D01*
X147364019Y-108905493D01*
X146998327Y-108675980D01*
X146632634Y-108446467D01*
X146842783Y-108111715D01*
X146875711Y-108059281D01*
X146923012Y-107984144D01*
X146961281Y-107923830D01*
X146991628Y-107876812D01*
X147015164Y-107841563D01*
X147033000Y-107816559D01*
X147046245Y-107800271D01*
X147056010Y-107791175D01*
X147063405Y-107787743D01*
X147069541Y-107788450D01*
X147075527Y-107791769D01*
X147092854Y-107801413D01*
X147108866Y-107806573D01*
X147116025Y-107801823D01*
X147131778Y-107783462D01*
X147151778Y-107755819D01*
X147172853Y-107723769D01*
X147191833Y-107692183D01*
X147205546Y-107665936D01*
X147210822Y-107649898D01*
X147206212Y-107637725D01*
X147189502Y-107622813D01*
X147177228Y-107612655D01*
X147172864Y-107594459D01*
X147172966Y-107594143D01*
X147180025Y-107580809D01*
X147196678Y-107552443D01*
X147221692Y-107511057D01*
X147253831Y-107458666D01*
X147291861Y-107397284D01*
X147334545Y-107328925D01*
X147380650Y-107255603D01*
X147426037Y-107183756D01*
X147470187Y-107114241D01*
X147505617Y-107059142D01*
X147533437Y-107016918D01*
X147554760Y-106986027D01*
X147570699Y-106964930D01*
X147582364Y-106952085D01*
X147590868Y-106945950D01*
X147597323Y-106944984D01*
X147602841Y-106947647D01*
X147617163Y-106955856D01*
X147638001Y-106961603D01*
X147643668Y-106958954D01*
X147659496Y-106942927D01*
X147679803Y-106916634D01*
X147701306Y-106885017D01*
X147720728Y-106853019D01*
X147734786Y-106825580D01*
X147740201Y-106807641D01*
X147733547Y-106793809D01*
X147715410Y-106778170D01*
X147690620Y-106763086D01*
X147898440Y-106432225D01*
X147907390Y-106417988D01*
X147953411Y-106345209D01*
X147996027Y-106278494D01*
X148034015Y-106219715D01*
X148066148Y-106170742D01*
X148091202Y-106133445D01*
X148107951Y-106109695D01*
X148115170Y-106101363D01*
X148117927Y-106102522D01*
G37*
G36*
X145786475Y-104636571D02*
G01*
X145804041Y-104646509D01*
X145836132Y-104665624D01*
X145880905Y-104692787D01*
X145936515Y-104726870D01*
X146001118Y-104766745D01*
X146072871Y-104811284D01*
X146149927Y-104859359D01*
X146160839Y-104866187D01*
X146256840Y-104926613D01*
X146336026Y-104977187D01*
X146399057Y-105018354D01*
X146446588Y-105050557D01*
X146479276Y-105074240D01*
X146497780Y-105089848D01*
X146502756Y-105097824D01*
X146502698Y-105097973D01*
X146495825Y-105110288D01*
X146479370Y-105137731D01*
X146454574Y-105178292D01*
X146422677Y-105229963D01*
X146384918Y-105290735D01*
X146342537Y-105358600D01*
X146296774Y-105431548D01*
X146296640Y-105431762D01*
X146243917Y-105515395D01*
X146200771Y-105583223D01*
X146166115Y-105636782D01*
X146138865Y-105677609D01*
X146117935Y-105707241D01*
X146102239Y-105727214D01*
X146090694Y-105739065D01*
X146082213Y-105744330D01*
X146075712Y-105744546D01*
X146073711Y-105743933D01*
X146044121Y-105735564D01*
X146024052Y-105734235D01*
X146008458Y-105742521D01*
X145992292Y-105763000D01*
X145970508Y-105798245D01*
X145965163Y-105807186D01*
X145946297Y-105840457D01*
X145933078Y-105866504D01*
X145928097Y-105880317D01*
X145935607Y-105893575D01*
X145954059Y-105909207D01*
X145954333Y-105909388D01*
X145971094Y-105924906D01*
X145975341Y-105938415D01*
X145971919Y-105944456D01*
X145958901Y-105965960D01*
X145937575Y-106000644D01*
X145909403Y-106046169D01*
X145875845Y-106100199D01*
X145838363Y-106160396D01*
X145798419Y-106224421D01*
X145757474Y-106289938D01*
X145716988Y-106354608D01*
X145678424Y-106416094D01*
X145643242Y-106472058D01*
X145612904Y-106520163D01*
X145588871Y-106558071D01*
X145572605Y-106583444D01*
X145565566Y-106593944D01*
X145565558Y-106593955D01*
X145555727Y-106591814D01*
X145536829Y-106581219D01*
X145516356Y-106569734D01*
X145500813Y-106564569D01*
X145493520Y-106569865D01*
X145477862Y-106588608D01*
X145457888Y-106616297D01*
X145436792Y-106648084D01*
X145417769Y-106679119D01*
X145404013Y-106704555D01*
X145398718Y-106719542D01*
X145398774Y-106720382D01*
X145407192Y-106735202D01*
X145425563Y-106753186D01*
X145452409Y-106774592D01*
X145261244Y-107079340D01*
X145223349Y-107139686D01*
X145180253Y-107208157D01*
X145141024Y-107270311D01*
X145107051Y-107323961D01*
X145079718Y-107366918D01*
X145060413Y-107396992D01*
X145050522Y-107411995D01*
X145030966Y-107439901D01*
X144978149Y-107406283D01*
X144961143Y-107395511D01*
X144927306Y-107374159D01*
X144880641Y-107344758D01*
X144823523Y-107308804D01*
X144758327Y-107267792D01*
X144687431Y-107223218D01*
X144613210Y-107176577D01*
X144301088Y-106980489D01*
X144484851Y-106688541D01*
X144514295Y-106641760D01*
X144557855Y-106572536D01*
X144598091Y-106508580D01*
X144633499Y-106452283D01*
X144662572Y-106406038D01*
X144683808Y-106372239D01*
X144695700Y-106353277D01*
X144706702Y-106336132D01*
X144719586Y-106320279D01*
X144729977Y-106317508D01*
X144742615Y-106324957D01*
X144754587Y-106332951D01*
X144773040Y-106338158D01*
X144790743Y-106330432D01*
X144810784Y-106307919D01*
X144836253Y-106268765D01*
X144857331Y-106232942D01*
X144872735Y-106201955D01*
X144877702Y-106181323D01*
X144872940Y-106167605D01*
X144859159Y-106157355D01*
X144846762Y-106148528D01*
X144838798Y-106135923D01*
X144838935Y-106135321D01*
X144845810Y-106122060D01*
X144862209Y-106093852D01*
X144886949Y-106052637D01*
X144918846Y-106000358D01*
X144956716Y-105938958D01*
X144999374Y-105870379D01*
X145045639Y-105796563D01*
X145096296Y-105716144D01*
X145140008Y-105647150D01*
X145175103Y-105592458D01*
X145202675Y-105550540D01*
X145223822Y-105519866D01*
X145239640Y-105498909D01*
X145251226Y-105486141D01*
X145259675Y-105480033D01*
X145266085Y-105479057D01*
X145271552Y-105481685D01*
X145285843Y-105489879D01*
X145306495Y-105495544D01*
X145312364Y-105492655D01*
X145328219Y-105476314D01*
X145348532Y-105449836D01*
X145370031Y-105418155D01*
X145389441Y-105386205D01*
X145403488Y-105358919D01*
X145408898Y-105341232D01*
X145402212Y-105327673D01*
X145384064Y-105312198D01*
X145359230Y-105297114D01*
X145567467Y-104966253D01*
X145576571Y-104951800D01*
X145622627Y-104879064D01*
X145665233Y-104812393D01*
X145703167Y-104753654D01*
X145735208Y-104704716D01*
X145760135Y-104667448D01*
X145776727Y-104643717D01*
X145783761Y-104635391D01*
X145786475Y-104636571D01*
G37*
G36*
X144398603Y-110524730D02*
G01*
X144398639Y-110531644D01*
X144399054Y-110629915D01*
X144399252Y-110722000D01*
X144399242Y-110805873D01*
X144399032Y-110879510D01*
X144398632Y-110940887D01*
X144398050Y-110987978D01*
X144397295Y-111018758D01*
X144396377Y-111031203D01*
X144389888Y-111034113D01*
X144366147Y-111037495D01*
X144328332Y-111040249D01*
X144279884Y-111042358D01*
X144224246Y-111043802D01*
X144164859Y-111044563D01*
X144105166Y-111044622D01*
X144048608Y-111043961D01*
X143998627Y-111042562D01*
X143958665Y-111040406D01*
X143932164Y-111037474D01*
X143922565Y-111033748D01*
X143917679Y-111027446D01*
X143899947Y-111023567D01*
X143884900Y-111022147D01*
X143850334Y-111014592D01*
X143809286Y-111002470D01*
X143768352Y-110987996D01*
X143734129Y-110973387D01*
X143713212Y-110960856D01*
X143696288Y-110948363D01*
X143680865Y-110942125D01*
X143680641Y-110942120D01*
X143666781Y-110934484D01*
X143649515Y-110916674D01*
X143649102Y-110916152D01*
X143631935Y-110898527D01*
X143618496Y-110891223D01*
X143617571Y-110891126D01*
X143605377Y-110881428D01*
X143591704Y-110860682D01*
X143590386Y-110858199D01*
X143576863Y-110838302D01*
X143565739Y-110830141D01*
X143556875Y-110824796D01*
X143545489Y-110807235D01*
X143545426Y-110807091D01*
X143532772Y-110781976D01*
X143516555Y-110753788D01*
X143514439Y-110750251D01*
X143504217Y-110728167D01*
X143502740Y-110714473D01*
X143503772Y-110710284D01*
X143496081Y-110698470D01*
X143495919Y-110698363D01*
X143489214Y-110684798D01*
X143482825Y-110656948D01*
X143478112Y-110620710D01*
X143478101Y-110620591D01*
X143473659Y-110583479D01*
X143468044Y-110553902D01*
X143462471Y-110538253D01*
X143458761Y-110529728D01*
X143460286Y-110522464D01*
X143637913Y-110522464D01*
X143638788Y-110568882D01*
X143643395Y-110609926D01*
X143651734Y-110638275D01*
X143664835Y-110666996D01*
X143677135Y-110699548D01*
X143680363Y-110707970D01*
X143704457Y-110747026D01*
X143741698Y-110787606D01*
X143787322Y-110825073D01*
X143836564Y-110854786D01*
X143849816Y-110861185D01*
X143871867Y-110870674D01*
X143893683Y-110877390D01*
X143919382Y-110881966D01*
X143953084Y-110885031D01*
X143998905Y-110887216D01*
X144060966Y-110889151D01*
X144075638Y-110889559D01*
X144133355Y-110890907D01*
X144174370Y-110891137D01*
X144201687Y-110890026D01*
X144218310Y-110887349D01*
X144227241Y-110882881D01*
X144231487Y-110876398D01*
X144232504Y-110869832D01*
X144234030Y-110844327D01*
X144235387Y-110802593D01*
X144236527Y-110747174D01*
X144237400Y-110680616D01*
X144237959Y-110605462D01*
X144238157Y-110524255D01*
X144238139Y-110446116D01*
X144237997Y-110370305D01*
X144237597Y-110310946D01*
X144236805Y-110265917D01*
X144235487Y-110233095D01*
X144233511Y-110210358D01*
X144230742Y-110195584D01*
X144227046Y-110186651D01*
X144222291Y-110181437D01*
X144216341Y-110177819D01*
X144208800Y-110175039D01*
X144178654Y-110170922D01*
X144129632Y-110169686D01*
X144061091Y-110171305D01*
X144019236Y-110173194D01*
X143968262Y-110176916D01*
X143928622Y-110182369D01*
X143894851Y-110190390D01*
X143861483Y-110201813D01*
X143830939Y-110215754D01*
X143780523Y-110247692D01*
X143734960Y-110286684D01*
X143699103Y-110328333D01*
X143677806Y-110368240D01*
X143677357Y-110369588D01*
X143664890Y-110402574D01*
X143651734Y-110431546D01*
X143647362Y-110442782D01*
X143640772Y-110477990D01*
X143637913Y-110522464D01*
X143460286Y-110522464D01*
X143463383Y-110507712D01*
X143469146Y-110490119D01*
X143475299Y-110458326D01*
X143480058Y-110420288D01*
X143484802Y-110384797D01*
X143491580Y-110354951D01*
X143498742Y-110338845D01*
X143501322Y-110335853D01*
X143514580Y-110315474D01*
X143528940Y-110288036D01*
X143533369Y-110279163D01*
X143546580Y-110258228D01*
X143556550Y-110249860D01*
X143561345Y-110247695D01*
X143566253Y-110233392D01*
X143571965Y-110217784D01*
X143591624Y-110193015D01*
X143621231Y-110165393D01*
X143656524Y-110138816D01*
X143693246Y-110117182D01*
X143713374Y-110106758D01*
X143741034Y-110090890D01*
X143757600Y-110079339D01*
X143767214Y-110072931D01*
X143791086Y-110066613D01*
X143805245Y-110064939D01*
X143831080Y-110056433D01*
X143844610Y-110049637D01*
X143870704Y-110036586D01*
X143877845Y-110034893D01*
X143904406Y-110032464D01*
X143946940Y-110030578D01*
X144002713Y-110029312D01*
X144068988Y-110028744D01*
X144143028Y-110028950D01*
X144395952Y-110030982D01*
X144398600Y-110524255D01*
X144398603Y-110524730D01*
G37*
G36*
X147844469Y-110678848D02*
G01*
X147852994Y-110687615D01*
X147858119Y-110690676D01*
X147862365Y-110706279D01*
X147863421Y-110716778D01*
X147870000Y-110732579D01*
X147871438Y-110734120D01*
X147878489Y-110747001D01*
X147882508Y-110760016D01*
X147891214Y-110782447D01*
X147899357Y-110806103D01*
X147903087Y-110825713D01*
X147904126Y-110832123D01*
X147913267Y-110840321D01*
X147918239Y-110842404D01*
X147923447Y-110856566D01*
X147927546Y-110873841D01*
X147939443Y-110901009D01*
X147954507Y-110927310D01*
X147968018Y-110943531D01*
X147970335Y-110945796D01*
X147971091Y-110959521D01*
X147970486Y-110961037D01*
X147973172Y-110977276D01*
X147984322Y-111000419D01*
X147987016Y-111005016D01*
X147996623Y-111026148D01*
X147997369Y-111037876D01*
X147996941Y-111038199D01*
X147982737Y-111041098D01*
X147954371Y-111043149D01*
X147917469Y-111043928D01*
X147843622Y-111043928D01*
X147836396Y-111010842D01*
X147826279Y-110981614D01*
X147810137Y-110953477D01*
X147797150Y-110931868D01*
X147791103Y-110910556D01*
X147790932Y-110907579D01*
X147785228Y-110884221D01*
X147773946Y-110855937D01*
X147756790Y-110819960D01*
X147486351Y-110820030D01*
X147215912Y-110820099D01*
X147194045Y-110853116D01*
X147191906Y-110856416D01*
X147175617Y-110885782D01*
X147165140Y-110911583D01*
X147159446Y-110930318D01*
X147147752Y-110961380D01*
X147136408Y-110984171D01*
X147127998Y-110993026D01*
X147122021Y-110999446D01*
X147115018Y-111018477D01*
X147112835Y-111026174D01*
X147106850Y-111036072D01*
X147094444Y-111041384D01*
X147070971Y-111043529D01*
X147031786Y-111043928D01*
X147021332Y-111043910D01*
X146986367Y-111043143D01*
X146967074Y-111040555D01*
X146959635Y-111035195D01*
X146960234Y-111026112D01*
X146965247Y-111007921D01*
X146972204Y-110980301D01*
X146979102Y-110960997D01*
X146987149Y-110952305D01*
X146987686Y-110952241D01*
X146995389Y-110942155D01*
X147002492Y-110920090D01*
X147004861Y-110911096D01*
X147016737Y-110878492D01*
X147032473Y-110844796D01*
X147038452Y-110833069D01*
X147053232Y-110799984D01*
X147062514Y-110773284D01*
X147072559Y-110746666D01*
X147089034Y-110717628D01*
X147090472Y-110715564D01*
X147101129Y-110695665D01*
X147101931Y-110683921D01*
X147100350Y-110681405D01*
X147107322Y-110677435D01*
X147114438Y-110673153D01*
X147116946Y-110664171D01*
X147296716Y-110664171D01*
X147297011Y-110664714D01*
X147310459Y-110669988D01*
X147339836Y-110674019D01*
X147381112Y-110676821D01*
X147430260Y-110678406D01*
X147483253Y-110678785D01*
X147536062Y-110677972D01*
X147584662Y-110675979D01*
X147625023Y-110672818D01*
X147653118Y-110668501D01*
X147664920Y-110663041D01*
X147665617Y-110658209D01*
X147662645Y-110641595D01*
X147653392Y-110613906D01*
X147637165Y-110573351D01*
X147613269Y-110518141D01*
X147581011Y-110446484D01*
X147570954Y-110423834D01*
X147560862Y-110399397D01*
X147556954Y-110387389D01*
X147555529Y-110381889D01*
X147547890Y-110361685D01*
X147535858Y-110333289D01*
X147530998Y-110322277D01*
X147511175Y-110277638D01*
X147497521Y-110248340D01*
X147488289Y-110231663D01*
X147481731Y-110224884D01*
X147476102Y-110225282D01*
X147469654Y-110230136D01*
X147462332Y-110238163D01*
X147455151Y-110256335D01*
X147453750Y-110266204D01*
X147445463Y-110288174D01*
X147440063Y-110298601D01*
X147431125Y-110317736D01*
X147418772Y-110346078D01*
X147401604Y-110386853D01*
X147378223Y-110443287D01*
X147363560Y-110478782D01*
X147349594Y-110512497D01*
X147340265Y-110534910D01*
X147332762Y-110553225D01*
X147328131Y-110565451D01*
X147327183Y-110568060D01*
X147320222Y-110584944D01*
X147309143Y-110610725D01*
X147305122Y-110620667D01*
X147297366Y-110647197D01*
X147296716Y-110664171D01*
X147116946Y-110664171D01*
X147119199Y-110656100D01*
X147119257Y-110654323D01*
X147124762Y-110631713D01*
X147136438Y-110604218D01*
X147150326Y-110579982D01*
X147162465Y-110567148D01*
X147166012Y-110563700D01*
X147170101Y-110547510D01*
X147173695Y-110524893D01*
X147183227Y-110494373D01*
X147195386Y-110465879D01*
X147206848Y-110448377D01*
X147211096Y-110442650D01*
X147221279Y-110420285D01*
X147231077Y-110389840D01*
X147236082Y-110373166D01*
X147245368Y-110350408D01*
X147252866Y-110341483D01*
X147256968Y-110339721D01*
X147261724Y-110326075D01*
X147263038Y-110315800D01*
X147271175Y-110292988D01*
X147276093Y-110283141D01*
X147288439Y-110256593D01*
X147302739Y-110224409D01*
X147309414Y-110209289D01*
X147329721Y-110164998D01*
X147349289Y-110124193D01*
X147358473Y-110104239D01*
X147367409Y-110079792D01*
X147368867Y-110067017D01*
X147370302Y-110057714D01*
X147382883Y-110042073D01*
X147388003Y-110038598D01*
X147412895Y-110031023D01*
X147447883Y-110027171D01*
X147486921Y-110026905D01*
X147523964Y-110030087D01*
X147552965Y-110036582D01*
X147567879Y-110046253D01*
X147575373Y-110061898D01*
X147588402Y-110090477D01*
X147603822Y-110125151D01*
X147604136Y-110125863D01*
X147619215Y-110157583D01*
X147632040Y-110180171D01*
X147639865Y-110188778D01*
X147642990Y-110190341D01*
X147642655Y-110202546D01*
X147642629Y-110211601D01*
X147649709Y-110235424D01*
X147663335Y-110265144D01*
X147673152Y-110284632D01*
X147684769Y-110311471D01*
X147689299Y-110327729D01*
X147689989Y-110333316D01*
X147697257Y-110341483D01*
X147700635Y-110344079D01*
X147709434Y-110360886D01*
X147718991Y-110388141D01*
X147723935Y-110402904D01*
X147735499Y-110427785D01*
X147746022Y-110439886D01*
X147751248Y-110443271D01*
X147754534Y-110457329D01*
X147754530Y-110465069D01*
X147761407Y-110487730D01*
X147774761Y-110516648D01*
X147783813Y-110534855D01*
X147792985Y-110557826D01*
X147794256Y-110569084D01*
X147793871Y-110569635D01*
X147796946Y-110581626D01*
X147809599Y-110601024D01*
X147825579Y-110627195D01*
X147837019Y-110657552D01*
X147837062Y-110657746D01*
X147837225Y-110658209D01*
X147844469Y-110678848D01*
G37*
%TD*%
M02*
